<?xml version="1.0" standalone="no"?>
<!DOCTYPE svg PUBLIC "-//W3C//DTD SVG 1.1//EN" "http://www.w3.org/Graphics/SVG/1.1/DTD/svg11.dtd" >
<svg xmlns="http://www.w3.org/2000/svg" xmlns:xlink="http://www.w3.org/1999/xlink" version="1.1">
<metadata></metadata>
<defs>
<font id="amulya_variableregular" horiz-adv-x="500" >
<font-face units-per-em="1000" ascent="800" descent="-200" />
<missing-glyph horiz-adv-x="330" />
<glyph unicode="&#xfb00;" horiz-adv-x="603" d="M60 458v42h264v-42h-264zM122 0v627q0 62 30.5 95.5t88.5 33.5q14 0 26.5 -1t25.5 -6l-3 -46q-10 2 -20 3.5t-24 1.5q-36 0 -55 -19t-19 -69v-620h-50zM310 458v42h244v-42h-244zM402 0v627q0 62 30.5 95.5t88.5 33.5q14 0 26.5 -1t25.5 -6l-3 -46q-10 2 -20 3.5t-24 1.5 q-36 0 -55 -19t-19 -69v-620h-50z" />
<glyph unicode="&#xfb01;" horiz-adv-x="557" d="M60 458v42h214v-42h-214zM122 0v627q0 62 30.5 95.5t88.5 33.5q14 0 26.5 -1t25.5 -6l-3 -46q-10 2 -20 3.5t-24 1.5q-36 0 -55 -19t-19 -69v-620h-50zM393 663q0 14 10 24t24 10t24 -10t10 -24t-10 -24t-24 -10t-24 10t-10 24zM402 0v500h50v-500h-50z" />
<glyph unicode="&#xfb02;" horiz-adv-x="585" d="M60 458v42h214v-42h-214zM122 0v627q0 62 30.5 95.5t88.5 33.5q14 0 26.5 -1t25.5 -6l-3 -46q-10 2 -20 3.5t-24 1.5q-36 0 -55 -19t-19 -69v-620h-50zM402 93v652h50v-646q0 -41 13.5 -53t42.5 -12q9 0 17.5 1t19.5 3v-39q-11 -4 -25 -6.5t-27 -2.5q-58 0 -74.5 27.5 t-16.5 75.5z" />
<glyph unicode="&#xfb03;" horiz-adv-x="837" d="M60 458v42h264v-42h-264zM122 0v627q0 62 30.5 95.5t88.5 33.5q14 0 26.5 -1t25.5 -6l-3 -46q-10 2 -20 3.5t-24 1.5q-36 0 -55 -19t-19 -69v-620h-50zM310 458v42h244v-42h-244zM402 0v627q0 62 30.5 95.5t88.5 33.5q14 0 26.5 -1t25.5 -6l-3 -46q-10 2 -20 3.5t-24 1.5 q-36 0 -55 -19t-19 -69v-620h-50zM673 663q0 14 10 24t24 10t24 -10t10 -24t-10 -24t-24 -10t-24 10t-10 24zM682 0v500h50v-500h-50z" />
<glyph unicode="&#xfb04;" horiz-adv-x="865" d="M60 458v42h264v-42h-264zM122 0v627q0 62 30.5 95.5t88.5 33.5q14 0 26.5 -1t25.5 -6l-3 -46q-10 2 -20 3.5t-24 1.5q-36 0 -55 -19t-19 -69v-620h-50zM310 458v42h244v-42h-244zM402 0v627q0 62 30.5 95.5t88.5 33.5q14 0 26.5 -1t25.5 -6l-3 -46q-10 2 -20 3.5t-24 1.5 q-36 0 -55 -19t-19 -69v-620h-50zM682 93v652h50v-646q0 -41 13.5 -53t42.5 -12q9 0 17.5 1t19.5 3v-39q-11 -4 -25 -6.5t-27 -2.5q-58 0 -74.5 27.5t-16.5 75.5z" />
<glyph horiz-adv-x="0" />
<glyph horiz-adv-x="333" />
<glyph unicode=" "  horiz-adv-x="330" />
<glyph unicode="&#x09;" horiz-adv-x="330" />
<glyph unicode="&#xa0;" horiz-adv-x="330" />
<glyph unicode="!" horiz-adv-x="298" d="M110 29q0 17 11.5 28t27.5 11t27.5 -11t11.5 -28q0 -16 -11.5 -27.5t-27.5 -11.5t-27.5 11.5t-11.5 27.5zM122 745h54l-8 -547h-38z" />
<glyph unicode="&#x22;" horiz-adv-x="254" d="M50 564v181h46v-181h-46zM158 564v181h46v-181h-46z" />
<glyph unicode="#" horiz-adv-x="665" d="M30 187l6 44h558l-6 -44h-558zM72 513l6 44h556l-6 -44h-556zM121 0l106 745h44l-106 -745h-44zM398 0l106 745h44l-106 -745h-44z" />
<glyph unicode="$" horiz-adv-x="548" d="M50 33l1 53q45 -22 101.5 -35t106.5 -13q92 0 143 43.5t51 115.5q0 47 -22 76.5t-63 52t-99 46.5q-59 26 -105.5 51.5t-73 61.5t-26.5 90q0 56 28 96.5t78.5 62t115.5 21.5q37 0 70.5 -6t60.5 -16t45 -21v-51q-41 24 -85.5 36t-89.5 12q-75 0 -124 -33.5t-49 -101.5 q0 -31 15 -55.5t53.5 -48t110.5 -55.5q64 -28 111 -54.5t73 -63t26 -96.5q0 -65 -30.5 -112t-86 -72t-131.5 -25q-42 0 -82.5 6.5t-72.5 16.5t-50 18zM263 -93v928h47v-928h-47z" />
<glyph unicode="%" horiz-adv-x="834" d="M25 572q0 60 17 100.5t49.5 61t76.5 20.5q74 0 110.5 -45.5t36.5 -137.5t-37.5 -137.5t-108.5 -45.5q-68 0 -106 45.5t-38 138.5zM73 573q0 -73 24.5 -109.5t71.5 -36.5q49 0 73.5 36.5t24.5 109.5q0 72 -24.5 107t-73.5 35q-46 0 -71 -36t-25 -106zM190 0l404 745h50 l-404 -745h-50zM519 179q0 60 17 100.5t49.5 61t76.5 20.5q74 0 110.5 -45.5t36.5 -137.5t-37.5 -137.5t-108.5 -45.5q-68 0 -106 45.5t-38 138.5zM567 180q0 -73 24.5 -109.5t71.5 -36.5q49 0 73.5 36.5t24.5 109.5q0 72 -24.5 107t-73.5 35q-46 0 -71 -36t-25 -106z" />
<glyph unicode="&#x26;" horiz-adv-x="700" d="M54 183q0 63 27 107.5t73.5 74.5t104.5 49l24 -27q-26 -9 -57 -24.5t-58.5 -39t-45 -57t-17.5 -80.5q0 -52 23.5 -85.5t62.5 -49.5t86 -16q68 0 122.5 31t95.5 80.5t69.5 106t43.5 108.5l33 -30q-18 -60 -50.5 -120t-78.5 -110t-106 -80.5t-135 -30.5q-62 0 -111 22 t-77.5 64.5t-28.5 106.5zM141 593q0 71 46 116t133 45q48 0 86.5 -16t61 -49.5t22.5 -87.5q0 -44 -18 -82t-59 -70t-112 -61l-25 30q89 34 127 78.5t38 102.5q0 59 -36 85.5t-89 26.5q-61 0 -93 -30.5t-31 -86.5q0 -26 8 -50t25 -50.5t43.5 -57.5t63.5 -71l347 -365h-60 l-317 329q-60 62 -95 106.5t-50.5 82t-15.5 75.5z" />
<glyph unicode="'" horiz-adv-x="146" d="M50 564v181h46v-181h-46z" />
<glyph unicode="(" horiz-adv-x="309" d="M80 301q0 59 6 120.5t22 123.5t44.5 122.5t73.5 115.5h53q-55 -69 -87 -147t-45.5 -161t-13.5 -169q0 -85 13.5 -167.5t45.5 -159t87 -146.5h-53q-59 74 -91 152t-43.5 158t-11.5 158z" />
<glyph unicode=")" horiz-adv-x="309" d="M30 -167h53q60 74 91.5 152t43 158t11.5 158q0 59 -6 120.5t-22 123.5t-44.5 122.5t-73.5 115.5h-53q56 -69 87.5 -147t45 -161t13.5 -169q0 -85 -13.5 -167.5t-45 -159t-87.5 -146.5z" />
<glyph unicode="*" horiz-adv-x="352" d="M25 626l22 43l106 -49v125h48v-125l106 48l20 -44l-109 -50l82 -101l-39 -29l-85 105l-90 -105l-37 31l85 99z" />
<glyph unicode="+" d="M65 267v48h370v-48h-370zM224 106v370h52v-370h-52z" />
<glyph unicode="," horiz-adv-x="188" d="M50 29q0 16 11.5 27.5t28.5 11.5t28 -12t11 -31q0 -18 -5.5 -39.5t-16 -46t-25.5 -51.5l-28 14q12 25 19.5 47.5t10.5 38.5q-18 5 -26 16t-8 25z" />
<glyph unicode="-" horiz-adv-x="363" d="M55 212v50h253v-50h-253z" />
<glyph unicode="." horiz-adv-x="188" d="M55 29q0 17 11.5 28t27.5 11t27.5 -11t11.5 -28q0 -16 -11.5 -27.5t-27.5 -11.5t-27.5 11.5t-11.5 27.5z" />
<glyph unicode="/" horiz-adv-x="465" d="M-25 -81l441 865h54l-441 -865h-54z" />
<glyph unicode="0" horiz-adv-x="662" d="M65 375q0 185 66 282.5t195 97.5q137 0 204 -93.5t67 -287.5q0 -195 -70 -289.5t-200 -94.5q-133 0 -197.5 94.5t-64.5 290.5zM118 377q0 -173 52 -257.5t157 -84.5q110 0 163.5 84.5t53.5 257.5q0 169 -53.5 251t-163.5 82q-103 0 -156 -85.5t-53 -247.5z" />
<glyph unicode="1" horiz-adv-x="458" d="M55 613v47l169 85l33 -36zM72 0v47h351v-47h-351zM222 0v723l2 22h49v-745h-51z" />
<glyph unicode="2" horiz-adv-x="533" d="M35 0h453v47h-415l19 -13q74 60 139 123t115 128t78 130t28 128t-23 111t-71.5 75t-126.5 27q-57 0 -100 -12.5t-75 -29.5v-51q23 12 66.5 29.5t108.5 17.5q79 0 123.5 -45t44.5 -115q0 -46 -16 -97.5t-56.5 -111.5t-111 -133.5t-180.5 -164.5v-43z" />
<glyph unicode="3" horiz-adv-x="511" d="M40 26q31 -16 77 -26t93 -10q73 0 129.5 25t89 73t32.5 118q0 50 -17.5 89.5t-52.5 67.5t-86 42.5t-117 14.5q-7 0 -13 -0.5t-13 -0.5l37 -28q59 2 108 24.5t78.5 65t29.5 104.5q0 79 -51.5 124.5t-158.5 45.5q-24 0 -62 -5t-83 -26v-53q20 14 62.5 26t86.5 12 q71 0 112.5 -35t41.5 -94q0 -76 -57.5 -117t-157.5 -41v-44q7 0 13.5 0.5t13.5 0.5q62 0 115 -17.5t85.5 -57t32.5 -107.5q0 -81 -57.5 -121t-146.5 -40q-43 0 -85.5 12t-78.5 33v-55z" />
<glyph unicode="4" horiz-adv-x="603" d="M30 181v47l373 517h50v-745h-48v698l15 -5l-362 -501l-8 34h518v-45h-538z" />
<glyph unicode="5" horiz-adv-x="514" d="M55 27l2 57q36 -23 76 -35t80 -12q33 0 67.5 9.5t64.5 30.5t48 55.5t18 83.5q0 73 -37.5 115t-97.5 59.5t-130 17.5q-18 0 -36.5 -1t-36.5 -3l17 341h334v-47h-331l45 46l-14 -318l-34 24q19 2 37 3t35 1q65 0 120.5 -13t96 -41t63 -71t22.5 -103q0 -63 -28 -117 t-83 -86.5t-136 -32.5q-41 0 -84 9t-78 28z" />
<glyph unicode="6" horiz-adv-x="580" d="M65 360q0 -117 26.5 -199.5t80 -126.5t134.5 -44q68 0 117 28.5t75.5 81t26.5 123.5q0 68 -24 119t-72 79.5t-120 29.5q-57 1 -114 -17.5t-93 -59.5v-46q39 36 87 56t103 20q61 0 101 -23.5t59.5 -65t19.5 -94.5q0 -59 -22 -100.5t-59.5 -62.5t-83.5 -21q-92 0 -141.5 85 t-49.5 245q0 102 19 169t52.5 105t79 53.5t99.5 15.5q24 0 44 -3t37.5 -9t33.5 -14l4 51q-18 8 -44 14t-68 6q-70 0 -127 -19.5t-97.5 -64.5t-62 -121t-21.5 -190z" />
<glyph unicode="7" horiz-adv-x="486" d="M30 698v47h421v-41l-327 -704h-53l338 720l18 -22h-397z" />
<glyph unicode="8" horiz-adv-x="572" d="M55 181q0 83 55.5 137.5t144.5 92.5l35 -27q-30 -12 -62 -29.5t-60 -42t-45.5 -57t-17.5 -73.5q0 -67 46.5 -107t130.5 -40q53 0 95 17t66 49.5t24 76.5q0 48 -29 82t-74 62t-95 56q-96 56 -138 103.5t-42 106.5q0 50 25.5 87.5t70 58.5t101.5 21q61 0 106.5 -23.5 t71 -63.5t25.5 -91q0 -55 -25.5 -91.5t-63.5 -61t-76 -44.5l-50 18q45 22 82.5 45t60 53.5t22.5 74.5q0 59 -43 99t-114 40q-65 0 -104 -34t-39 -84q0 -31 16.5 -58.5t51 -55t89.5 -59.5q41 -24 80.5 -46.5t71 -49t50.5 -60t19 -80.5q0 -58 -30 -101t-83.5 -67.5 t-123.5 -24.5q-105 0 -165 53t-60 138z" />
<glyph unicode="9" horiz-adv-x="580" d="M55 522q0 -68 24 -119t72 -79.5t120 -29.5q38 0 76.5 8t72.5 25t58 44v46q-39 -36 -86.5 -56t-103.5 -20q-61 0 -101 23.5t-59.5 65t-19.5 94.5q0 60 22 101t59.5 62t83.5 21q92 0 141.5 -84.5t49.5 -245.5q0 -102 -19 -168t-52.5 -104t-79 -53.5t-99.5 -15.5 q-37 0 -64.5 7t-51.5 19l-4 -53q12 -5 27.5 -9.5t36.5 -7.5t49 -3q94 0 163 37t107 123.5t38 234.5q0 123 -26.5 205t-80 123.5t-134.5 41.5q-64 0 -113.5 -27.5t-77.5 -79.5t-28 -126z" />
<glyph unicode=":" horiz-adv-x="230" d="M75 448q0 17 11.5 28t27.5 11t27.5 -11t11.5 -28q0 -16 -11.5 -27.5t-27.5 -11.5t-27.5 11.5t-11.5 27.5zM77 29q0 17 11.5 28t27.5 11t27.5 -11t11.5 -28q0 -16 -11.5 -27.5t-27.5 -11.5t-27.5 11.5t-11.5 27.5z" />
<glyph unicode=";" horiz-adv-x="230" d="M75 448q0 17 11.5 28t27.5 11t27.5 -11t11.5 -28q0 -16 -11.5 -27.5t-27.5 -11.5t-27.5 11.5t-11.5 27.5zM77 29q0 16 11.5 27.5t28.5 11.5t28 -12t11 -31q0 -18 -5.5 -39.5t-16 -46t-25.5 -51.5l-28 14q12 25 19.5 47.5t10.5 38.5q-18 5 -26 16t-8 25z" />
<glyph unicode="&#x3c;" d="M74 272v38l327 182l24 -46l-313 -174v38l313 -174l-24 -46z" />
<glyph unicode="=" d="M65 185v48h370v-48h-370zM65 354v48h370v-48h-370z" />
<glyph unicode="&#x3e;" d="M75 136l24 -46l327 182v38l-327 182l-24 -46l313 -174v38z" />
<glyph unicode="?" horiz-adv-x="462" d="M60 666q7 6 29 16.5t55 19t73 8.5q73 0 107.5 -34t34.5 -94q0 -41 -15.5 -70t-40 -51.5t-52.5 -42.5t-52.5 -42t-40 -50.5t-15.5 -69.5v-58h45v58q0 34 16 59t41.5 45t54.5 40t54.5 44.5t41.5 58.5t16 81t-19.5 85.5t-62.5 62t-114 23.5q-40 0 -77.5 -9t-78.5 -29v-51z M130 29q0 17 11.5 28t27.5 11t27.5 -11t11.5 -28q0 -16 -11.5 -27.5t-27.5 -11.5t-27.5 11.5t-11.5 27.5z" />
<glyph unicode="@" horiz-adv-x="1031" d="M45 261q0 114 36.5 204.5t104 154t160 97t203.5 33.5q134 0 232 -47t151.5 -134.5t53.5 -208.5q0 -98 -35 -177t-100 -125t-156 -46q-35 0 -55 12t-20 49q0 6 0.5 13t1.5 15l45 342l23 56h30l-49 -382q-1 -7 -1.5 -14t-0.5 -12q0 -25 11 -31t33 -6q68 0 117.5 41.5 t77 109.5t28.5 148q2 109 -46 187.5t-135.5 121t-206.5 42.5q-98 0 -181 -30t-144 -87.5t-94.5 -139t-33.5 -184.5q0 -132 51.5 -227t148 -146t231.5 -53q86 -1 163.5 17t143.5 52v-44q-51 -29 -132.5 -49.5t-178.5 -20.5q-148 0 -255 56t-164.5 161t-57.5 252zM285 210 q0 83 29 151t86 108.5t142 40.5q44 0 80 -12t67 -32l-11 -49q-33 26 -67 38t-69 12q-66 0 -112 -34t-70 -91t-24 -126q0 -62 14.5 -96t39.5 -47.5t54 -13.5q31 0 65 14.5t69.5 42t67.5 66.5l15 -32q-22 -25 -54.5 -57.5t-76 -56.5t-98.5 -24q-47 0 -80 25t-50 69.5 t-17 103.5z" />
<glyph unicode="A" horiz-adv-x="657" d="M30 0l271 745h54l272 -745h-52l-261 719h29l-261 -719h-52zM152 243v47h354v-47h-354z" />
<glyph unicode="B" horiz-adv-x="646" d="M115 0v745h52v-745h-52zM134 698l12 47h159q71 0 126 -15t86 -54.5t31 -111.5q0 -48 -16.5 -82.5t-41.5 -58t-53 -38.5v11q57 -16 98 -59t41 -123t-33.5 -127t-87 -67t-113.5 -20h-196v47h192q89 0 136.5 38t47.5 122q0 75 -40.5 113t-135.5 38h-204v47h168q86 0 135 37 t49 117q0 47 -18.5 77.5t-57 46t-100.5 15.5h-184z" />
<glyph unicode="C" horiz-adv-x="655" d="M65 376q0 118 36 203t109.5 130.5t186.5 45.5q62 0 115.5 -14t92.5 -43l-3 -56q-21 22 -54.5 36.5t-72.5 22t-80 7.5q-89 0 -151 -38t-93.5 -112.5t-31.5 -184.5q0 -160 70.5 -248t212.5 -88q30 0 68 6t73.5 16.5t55.5 25.5v-49q-22 -14 -57 -24.5t-74.5 -16t-77.5 -5.5 q-108 0 -180 46.5t-108.5 133t-36.5 206.5z" />
<glyph unicode="D" horiz-adv-x="767" d="M115 0v745h52v-745h-52zM145 698l12 47h186q170 0 264.5 -93t94.5 -285q0 -116 -44 -198t-125.5 -125.5t-195.5 -43.5h-184v47h180q145 0 230 80t85 237q0 170 -82 252t-223 82h-198z" />
<glyph unicode="E" horiz-adv-x="586" d="M115 0v745h51v-745h-51zM128 698v47h382v-47h-382zM131 0v47h380v-47h-380zM136 350v47h316v-47h-316z" />
<glyph unicode="F" horiz-adv-x="570" d="M115 0v745h51v-745h-51zM128 698v47h382v-47h-382zM136 330v47h318v-47h-318z" />
<glyph unicode="G" horiz-adv-x="722" d="M65 376q0 177 81.5 278t250.5 101q41 0 84 -6t80.5 -18.5t63.5 -32.5l-3 -56q-23 22 -61 36.5t-81.5 22t-84.5 7.5q-89 0 -151 -38t-93.5 -112.5t-31.5 -184.5q0 -160 71 -248t217 -88q41 0 89 6t89.5 16.5t61.5 25.5v-49q-41 -22 -109 -34t-138 -12q-112 0 -186.5 46.5 t-111.5 133t-37 206.5zM459 278v47h176v-47h-176zM597 38v287h50v-287h-50z" />
<glyph unicode="H" horiz-adv-x="779" d="M115 0v745h52v-745h-52zM146 350v47h488v-47h-488zM612 0v745h52v-745h-52z" />
<glyph unicode="I" horiz-adv-x="282" d="M115 0v745h52v-745h-52z" />
<glyph unicode="J" horiz-adv-x="369" d="M25 11l2 52q10 -8 38 -16.5t57 -8.5q26 0 47.5 10t34.5 38t13 80v579h52v-586q0 -69 -20 -106t-52.5 -51t-71.5 -14q-35 0 -59.5 7.5t-40.5 15.5z" />
<glyph unicode="K" horiz-adv-x="610" d="M115 0v745h52v-745h-52zM145 320l356 425h61l-313 -367l1 47l330 -425h-66l-280 361l-85 -98z" />
<glyph unicode="L" horiz-adv-x="552" d="M115 0v745h52v-745h-52zM132 0v47h370v-47h-370z" />
<glyph unicode="M" horiz-adv-x="963" d="M105 0l26 745h58l309 -679h-33l309 679h58l26 -745h-53l-18 685l11 -6l-297 -652h-39l-297 648l11 6l-18 -681h-53z" />
<glyph unicode="N" horiz-adv-x="806" d="M115 0v745h50l504 -699l-28 -3v702h50v-745h-47l-506 696l27 9v-705h-50z" />
<glyph unicode="O" horiz-adv-x="792" d="M65 375q0 118 39.5 203t113.5 131t178 46t178 -46t113.5 -131.5t39.5 -203.5q0 -119 -39.5 -205t-113 -132.5t-177.5 -46.5t-178.5 46.5t-114 132.5t-39.5 206zM119 377q0 -105 33 -181.5t95.5 -118t149.5 -41.5t148.5 41.5t94.5 118t33 181.5q0 103 -33 177.5 t-94.5 114.5t-148.5 40t-149.5 -40t-95.5 -114.5t-33 -177.5z" />
<glyph unicode="P" horiz-adv-x="611" d="M115 0v745h52v-745h-52zM143 698l12 47h124q131 0 199 -57.5t68 -170.5q0 -115 -67 -180.5t-207 -65.5h-121v47h121q119 0 169.5 49t50.5 143q0 188 -208 188h-141z" />
<glyph unicode="Q" horiz-adv-x="792" d="M65 375q0 118 39.5 203t113.5 131t178 46t178 -46t113.5 -131.5t39.5 -203.5q0 -119 -39.5 -205t-113 -132.5t-177.5 -46.5t-178.5 46.5t-114 132.5t-39.5 206zM119 377q0 -105 33 -181.5t95.5 -118t149.5 -41.5t148.5 41.5t94.5 118t33 181.5q0 103 -33 177.5 t-94.5 114.5t-148.5 40t-149.5 -40t-95.5 -114.5t-33 -177.5zM274 34l67 1q61 -32 120 -68.5t121 -69t131.5 -53t152.5 -20.5q41 0 64 3t40 9l-1 -50q-17 -4 -31.5 -6.5t-30.5 -3.5t-40 -1q-96 0 -177 25.5t-151.5 66t-135.5 85t-129 82.5z" />
<glyph unicode="R" horiz-adv-x="668" d="M115 0v745h52v-745h-52zM143 698l12 47h134q128 0 193 -55t65 -157q0 -100 -66 -161t-212 -61h-118v47h116q119 0 172.5 43t53.5 127q0 86 -51.5 128t-152.5 42h-146zM319 352h58l113 -195q38 -66 74.5 -92.5t73.5 -26.5h15v-41q-7 -2 -16 -3t-17 -1q-47 0 -90.5 33 t-84.5 106z" />
<glyph unicode="S" horiz-adv-x="553" d="M50 33l1 53q45 -22 101.5 -35t106.5 -13q92 0 143 43.5t51 115.5q0 47 -22 76.5t-63 52t-99 46.5q-59 26 -105.5 51.5t-73 61.5t-26.5 90q0 56 28 96.5t78.5 62t115.5 21.5q37 0 70.5 -6t60.5 -16t45 -21v-51q-41 24 -85.5 36t-89.5 12q-75 0 -124 -33.5t-49 -101.5 q0 -31 15 -55.5t53.5 -48t110.5 -55.5q64 -28 111 -54.5t73 -63t26 -96.5q0 -65 -30.5 -112t-86 -72t-131.5 -25q-42 0 -82.5 6.5t-72.5 16.5t-50 18z" />
<glyph unicode="T" horiz-adv-x="598" d="M25 698v47h548v-47h-548zM273 0v745h52v-745h-52z" />
<glyph unicode="U" horiz-adv-x="755" d="M105 282v463h52v-444q0 -99 25 -156.5t73.5 -82t117.5 -24.5t120 27t79.5 85.5t28.5 152.5v442h49v-457q0 -97 -34.5 -163.5t-97 -100.5t-146.5 -34q-127 0 -197 68.5t-70 223.5z" />
<glyph unicode="V" horiz-adv-x="608" d="M25 745h53l241 -721h-30l241 721h53l-251 -745h-56z" />
<glyph unicode="W" horiz-adv-x="1008" d="M30 745h53l221 -720h-27l203 687h46l208 -687h-28l218 720h54l-231 -745h-56l-201 663h28l-201 -663h-56z" />
<glyph unicode="X" horiz-adv-x="631" d="M20 0l267 384l36 -34l-244 -350h-59zM26 745h62l242 -345l281 -400h-63l-251 359zM295 392l247 353h58l-270 -387z" />
<glyph unicode="Y" horiz-adv-x="621" d="M5 745h57l265 -420l-42 -27zM284 0v341h53v-341h-53zM298 325l261 420h57l-280 -447z" />
<glyph unicode="Z" horiz-adv-x="605" d="M45 0v47l471 674l20 -23h-478v47h500v-47l-470 -675l-26 24h498v-47h-515z" />
<glyph unicode="[" horiz-adv-x="309" d="M115 -167h50v947h-50v-947zM119 -124v-43h150v43h-150zM119 737h150v43h-150v-43z" />
<glyph unicode="\" horiz-adv-x="455" d="M-5 784l431 -865h54l-431 865h-54z" />
<glyph unicode="]" horiz-adv-x="309" d="M40 -124v-43h150v43h-150zM40 737h150v43h-150v-43zM144 -167h50v947h-50v-947z" />
<glyph unicode="^" horiz-adv-x="600" d="M101 264l185 449h38l175 -449h-54l-159 411h34l-165 -411h-54z" />
<glyph unicode="_" horiz-adv-x="442" d="M0 -54h442v-45h-442v45z" />
<glyph unicode="`" horiz-adv-x="600" d="M209 657l30 47l151 -115l-22 -28z" />
<glyph unicode="a" horiz-adv-x="533" d="M60 115q0 61 42 95t115 50t166 22l2 -40q-129 -9 -201 -35.5t-72 -88.5q0 -34 23.5 -57.5t75.5 -23.5q62 0 106.5 32.5t72.5 72.5l15 -34q-12 -18 -31 -38.5t-44.5 -38.5t-57 -29.5t-70.5 -11.5q-61 0 -101.5 32t-40.5 93zM82 416v49q11 6 35 16t56 18t66 8q46 0 80 -13 t56.5 -37t34 -57.5t11.5 -75.5v-241q0 -26 8 -38t33 -12q6 0 14.5 1t16.5 2v-37q-5 -3 -19 -6t-30 -3q-38 0 -55.5 20.5t-17.5 57.5v256q0 68 -34 101.5t-102 33.5q-32 0 -73 -11t-80 -32z" />
<glyph unicode="b" horiz-adv-x="596" d="M105 33v712h50v-330q20 21 46 43t61 37t80 15q87 0 135.5 -60.5t48.5 -194.5q0 -129 -57 -197t-182 -68q-27 0 -58.5 5t-63.5 15t-60 23zM155 63q29 -11 62 -19.5t68 -8.5q107 0 148 57.5t41 162.5q0 87 -19.5 133t-51 63t-66.5 17q-50 0 -97 -31t-85 -75v-299z" />
<glyph unicode="c" horiz-adv-x="502" d="M65 254q0 80 24.5 137.5t75.5 88t128 30.5q61 0 100 -14t51 -21l-2 -51q-22 17 -64.5 28.5t-86.5 11.5q-94 0 -134 -56.5t-40 -152.5q0 -113 49 -165t136 -52q41 0 80 10t70 36v-50q-25 -22 -68 -33t-88 -11q-79 0 -130.5 33t-76 92.5t-24.5 138.5z" />
<glyph unicode="d" horiz-adv-x="597" d="M70 245q0 129 57.5 197t181.5 68q26 0 66.5 -5.5t82.5 -25.5l-4 -49q-32 18 -67 26.5t-76 8.5q-106 0 -147.5 -57.5t-41.5 -162.5q0 -84 19.5 -130.5t51 -64.5t66.5 -18q37 0 71.5 16t66 43.5t57.5 63.5l20 -31q-13 -16 -32.5 -38.5t-46 -44.5t-61.5 -36.5t-80 -14.5 q-87 0 -135.5 61t-48.5 194zM442 0v745h50v-745h-50z" />
<glyph unicode="e" horiz-adv-x="526" d="M65 251q0 82 26.5 139.5t76 88.5t118.5 31q53 0 93.5 -19.5t63.5 -64t23 -119.5q0 -13 -0.5 -21.5t-1.5 -19.5h-363l7 43h352l-48 -33q2 11 2.5 22t0.5 21q0 38 -12 71.5t-41 54.5t-80 21q-85 0 -125 -58.5t-40 -153.5q0 -112 50.5 -164t138.5 -52q47 0 86.5 14t69.5 42 v-52q-25 -23 -72.5 -37.5t-98.5 -14.5q-76 0 -126 33t-75 92t-25 136z" />
<glyph unicode="f" horiz-adv-x="323" d="M60 458v42h214v-42h-214zM122 0v627q0 62 30.5 95.5t88.5 33.5q14 0 26.5 -1t25.5 -6l-3 -46q-10 2 -20 3.5t-24 1.5q-36 0 -55 -19t-19 -69v-620h-50z" />
<glyph unicode="g" horiz-adv-x="512" d="M25 -96q0 33 17.5 62t46 52.5t62.5 39.5l38 -17q-26 -12 -52.5 -32t-44.5 -45.5t-18 -54.5q0 -46 46.5 -72.5t121.5 -26.5q49 0 93 12t72 36t28 59t-35 55.5t-123 34.5l-118 19q-25 4 -38.5 15t-18 24t-4.5 24q0 19 8.5 37t23.5 36t33 37l33 -14q-17 -22 -34 -41t-17 -42 q0 -16 12.5 -24t49.5 -14l110 -18q42 -7 80 -20t61.5 -37.5t23.5 -65.5q0 -29 -14.5 -57.5t-44 -51t-75.5 -36t-109 -13.5q-82 0 -129 22t-66 54.5t-19 62.5zM65 335q0 75 45.5 123.5t131.5 48.5q89 0 135.5 -49.5t46.5 -123.5t-47 -124t-135 -50q-59 0 -98.5 23.5t-59 63 t-19.5 88.5zM115 336q0 -55 34 -94.5t97 -39.5q59 0 93.5 36t34.5 94t-34.5 95.5t-96.5 37.5t-95 -37.5t-33 -91.5zM335 485q21 5 43 9t45 6.5t44 4.5l3 -47q-20 0 -42 -1.5t-44 -2.5t-42 -3z" />
<glyph unicode="h" horiz-adv-x="617" d="M105 0v745h50v-745h-50zM123 374q19 25 48.5 57t73 55.5t105.5 23.5q55 0 92 -21t56 -60.5t19 -95.5v-333h-50v326q0 71 -32.5 106.5t-93.5 35.5q-50 0 -89 -22t-66.5 -50.5t-44.5 -50.5z" />
<glyph unicode="i" horiz-adv-x="260" d="M95 658q0 14 10.5 24.5t24.5 10.5t24.5 -10.5t10.5 -24.5t-10.5 -24.5t-24.5 -10.5t-24.5 10.5t-10.5 24.5zM105 0v500h50v-500h-50z" />
<glyph unicode="j" horiz-adv-x="260" d="M12 -186q11 -1 21 -2t18 -1q35 0 44.5 16.5t9.5 58.5v614h50v-621q0 -50 -18.5 -82t-74.5 -32q-10 0 -24.5 1.5t-25.5 5.5v42zM95 658q0 14 10.5 24.5t24.5 10.5t24.5 -10.5t10.5 -24.5t-10.5 -24.5t-24.5 -10.5t-24.5 10.5t-10.5 24.5z" />
<glyph unicode="k" d="M105 0v745h50v-745h-50zM146 245l45 41l212 214h66l-242 -241l2 44l246 -303h-65l-197 249l-63 -47z" />
<glyph unicode="l" horiz-adv-x="288" d="M105 93v652h50v-646q0 -41 13.5 -53t42.5 -12q9 0 17.5 0.5t19.5 3.5v-39q-11 -4 -25 -6.5t-27 -2.5q-58 0 -74.5 27.5t-16.5 75.5z" />
<glyph unicode="m" horiz-adv-x="959" d="M105 0v500h50v-500h-50zM123 374q19 25 48.5 57t73 55.5t105.5 23.5q50 0 85 -21t53.5 -60.5t18.5 -95.5v-333h-50v326q0 71 -31.5 106.5t-84.5 35.5q-50 0 -88.5 -22t-65.5 -51t-44 -51zM475 374q19 25 48.5 57t73 55.5t105.5 23.5q50 0 85 -21t53.5 -60.5t18.5 -95.5 v-333h-50v326q0 71 -31.5 106.5t-84.5 35.5q-50 0 -88.5 -22t-65.5 -51t-44 -51z" />
<glyph unicode="n" horiz-adv-x="617" d="M105 0v500h50v-500h-50zM123 374q19 25 48.5 57t73 55.5t105.5 23.5q55 0 92 -21t56 -60.5t19 -95.5v-333h-50v326q0 71 -32.5 106.5t-93.5 35.5q-50 0 -88.5 -22t-65.5 -51t-44 -51z" />
<glyph unicode="o" horiz-adv-x="593" d="M65 250q0 123 62 191.5t171 68.5q107 0 168.5 -67.5t61.5 -189.5q0 -123 -62 -193t-171 -70q-107 0 -168.5 69t-61.5 191zM117 252q0 -103 48 -161t132 -58q83 0 131 58t48 161t-48 159t-131 56q-84 0 -132 -56.5t-48 -158.5z" />
<glyph unicode="p" horiz-adv-x="597" d="M105 -230v730h50v-730h-50zM123 376q14 16 33 38.5t45.5 44.5t61.5 36.5t80 14.5q87 0 135.5 -60.5t48.5 -194.5q0 -129 -57 -197t-182 -68q-26 0 -66.5 5.5t-82.5 25.5l4 49q32 -18 67.5 -26.5t75.5 -8.5q107 0 148 57.5t41 162.5q0 85 -19.5 131t-51 64t-66.5 18 q-36 0 -71 -16t-66 -43.5t-58 -63.5z" />
<glyph unicode="q" horiz-adv-x="596" d="M70 245q0 129 57.5 197t181.5 68q47 0 93.5 -6.5t88.5 -23.5v-710h-50v316q-19 -21 -45.5 -43t-61.5 -37.5t-80 -15.5q-87 0 -135.5 61t-48.5 194zM122 245q0 -86 19.5 -132.5t51 -63.5t66.5 -17q50 0 97 31t85 77v307q-29 10 -62 14t-68 4q-106 0 -147.5 -57.5 t-41.5 -162.5z" />
<glyph unicode="r" horiz-adv-x="392" d="M105 0v500h50v-500h-50zM121 321q6 21 19.5 52.5t35 63t53.5 52.5t75 21q8 0 20.5 -1.5t27.5 -6.5l-4 -49q-12 4 -19.5 5t-22.5 1q-44 0 -77 -27t-55.5 -65t-33.5 -72z" />
<glyph unicode="s" horiz-adv-x="446" d="M60 21v51q22 -10 48.5 -18.5t54.5 -13.5t52 -5q57 0 91.5 27.5t34.5 73.5q0 31 -15 50t-41 31.5t-59 23.5q-46 16 -81.5 32t-55.5 41t-20 67t21 71t58 43.5t85 14.5q35 0 68 -7.5t56 -22.5l-3 -46q-33 16 -59.5 23.5t-61.5 7.5q-20 0 -47 -5t-47 -21.5t-20 -50.5 q0 -28 16 -45.5t44 -29.5t64 -25q47 -16 80 -33t50.5 -43t17.5 -70q0 -75 -49.5 -113.5t-128.5 -38.5q-37 0 -77.5 8.5t-75.5 22.5z" />
<glyph unicode="t" horiz-adv-x="338" d="M45 458v42h243v-42h-243zM110 93v501h50v-495q0 -40 16 -52.5t44 -12.5q22 0 37.5 3.5t26.5 8.5l2 -40q-11 -5 -31.5 -10.5t-47.5 -5.5q-58 0 -77.5 28.5t-19.5 74.5z" />
<glyph unicode="u" horiz-adv-x="607" d="M100 167v333h50v-326q0 -71 31.5 -106.5t84.5 -35.5q51 0 89 20.5t65 47.5t44 49l20 -26q-19 -25 -48.5 -56t-73 -54t-105.5 -23q-49 0 -84.5 21t-54 60.5t-18.5 95.5zM452 0v500h50v-500h-50z" />
<glyph unicode="v" horiz-adv-x="466" d="M30 500h52l167 -494l-32 5l167 489h52l-177 -500h-58z" />
<glyph unicode="w" horiz-adv-x="781" d="M30 500h52l153 -483h-26l157 483h51l155 -483h-28l155 483h52l-169 -500h-54l-150 473h24l-155 -473h-54z" />
<glyph unicode="x" horiz-adv-x="472" d="M25 0l187 260l32 -34l-165 -226h-54zM38 500h58l351 -500h-59zM227 274l165 226h54l-187 -260z" />
<glyph unicode="y" horiz-adv-x="491" d="M15 -190q48 20 92.5 50t78 63t48.5 62v-60q-22 56 -42 111.5t-39.5 111.5t-38 113.5t-37.5 117t-38 121.5h52l167 -514l-19 1q30 48 53 94.5t41 103t32.5 133t28.5 184.5l52 -2q-16 -114 -42 -225.5t-71 -210t-117.5 -175t-181.5 -121.5z" />
<glyph unicode="z" horiz-adv-x="435" d="M30 0v39l324 445l3 -24h-309v40h344v-40l-326 -444l-20 24h349v-40h-365z" />
<glyph unicode="{" horiz-adv-x="348" d="M70 288v38q30 4 53 18.5t34 46t3 85.5l-19 137q-6 48 3.5 85.5t39 59.5t81.5 22q11 0 19.5 -1t23.5 -4v-34q-6 1 -12 1h-17q-57 0 -78 -35.5t-9 -115.5l15 -102q7 -47 1 -81t-19.5 -56t-30 -35.5t-30.5 -20.5v22q14 -7 30.5 -20.5t30 -35.5t19.5 -56t-1 -81l-15 -102 q-12 -79 9 -115t78 -36h17t12 1v-34q-15 -3 -23.5 -4t-19.5 -1q-52 0 -81.5 22t-39 60t-3.5 85l19 137q8 55 -3 86t-34 45.5t-53 18.5z" />
<glyph unicode="|" horiz-adv-x="301" d="M125 -231v976h51v-976h-51z" />
<glyph unicode="}" horiz-adv-x="348" d="M40 -127v-34q15 -3 23.5 -4t19.5 -1q52 0 81.5 22t39.5 60t3 85l-19 137q-7 55 3.5 86t33.5 45.5t53 18.5v38q-30 4 -53 18.5t-33.5 46t-3.5 85.5l19 137q7 48 -3 85.5t-39.5 59.5t-81.5 22q-11 0 -19.5 -1t-23.5 -4v-34q6 1 12.5 1h16.5q57 0 78 -35.5t9 -115.5 l-15 -102q-7 -47 -1 -81t19.5 -56t30 -35.5t30.5 -20.5v22q-14 -7 -30.5 -20.5t-30 -35.5t-19.5 -56t1 -81l15 -102q12 -79 -9 -115t-78 -36h-16.5t-12.5 1z" />
<glyph unicode="~" d="M58 278l25 -34q11 14 32 27.5t50 13.5q31 0 55.5 -10t51 -19.5t59.5 -9.5q39 0 66 15.5t45 36.5l-22 36q-13 -14 -31.5 -25.5t-49.5 -11.5t-56.5 9.5l-51 19t-59.5 9.5q-28 0 -51 -10t-39.5 -23t-23.5 -24z" />
<glyph unicode="&#xa1;" horiz-adv-x="298" d="M110 477q0 -16 11.5 -27.5t27.5 -11.5t27.5 11.5t11.5 27.5q0 17 -11.5 28t-27.5 11t-27.5 -11t-11.5 -28zM122 -239h54l-8 547h-38z" />
<glyph unicode="&#xa2;" horiz-adv-x="497" d="M65 254q0 80 24.5 137.5t75.5 88t128 30.5q61 0 100 -14t51 -21l-2 -51q-22 17 -64.5 28.5t-86.5 11.5q-94 0 -134 -56.5t-40 -152.5q0 -113 49 -165t136 -52q41 0 80 10t70 36v-50q-25 -22 -68 -33t-88 -11q-79 0 -130.5 33t-76 92.5t-24.5 138.5zM254 -73v653h50v-653 h-50z" />
<glyph unicode="&#xa3;" horiz-adv-x="525" d="M50 0v34q41 24 66 57.5t37 78.5t12 100q0 47 -6 92.5t-12 90t-6 86.5q0 107 50 161.5t149 54.5q32 0 55.5 -4.5t51.5 -14.5v-47q-29 13 -53 16.5t-43 3.5q-82 0 -120.5 -41.5t-38.5 -129.5q0 -40 6 -86t11.5 -94t5.5 -95q0 -76 -22.5 -131.5t-64.5 -84.5h367v-47h-445z M62 343v45h358v-45h-358z" />
<glyph unicode="&#xa4;" horiz-adv-x="608" d="M65 65l85 80q-32 45 -32 116q0 35 8 64t26 53l-87 83l40 38l82 -84q47 37 122 37q35 0 63.5 -8t52.5 -25l78 80l40 -38l-81 -77q39 -48 39 -124q0 -37 -8.5 -66.5t-27.5 -53.5l78 -75l-40 -38l-75 77q-24 -19 -54 -27t-65 -8q-77 0 -125 39l-79 -81zM169 260 q0 -65 39 -105.5t103 -40.5q63 0 101 40.5t38 105.5t-38 106t-101 41q-64 0 -103 -41t-39 -106z" />
<glyph unicode="&#xa5;" horiz-adv-x="661" d="M25 745h57l265 -426l-42 -21zM97 146v45h467v-45h-467zM97 298v45h467v-45h-467zM304 0v341h53v-341h-53zM318 319l261 426h57l-280 -447z" />
<glyph unicode="&#xa6;" horiz-adv-x="301" d="M125 119h51v-350h-51v350zM125 375v370h51v-371z" />
<glyph unicode="&#xa7;" horiz-adv-x="574" d="M60 -185q45 -22 102.5 -35t107.5 -13q92 0 143 41.5t51 113.5q0 49 -22.5 77.5t-64 49.5t-97.5 46q-59 27 -105.5 54t-73 64t-26.5 91q0 46 20 80t54 56q-34 24 -54 56.5t-20 78.5q0 56 28 96t78.5 61t115.5 21q37 0 70 -6t59.5 -16t44.5 -21l2 -51q-41 24 -85.5 36 t-89.5 12q-75 0 -124 -32.5t-49 -100.5q0 -32 15 -55t53.5 -46t110.5 -56q64 -29 111 -56t73 -63.5t26 -96.5q0 -44 -15.5 -80.5t-43.5 -62.5q28 -23 43.5 -55.5t15.5 -76.5q0 -65 -30.5 -111t-86 -70t-131.5 -24q-42 0 -82.5 6.5t-72.5 16.5t-50 18zM125 303q0 -33 16 -58 t55 -49.5t108 -57.5l118 -57q23 20 32.5 51t9.5 65q0 47 -22.5 76.5t-63.5 52t-98 48.5l-92 43q-30 -17 -46.5 -45t-16.5 -69z" />
<glyph unicode="&#xa8;" horiz-adv-x="600" d="M187 643q0 16 11 27t27 11t27 -11t11 -27t-11 -27t-27 -11t-27 11t-11 27zM337 643q0 16 11 27t27 11t27 -11t11 -27t-11 -27t-27 -11t-27 11t-11 27z" />
<glyph unicode="&#xa9;" horiz-adv-x="852" d="M50 368q0 114 48.5 200t134 134t195.5 48q112 0 196 -48t131 -133.5t47 -198.5q0 -114 -48 -200.5t-132.5 -135t-194.5 -48.5t-195 48t-133.5 134t-48.5 200zM100 370q0 -101 41 -177.5t114.5 -119.5t168.5 -43q97 0 170.5 42.5t115.5 119.5t42 178q0 97 -42 173 t-116 119.5t-170 43.5q-95 0 -168.5 -42.5t-114.5 -118t-41 -175.5zM243 370q0 98 46 154t140 56q51 0 82 -11.5t41 -17.5v-46q-18 13 -53 22t-71 9q-48 0 -78.5 -20.5t-44.5 -57.5t-14 -87q0 -44 10 -76.5t29 -54t46 -32t62 -10.5q33 0 65 8.5t57 30.5v-47 q-21 -18 -55.5 -27t-72.5 -9q-64 0 -106 27t-62.5 75.5t-20.5 113.5z" />
<glyph unicode="&#xaa;" horiz-adv-x="248" d="M25 576q0 40 39 57.5t110 21.5l1 -29q-51 -2 -80 -12t-29 -33q0 -13 10 -21t26 -8q24 0 43 13t31 30l9 -19q-7 -10 -20.5 -23.5t-32 -23.5t-43.5 -10q-28 0 -46 15.5t-18 41.5zM36 696v37q11 6 34 12.5t46 6.5q17 0 31.5 -4.5t26.5 -14t18.5 -25t6.5 -38.5v-98 q0 -13 5.5 -18.5t16.5 -5.5h5.5t6.5 1v-25q-5 -2 -14 -3.5t-18 -1.5q-21 0 -31.5 10t-10.5 26v111q0 26 -14 37.5t-39 11.5q-34 0 -70 -19z" />
<glyph unicode="&#xab;" horiz-adv-x="501" d="M50 234v13l168 233l33 -25l-147 -213l148 -214l-33 -25zM229 234v13l168 233l33 -25l-147 -213l148 -214l-33 -25z" />
<glyph unicode="&#xac;" d="M64 300v48h372v-48h-372zM384 191v157h52v-157h-52z" />
<glyph unicode="&#xad;" horiz-adv-x="363" d="M55 212v50h253v-50h-253z" />
<glyph unicode="&#xae;" horiz-adv-x="832" d="M50 368q0 114 48.5 200t134 134t195.5 48q112 0 196 -48t131 -133.5t47 -198.5q0 -114 -48 -200.5t-132.5 -135t-194.5 -48.5t-195 48t-133.5 134t-48.5 200zM100 370q0 -101 41 -177.5t114.5 -119.5t168.5 -43q97 0 170.5 42.5t115.5 119.5t42 178q0 97 -42 173 t-116 119.5t-170 43.5q-95 0 -168.5 -42.5t-114.5 -118t-41 -175.5zM302 176v396h48v-396h-48zM337 527l7 45h71q65 0 98 -31t33 -85q0 -52 -34 -86t-108 -34h-63v45h62q50 0 72.5 21.5t22.5 51.5t-21 51.5t-62 21.5h-78zM412 357h51l58 -98q21 -34 40.5 -38.5t38.5 -4.5h8 v-42q-4 -1 -9 -1.5t-13 -0.5q-36 0 -61 17.5t-48 56.5z" />
<glyph unicode="&#xaf;" horiz-adv-x="600" d="M166 603v44h268v-44h-268z" />
<glyph unicode="&#xb0;" horiz-adv-x="256" d="M20 651q0 47 30 75t79 28q48 0 77.5 -28t29.5 -75q0 -46 -29.5 -74.5t-77.5 -28.5q-49 0 -79 28.5t-30 74.5zM63 651q0 -30 17.5 -47.5t47.5 -17.5t47.5 17.5t17.5 47.5t-17.5 47.5t-47.5 17.5t-47.5 -17.5t-17.5 -47.5z" />
<glyph unicode="&#xb1;" d="M65 46v48h370v-48h-370zM65 278v48h370v-48h-370zM224 142v334h52v-334h-52z" />
<glyph unicode="&#xb2;" horiz-adv-x="340" d="M45 393h246v41h-226l24 -16q85 59 135.5 117t50.5 115q0 44 -28.5 74.5t-92.5 30.5q-33 0 -57.5 -6.5t-40.5 -14.5v-40q12 6 35 13t54 7q38 0 59.5 -19t21.5 -51q0 -24 -14.5 -54t-53.5 -70t-113 -94v-33z" />
<glyph unicode="&#xb3;" horiz-adv-x="340" d="M60 405q17 -8 43 -12.5t51 -4.5q62 0 102.5 27.5t40.5 75.5q0 27 -13 47t-36 32.5t-54 18t-68 3.5l16 -19q56 2 94.5 27.5t38.5 71.5q0 38 -30.5 60t-89.5 22q-17 0 -40.5 -3t-46.5 -12v-45q10 8 34 13.5t49 5.5q35 0 55 -13.5t20 -35.5q0 -28 -30.5 -48t-77.5 -20v-36 q34 2 63.5 -4.5t48 -23t18.5 -44.5q0 -31 -28.5 -45.5t-69.5 -14.5q-23 0 -47.5 6t-42.5 16v-45z" />
<glyph unicode="&#xb4;" horiz-adv-x="600" d="M209 589l151 115l30 -47l-159 -96z" />
<glyph unicode="&#xb5;" horiz-adv-x="612" d="M105 167v293h50v-286q0 -71 31.5 -106.5t84.5 -35.5q51 0 89 20.5t65 47.5t44 49l20 -26q-19 -25 -48.5 -56t-73 -54t-105.5 -23q-49 0 -84.5 21t-54 60.5t-18.5 95.5zM105 -230v730h50v-730h-50zM457 0v500h50v-500h-50z" />
<glyph unicode="&#xb6;" horiz-adv-x="602" d="M65 541q0 57 24.5 103t74.5 73.5t125 27.5h198v-915h-52v872h-94v-872h-52v502q-77 3 -127 31.5t-73.5 75.5t-23.5 102z" />
<glyph unicode="&#xb7;" horiz-adv-x="168" d="M45 279q0 17 11.5 28t27.5 11t27.5 -11t11.5 -28q0 -16 -11.5 -27.5t-27.5 -11.5t-27.5 11.5t-11.5 27.5z" />
<glyph unicode="&#xb8;" horiz-adv-x="600" d="M210 -188l13 36q13 -7 27.5 -11.5t31.5 -4.5q11 0 25 3t24 11.5t10 25.5q0 29 -30 38.5t-71 11.5l19 95h40l-9 -59q42 -6 70.5 -23.5t28.5 -55.5q0 -27 -12.5 -47t-35.5 -31t-55 -11q-24 0 -42.5 6t-33.5 16z" />
<glyph unicode="&#xb9;" horiz-adv-x="340" d="M73 667v40l96 43l33 -26zM84 393v38h203v-38h-203zM164 393v328l5 29h40v-357h-45z" />
<glyph unicode="&#xba;" horiz-adv-x="261" d="M20 633q0 55 29.5 87t81.5 32t81 -32t29 -87q0 -51 -29.5 -82.5t-81.5 -31.5t-81 31.5t-29 82.5zM62 633q0 -38 18.5 -59t50.5 -21t49.5 20.5t17.5 59.5q0 43 -17.5 64.5t-49.5 21.5t-50.5 -21.5t-18.5 -64.5z" />
<glyph unicode="&#xbb;" horiz-adv-x="501" d="M70 28l33 -25l169 231v13l-168 233l-33 -25l147 -213zM249 28l33 -25l169 231v13l-168 233l-33 -25l147 -213z" />
<glyph unicode="&#xbc;" horiz-adv-x="834" d="M73 667v40l96 43l33 -26zM84 393v38h203v-38h-203zM164 393v328l5 29h40v-357h-45zM216 0l404 745h50l-404 -745h-50zM520 80v40l185 234h48v-350h-43v319h16l-176 -222l-1 17h266v-38h-295z" />
<glyph unicode="&#xbd;" horiz-adv-x="834" d="M73 667v40l96 43l33 -26zM84 393v38h203v-38h-203zM164 393v328l5 29h40v-357h-45zM190 0l404 745h50l-404 -745h-50zM539 0v33q74 54 113 94t53.5 70t14.5 54q0 32 -21.5 51t-59.5 19q-31 0 -54 -7t-35 -13v40q16 8 40.5 14.5t57.5 6.5q64 0 92.5 -30.5t28.5 -74.5 q0 -57 -50.5 -115t-135.5 -117l-24 16h226v-41h-246z" />
<glyph unicode="&#xbe;" horiz-adv-x="834" d="M60 405q17 -8 43 -12.5t51 -4.5q62 0 102.5 27.5t40.5 75.5q0 27 -13 47t-36 32.5t-54 18t-68 3.5l16 -19q56 2 94.5 27.5t38.5 71.5q0 38 -30.5 60t-89.5 22q-17 0 -40.5 -3t-46.5 -12v-45q10 8 34 13.5t49 5.5q35 0 55 -13.5t20 -35.5q0 -28 -30.5 -48t-77.5 -20v-36 q34 2 63.5 -4.5t48 -23t18.5 -44.5q0 -31 -28.5 -45.5t-69.5 -14.5q-23 0 -47.5 6t-42.5 16v-45zM215 0h50l404 745h-50zM520 80h295v38h-266l1 -17l176 222h-16v-319h43v350h-48l-185 -234v-40z" />
<glyph unicode="&#xbf;" horiz-adv-x="462" d="M50 -68q0 -46 19.5 -85t62.5 -62.5t114 -23.5q41 0 78 9t78 29v51q-7 -5 -29 -16t-54.5 -19.5t-73.5 -8.5q-73 0 -107.5 34t-34.5 94q0 41 15.5 70t40 51.5t52.5 42.5t52.5 42t40 51t15.5 69v48h-45v-48q0 -34 -16 -59t-41.5 -45t-54.5 -40t-54.5 -44.5t-41.5 -58 t-16 -81.5zM254 477q0 17 11.5 28t27.5 11q17 0 28 -11t11 -28q0 -16 -11 -27.5t-28 -11.5q-16 0 -27.5 11.5t-11.5 27.5z" />
<glyph unicode="&#xc0;" horiz-adv-x="657" d="M30 0l271 745h54l272 -745h-52l-261 719h29l-261 -719h-52zM152 243v47h354v-47h-354zM233 902l30 47l151 -115l-22 -28z" />
<glyph unicode="&#xc1;" horiz-adv-x="657" d="M30 0l271 745h54l272 -745h-52l-261 719h29l-261 -719h-52zM152 243v47h354v-47h-354zM233 834l151 115l30 -47l-159 -96z" />
<glyph unicode="&#xc2;" horiz-adv-x="657" d="M30 0l271 745h54l272 -745h-52l-261 719h29l-261 -719h-52zM152 243v47h354v-47h-354zM165 834l151 115h15l151 -115l-22 -28l-136 84l-137 -84z" />
<glyph unicode="&#xc3;" horiz-adv-x="657" d="M30 0l271 745h54l272 -745h-52l-261 719h29l-261 -719h-52zM152 243v47h354v-47h-354zM165 860q7 11 21 25t34.5 24.5t45.5 10.5q26 0 45.5 -9.5t38.5 -19t43 -9.5q29 0 44 12.5t27 24.5l19 -31q-16 -19 -39.5 -37.5t-58.5 -18.5q-25 0 -45 9.5t-39 19t-42 9.5 q-25 0 -43.5 -13t-28.5 -27z" />
<glyph unicode="&#xc4;" horiz-adv-x="657" d="M30 0l271 745h54l272 -745h-52l-261 719h29l-261 -719h-52zM152 243v47h354v-47h-354zM211 888q0 16 11 27t27 11t27 -11t11 -27t-11 -27t-27 -11t-27 11t-11 27zM361 888q0 16 11 27t27 11t27 -11t11 -27t-11 -27t-27 -11t-27 11t-11 27z" />
<glyph unicode="&#xc5;" horiz-adv-x="657" d="M30 0l271 745h54l272 -745h-52l-261 719h29l-261 -719h-52zM152 243v47h354v-47h-354zM243 878q0 38 24 61.5t61 23.5q38 0 62 -23.5t24 -61.5t-24 -62t-62 -24q-37 0 -61 24t-24 62zM283 878q0 -22 14 -36t34 -14q19 0 32.5 14t13.5 36q0 23 -13.5 36t-33.5 13 t-33.5 -13t-13.5 -36z" />
<glyph unicode="&#xc6;" horiz-adv-x="920" d="M5 0l428 745h52l-424 -745h-56zM194 253v47h299v-47h-299zM449 0v745h51v-745h-51zM462 698v47h382v-47h-382zM465 0v47h380v-47h-380zM470 350v47h316v-47h-316z" />
<glyph unicode="&#xc7;" horiz-adv-x="655" d="M65 376q0 118 36 203t109.5 130.5t186.5 45.5q62 0 115.5 -14t92.5 -43l-3 -56q-21 22 -54.5 36.5t-72.5 22t-80 7.5q-89 0 -151 -38t-93.5 -112.5t-31.5 -184.5q0 -160 70.5 -248t212.5 -88q30 0 68 6t73.5 16.5t55.5 25.5v-49q-22 -14 -57 -24.5t-74.5 -16t-77.5 -5.5 q-108 0 -180 46.5t-108.5 133t-36.5 206.5zM290 -188l13 36q13 -7 27.5 -11.5t31.5 -4.5q11 0 25 3t24 11.5t10 25.5q0 20 -14 30t-36.5 14.5t-50.5 5.5l19 95h40l-9 -59q42 -6 70.5 -23.5t28.5 -55.5q0 -27 -12.5 -47t-35.5 -31t-55 -11q-24 0 -42.5 6t-33.5 16z" />
<glyph unicode="&#xc8;" horiz-adv-x="586" d="M115 0v745h51v-745h-51zM128 698v47h382v-47h-382zM131 0v47h380v-47h-380zM136 350v47h316v-47h-316zM192 902l30 47l151 -115l-22 -28z" />
<glyph unicode="&#xc9;" horiz-adv-x="586" d="M115 0v745h51v-745h-51zM128 698v47h382v-47h-382zM131 0v47h380v-47h-380zM136 350v47h316v-47h-316zM232 834l151 115l30 -47l-159 -96z" />
<glyph unicode="&#xca;" horiz-adv-x="586" d="M115 0v745h51v-745h-51zM128 698v47h382v-47h-382zM131 0v47h380v-47h-380zM136 350v47h316v-47h-316zM162 834l151 115h15l151 -115l-22 -28l-136 84l-137 -84z" />
<glyph unicode="&#xcb;" horiz-adv-x="586" d="M115 0v745h51v-745h-51zM128 698v47h382v-47h-382zM131 0v47h380v-47h-380zM136 350v47h316v-47h-316zM200 888q0 16 11 27t27 11t27 -11t11 -27t-11 -27t-27 -11t-27 11t-11 27zM350 888q0 16 11 27t27 11t27 -11t11 -27t-11 -27t-27 -11t-27 11t-11 27z" />
<glyph unicode="&#xcc;" horiz-adv-x="282" d="M50 902l30 47l151 -115l-22 -28zM115 0v745h52v-745h-52z" />
<glyph unicode="&#xcd;" horiz-adv-x="282" d="M50 834l151 115l30 -47l-159 -96zM115 0v745h52v-745h-52z" />
<glyph unicode="&#xce;" horiz-adv-x="282" d="M-18 834l151 115h15l151 -115l-22 -28l-136 84l-137 -84zM115 0v745h52v-745h-52z" />
<glyph unicode="&#xcf;" horiz-adv-x="282" d="M28 888q0 16 11 27t27 11t27 -11t11 -27t-11 -27t-27 -11t-27 11t-11 27zM115 0v745h52v-745h-52zM178 888q0 16 11 27t27 11t27 -11t11 -27t-11 -27t-27 -11t-27 11t-11 27z" />
<glyph unicode="&#xd0;" horiz-adv-x="767" d="M30 350v47h308v-47h-308zM115 0v745h52v-745h-52zM145 698l12 47h186q170 0 264.5 -93t94.5 -285q0 -116 -44 -198t-125.5 -125.5t-195.5 -43.5h-184v47h180q145 0 230 80t85 237q0 170 -82 252t-223 82h-198z" />
<glyph unicode="&#xd1;" horiz-adv-x="806" d="M115 0v745h50l504 -699l-28 -3v702h50v-745h-47l-506 696l27 9v-705h-50zM244 860q7 11 21 25t34.5 24.5t45.5 10.5q26 0 45.5 -9.5t38.5 -19t43 -9.5q29 0 44 12.5t27 24.5l19 -31q-16 -19 -39.5 -37.5t-58.5 -18.5q-25 0 -45 9.5t-39 19t-42 9.5q-25 0 -43.5 -13 t-28.5 -27z" />
<glyph unicode="&#xd2;" horiz-adv-x="792" d="M65 375q0 118 39.5 203t113.5 131t178 46t178 -46t113.5 -131.5t39.5 -203.5q0 -119 -39.5 -205t-113 -132.5t-177.5 -46.5t-178.5 46.5t-114 132.5t-39.5 206zM119 377q0 -105 33 -181.5t95.5 -118t149.5 -41.5t148.5 41.5t94.5 118t33 181.5q0 103 -33 177.5 t-94.5 114.5t-148.5 40t-149.5 -40t-95.5 -114.5t-33 -177.5zM300 902l30 47l151 -115l-22 -28z" />
<glyph unicode="&#xd3;" horiz-adv-x="792" d="M65 375q0 118 39.5 203t113.5 131t178 46t178 -46t113.5 -131.5t39.5 -203.5q0 -119 -39.5 -205t-113 -132.5t-177.5 -46.5t-178.5 46.5t-114 132.5t-39.5 206zM119 377q0 -105 33 -181.5t95.5 -118t149.5 -41.5t148.5 41.5t94.5 118t33 181.5q0 103 -33 177.5 t-94.5 114.5t-148.5 40t-149.5 -40t-95.5 -114.5t-33 -177.5zM300 834l151 115l30 -47l-159 -96z" />
<glyph unicode="&#xd4;" horiz-adv-x="792" d="M65 375q0 118 39.5 203t113.5 131t178 46t178 -46t113.5 -131.5t39.5 -203.5q0 -119 -39.5 -205t-113 -132.5t-177.5 -46.5t-178.5 46.5t-114 132.5t-39.5 206zM119 377q0 -105 33 -181.5t95.5 -118t149.5 -41.5t148.5 41.5t94.5 118t33 181.5q0 103 -33 177.5 t-94.5 114.5t-148.5 40t-149.5 -40t-95.5 -114.5t-33 -177.5zM232 834l151 115h15l151 -115l-22 -28l-136 84l-137 -84z" />
<glyph unicode="&#xd5;" horiz-adv-x="792" d="M65 375q0 118 39.5 203t113.5 131t178 46t178 -46t113.5 -131.5t39.5 -203.5q0 -119 -39.5 -205t-113 -132.5t-177.5 -46.5t-178.5 46.5t-114 132.5t-39.5 206zM119 377q0 -105 33 -181.5t95.5 -118t149.5 -41.5t148.5 41.5t94.5 118t33 181.5q0 103 -33 177.5 t-94.5 114.5t-148.5 40t-149.5 -40t-95.5 -114.5t-33 -177.5zM232 860q7 11 21 25t34.5 24.5t45.5 10.5q26 0 45.5 -9.5t38.5 -19t43 -9.5q29 0 44 12.5t27 24.5l19 -31q-16 -19 -39.5 -37.5t-58.5 -18.5q-25 0 -45 9.5t-39 19t-42 9.5q-25 0 -43.5 -13t-28.5 -27z" />
<glyph unicode="&#xd6;" horiz-adv-x="792" d="M65 375q0 118 39.5 203t113.5 131t178 46t178 -46t113.5 -131.5t39.5 -203.5q0 -119 -39.5 -205t-113 -132.5t-177.5 -46.5t-178.5 46.5t-114 132.5t-39.5 206zM119 377q0 -105 33 -181.5t95.5 -118t149.5 -41.5t148.5 41.5t94.5 118t33 181.5q0 103 -33 177.5 t-94.5 114.5t-148.5 40t-149.5 -40t-95.5 -114.5t-33 -177.5zM278 888q0 16 11 27t27 11t27 -11t11 -27t-11 -27t-27 -11t-27 11t-11 27zM428 888q0 16 11 27t27 11t27 -11t11 -27t-11 -27t-27 -11t-27 11t-11 27z" />
<glyph unicode="&#xd7;" d="M89 171l276 276l36 -36l-276 -276zM89 411l36 36l276 -276l-36 -36z" />
<glyph unicode="&#xd8;" horiz-adv-x="792" d="M65 375q0 118 39.5 203t113.5 131t178 46t178 -46t113.5 -131.5t39.5 -203.5q0 -119 -39.5 -205t-113 -132.5t-177.5 -46.5t-178.5 46.5t-114 132.5t-39.5 206zM119 377q0 -105 33 -181.5t95.5 -118t149.5 -41.5t148.5 41.5t94.5 118t33 181.5q0 103 -33 177.5 t-94.5 114.5t-148.5 40t-149.5 -40t-95.5 -114.5t-33 -177.5zM128 -49l483 823h54l-483 -823h-54z" />
<glyph unicode="&#xd9;" horiz-adv-x="755" d="M105 282v463h52v-444q0 -99 25 -156.5t73.5 -82t117.5 -24.5t120 27t79.5 85.5t28.5 152.5v442h49v-457q0 -97 -34.5 -163.5t-97 -100.5t-146.5 -34q-127 0 -197 68.5t-70 223.5zM287 902l30 47l151 -115l-22 -28z" />
<glyph unicode="&#xda;" horiz-adv-x="755" d="M105 282v463h52v-444q0 -99 25 -156.5t73.5 -82t117.5 -24.5t120 27t79.5 85.5t28.5 152.5v442h49v-457q0 -97 -34.5 -163.5t-97 -100.5t-146.5 -34q-127 0 -197 68.5t-70 223.5zM287 834l151 115l30 -47l-159 -96z" />
<glyph unicode="&#xdb;" horiz-adv-x="755" d="M105 282v463h52v-444q0 -99 25 -156.5t73.5 -82t117.5 -24.5t120 27t79.5 85.5t28.5 152.5v442h49v-457q0 -97 -34.5 -163.5t-97 -100.5t-146.5 -34q-127 0 -197 68.5t-70 223.5zM219 834l151 115h15l151 -115l-22 -28l-136 84l-137 -84z" />
<glyph unicode="&#xdc;" horiz-adv-x="755" d="M105 282v463h52v-444q0 -99 25 -156.5t73.5 -82t117.5 -24.5t120 27t79.5 85.5t28.5 152.5v442h49v-457q0 -97 -34.5 -163.5t-97 -100.5t-146.5 -34q-127 0 -197 68.5t-70 223.5zM265 888q0 16 11 27t27 11t27 -11t11 -27t-11 -27t-27 -11t-27 11t-11 27zM415 888 q0 16 11 27t27 11t27 -11t11 -27t-11 -27t-27 -11t-27 11t-11 27z" />
<glyph unicode="&#xdd;" horiz-adv-x="621" d="M5 745h57l265 -420l-42 -27zM220 834l151 115l30 -47l-159 -96zM284 0v341h53v-341h-53zM298 325l261 420h57l-280 -447z" />
<glyph unicode="&#xde;" horiz-adv-x="611" d="M115 0v745h52v-745h-52zM143 564l12 47h124q131 0 199 -56.5t68 -161.5q0 -108 -67 -172t-207 -64h-121v47h121q119 0 169.5 47.5t50.5 134.5q0 84 -53.5 131t-154.5 47h-141z" />
<glyph unicode="&#xdf;" horiz-adv-x="579" d="M105 0v565q0 66 26.5 107t68.5 60t89 19q18 0 47 -4.5t58 -19t48.5 -45t19.5 -82.5q0 -43 -15 -73t-36.5 -50t-43.5 -35t-37 -28t-15 -29q0 -14 10.5 -25t31 -21.5t49.5 -25.5q41 -21 69.5 -44t43.5 -53t15 -73q0 -50 -21 -84.5t-60 -51.5t-94 -17q-39 0 -70 8.5 t-66 22.5v51q22 -10 42.5 -18.5t43 -13.5t49.5 -5q63 0 94.5 27.5t31.5 77.5q0 37 -14.5 60.5t-36.5 39t-44 26.5q-42 21 -70.5 36.5t-42.5 33.5t-14 45q0 25 15 43t37.5 34t44.5 33.5t37 42t15 59.5q0 50 -33 80t-93 30q-18 0 -40 -5t-42.5 -20t-34 -45.5t-13.5 -82.5v-550 h-50z" />
<glyph unicode="&#xe0;" horiz-adv-x="533" d="M60 115q0 61 42 95t115 50t166 22l2 -40q-129 -9 -201 -35.5t-72 -88.5q0 -34 23.5 -57.5t75.5 -23.5q62 0 106.5 32.5t72.5 72.5l15 -34q-12 -18 -31 -38.5t-44.5 -38.5t-57 -29.5t-70.5 -11.5q-61 0 -101.5 32t-40.5 93zM82 416v49q11 6 35 16t56 18t66 8q46 0 80 -13 t56.5 -37t34 -57.5t11.5 -75.5v-241q0 -26 8 -38t33 -12q6 0 14.5 1t16.5 2v-37q-5 -3 -19 -6t-30 -3q-38 0 -55.5 20.5t-17.5 57.5v256q0 68 -34 101.5t-102 33.5q-32 0 -73 -11t-80 -32zM165 657l30 47l151 -115l-22 -28z" />
<glyph unicode="&#xe1;" horiz-adv-x="533" d="M60 115q0 61 42 95t115 50t166 22l2 -40q-129 -9 -201 -35.5t-72 -88.5q0 -34 23.5 -57.5t75.5 -23.5q62 0 106.5 32.5t72.5 72.5l15 -34q-12 -18 -31 -38.5t-44.5 -38.5t-57 -29.5t-70.5 -11.5q-61 0 -101.5 32t-40.5 93zM82 416v49q11 6 35 16t56 18t66 8q46 0 80 -13 t56.5 -37t34 -57.5t11.5 -75.5v-241q0 -26 8 -38t33 -12q6 0 14.5 1t16.5 2v-37q-5 -3 -19 -6t-30 -3q-38 0 -55.5 20.5t-17.5 57.5v256q0 68 -34 101.5t-102 33.5q-32 0 -73 -11t-80 -32zM175 589l151 115l30 -47l-159 -96z" />
<glyph unicode="&#xe2;" horiz-adv-x="533" d="M60 115q0 61 42 95t115 50t166 22l2 -40q-129 -9 -201 -35.5t-72 -88.5q0 -34 23.5 -57.5t75.5 -23.5q62 0 106.5 32.5t72.5 72.5l15 -34q-12 -18 -31 -38.5t-44.5 -38.5t-57 -29.5t-70.5 -11.5q-61 0 -101.5 32t-40.5 93zM82 416v49q11 6 35 16t56 18t66 8q46 0 80 -13 t56.5 -37t34 -57.5t11.5 -75.5v-241q0 -26 8 -38t33 -12q6 0 14.5 1t16.5 2v-37q-5 -3 -19 -6t-30 -3q-38 0 -55.5 20.5t-17.5 57.5v256q0 68 -34 101.5t-102 33.5q-32 0 -73 -11t-80 -32zM93 589l151 115h15l151 -115l-22 -28l-136 84l-137 -84z" />
<glyph unicode="&#xe3;" horiz-adv-x="533" d="M60 115q0 61 42 95t115 50t166 22l2 -40q-129 -9 -201 -35.5t-72 -88.5q0 -34 23.5 -57.5t75.5 -23.5q62 0 106.5 32.5t72.5 72.5l15 -34q-12 -18 -31 -38.5t-44.5 -38.5t-57 -29.5t-70.5 -11.5q-61 0 -101.5 32t-40.5 93zM82 416v49q11 6 35 16t56 18t66 8q46 0 80 -13 t56.5 -37t34 -57.5t11.5 -75.5v-241q0 -26 8 -38t33 -12q6 0 14.5 1t16.5 2v-37q-5 -3 -19 -6t-30 -3q-38 0 -55.5 20.5t-17.5 57.5v256q0 68 -34 101.5t-102 33.5q-32 0 -73 -11t-80 -32zM97 615q7 11 21 25t34.5 24.5t45.5 10.5q26 0 45.5 -9.5t38.5 -19t43 -9.5 q29 0 44 12.5t27 24.5l19 -31q-16 -19 -39.5 -37.5t-58.5 -18.5q-25 0 -45 9.5t-39 19t-42 9.5q-25 0 -43.5 -13t-28.5 -27z" />
<glyph unicode="&#xe4;" horiz-adv-x="533" d="M60 115q0 61 42 95t115 50t166 22l2 -40q-129 -9 -201 -35.5t-72 -88.5q0 -34 23.5 -57.5t75.5 -23.5q62 0 106.5 32.5t72.5 72.5l15 -34q-12 -18 -31 -38.5t-44.5 -38.5t-57 -29.5t-70.5 -11.5q-61 0 -101.5 32t-40.5 93zM82 416v49q11 6 35 16t56 18t66 8q46 0 80 -13 t56.5 -37t34 -57.5t11.5 -75.5v-241q0 -26 8 -38t33 -12q6 0 14.5 1t16.5 2v-37q-5 -3 -19 -6t-30 -3q-38 0 -55.5 20.5t-17.5 57.5v256q0 68 -34 101.5t-102 33.5q-32 0 -73 -11t-80 -32zM143 643q0 16 11 27t27 11t27 -11t11 -27t-11 -27t-27 -11t-27 11t-11 27zM293 643 q0 16 11 27t27 11t27 -11t11 -27t-11 -27t-27 -11t-27 11t-11 27z" />
<glyph unicode="&#xe5;" horiz-adv-x="533" d="M60 115q0 61 42 95t115 50t166 22l2 -40q-129 -9 -201 -35.5t-72 -88.5q0 -34 23.5 -57.5t75.5 -23.5q62 0 106.5 32.5t72.5 72.5l15 -34q-12 -18 -31 -38.5t-44.5 -38.5t-57 -29.5t-70.5 -11.5q-61 0 -101.5 32t-40.5 93zM82 416v49q11 6 35 16t56 18t66 8q46 0 80 -13 t56.5 -37t34 -57.5t11.5 -75.5v-241q0 -26 8 -38t33 -12q6 0 14.5 1t16.5 2v-37q-5 -3 -19 -6t-30 -3q-38 0 -55.5 20.5t-17.5 57.5v256q0 68 -34 101.5t-102 33.5q-32 0 -73 -11t-80 -32zM167 633q0 38 24 61.5t61 23.5q38 0 62 -23.5t24 -61.5t-24 -62t-62 -24 q-37 0 -61 24t-24 62zM207 633q0 -22 14 -36t34 -14q19 0 32.5 14t13.5 36q0 23 -13.5 36t-33.5 13t-33.5 -13t-13.5 -36z" />
<glyph unicode="&#xe6;" horiz-adv-x="833" d="M60 115q0 61 42 95t115 50t166 22l2 -40q-129 -9 -201 -35.5t-72 -88.5q0 -34 23.5 -57.5t75.5 -23.5q62 0 106.5 32.5t72.5 72.5l15 -34q-12 -18 -31 -38.5t-44.5 -38.5t-57 -29.5t-70.5 -11.5q-61 0 -101.5 32t-40.5 93zM82 416v49q11 6 35 16t56 18t66 8q46 0 80 -13 t56.5 -37t34 -57.5t11.5 -75.5v-241l-50 163v78q0 46 -15 75.5t-45.5 44.5t-75.5 15q-32 0 -73 -11t-80 -32zM372 251q0 82 26.5 139.5t76 88.5t118.5 31q53 0 93.5 -19.5t63.5 -64t23 -119.5q0 -13 -0.5 -21.5t-1.5 -19.5h-363l7 43h352l-48 -33q2 11 2.5 22t0.5 21 q0 38 -12 71.5t-41 54.5t-80 21q-85 0 -125 -58.5t-40 -153.5q0 -112 50.5 -164t138.5 -52q47 0 86.5 14t69.5 42v-52q-25 -23 -72.5 -37.5t-98.5 -14.5q-76 0 -126 33t-75 92t-25 136z" />
<glyph unicode="&#xe7;" horiz-adv-x="502" d="M65 254q0 80 24.5 137.5t75.5 88t128 30.5q61 0 100 -14t51 -21l-2 -51q-22 17 -64.5 28.5t-86.5 11.5q-94 0 -134 -56.5t-40 -152.5q0 -113 49 -165t136 -52q41 0 80 10t70 36v-50q-25 -22 -68 -33t-88 -11q-79 0 -130.5 33t-76 92.5t-24.5 138.5zM213 -188l13 36 q13 -7 27.5 -11.5t31.5 -4.5q11 0 25 3t24 11.5t10 25.5q0 20 -14 30t-36.5 14.5t-50.5 5.5l19 95h40l-9 -59q42 -6 70.5 -23.5t28.5 -55.5q0 -27 -12.5 -47t-35.5 -31t-55 -11q-24 0 -42.5 6t-33.5 16z" />
<glyph unicode="&#xe8;" horiz-adv-x="526" d="M65 251q0 82 26.5 139.5t76 88.5t118.5 31q53 0 93.5 -19.5t63.5 -64t23 -119.5q0 -13 -0.5 -21.5t-1.5 -19.5h-363l7 43h352l-48 -33q2 11 2.5 22t0.5 21q0 38 -12 71.5t-41 54.5t-80 21q-85 0 -125 -58.5t-40 -153.5q0 -112 50.5 -164t138.5 -52q47 0 86.5 14t69.5 42 v-52q-25 -23 -72.5 -37.5t-98.5 -14.5q-76 0 -126 33t-75 92t-25 136zM182 657l30 47l151 -115l-22 -28z" />
<glyph unicode="&#xe9;" horiz-adv-x="526" d="M65 251q0 82 26.5 139.5t76 88.5t118.5 31q53 0 93.5 -19.5t63.5 -64t23 -119.5q0 -13 -0.5 -21.5t-1.5 -19.5h-363l7 43h352l-48 -33q2 11 2.5 22t0.5 21q0 38 -12 71.5t-41 54.5t-80 21q-85 0 -125 -58.5t-40 -153.5q0 -112 50.5 -164t138.5 -52q47 0 86.5 14t69.5 42 v-52q-25 -23 -72.5 -37.5t-98.5 -14.5q-76 0 -126 33t-75 92t-25 136zM202 589l151 115l30 -47l-159 -96z" />
<glyph unicode="&#xea;" horiz-adv-x="526" d="M65 251q0 82 26.5 139.5t76 88.5t118.5 31q53 0 93.5 -19.5t63.5 -64t23 -119.5q0 -13 -0.5 -21.5t-1.5 -19.5h-363l7 43h352l-48 -33q2 11 2.5 22t0.5 21q0 38 -12 71.5t-41 54.5t-80 21q-85 0 -125 -58.5t-40 -153.5q0 -112 50.5 -164t138.5 -52q47 0 86.5 14t69.5 42 v-52q-25 -23 -72.5 -37.5t-98.5 -14.5q-76 0 -126 33t-75 92t-25 136zM123 589l151 115h15l151 -115l-22 -28l-136 84l-137 -84z" />
<glyph unicode="&#xeb;" horiz-adv-x="526" d="M65 251q0 82 26.5 139.5t76 88.5t118.5 31q53 0 93.5 -19.5t63.5 -64t23 -119.5q0 -13 -0.5 -21.5t-1.5 -19.5h-363l7 43h352l-48 -33q2 11 2.5 22t0.5 21q0 38 -12 71.5t-41 54.5t-80 21q-85 0 -125 -58.5t-40 -153.5q0 -112 50.5 -164t138.5 -52q47 0 86.5 14t69.5 42 v-52q-25 -23 -72.5 -37.5t-98.5 -14.5q-76 0 -126 33t-75 92t-25 136zM169 643q0 16 11 27t27 11t27 -11t11 -27t-11 -27t-27 -11t-27 11t-11 27zM319 643q0 16 11 27t27 11t27 -11t11 -27t-11 -27t-27 -11t-27 11t-11 27z" />
<glyph unicode="&#xec;" horiz-adv-x="260" d="M39 657l30 47l151 -115l-22 -28zM105 0v500h50v-500h-50z" />
<glyph unicode="&#xed;" horiz-adv-x="260" d="M39 589l151 115l30 -47l-159 -96zM105 0v500h50v-500h-50z" />
<glyph unicode="&#xee;" horiz-adv-x="260" d="M-29 589l151 115h15l151 -115l-22 -28l-136 84l-137 -84zM105 0v500h50v-500h-50z" />
<glyph unicode="&#xef;" horiz-adv-x="260" d="M17 643q0 16 11 27t27 11t27 -11t11 -27t-11 -27t-27 -11t-27 11t-11 27zM105 0v500h50v-500h-50zM167 643q0 16 11 27t27 11t27 -11t11 -27t-11 -27t-27 -11t-27 11t-11 27z" />
<glyph unicode="&#xf0;" horiz-adv-x="554" d="M55 237q0 115 56 184t173 69q34 0 77 -7.5t85 -27.5l-3 -45q-32 18 -69.5 26.5t-76.5 8.5q-103 0 -146.5 -56t-43.5 -152q0 -67 18.5 -113t53 -69t82.5 -23q64 0 104 36t59.5 93.5t19.5 122.5q0 80 -23.5 145t-59 115t-74.5 85.5t-71 57.5t-47 31l20 31q29 -16 68 -43.5 t80.5 -67t77 -92t57.5 -117t22 -142.5q0 -46 -11 -98t-37 -97t-71 -73.5t-113 -28.5q-65 0 -111.5 29t-71 84t-24.5 134zM200 590l191 144l25 -35l-191 -144z" />
<glyph unicode="&#xf1;" horiz-adv-x="617" d="M105 0v500h50v-500h-50zM123 374q19 25 48.5 57t73 55.5t105.5 23.5q55 0 92 -21t56 -60.5t19 -95.5v-333h-50v326q0 71 -32.5 106.5t-93.5 35.5q-50 0 -88.5 -22t-65.5 -51t-44 -51zM150 615q7 11 21 25t34.5 24.5t45.5 10.5q26 0 45.5 -9.5t38.5 -19t43 -9.5 q29 0 44 12.5t27 24.5l19 -31q-16 -19 -39.5 -37.5t-58.5 -18.5q-25 0 -45 9.5t-39 19t-42 9.5q-25 0 -43.5 -13t-28.5 -27z" />
<glyph unicode="&#xf2;" horiz-adv-x="593" d="M65 250q0 123 62 191.5t171 68.5q107 0 168.5 -67.5t61.5 -189.5q0 -123 -62 -193t-171 -70q-107 0 -168.5 69t-61.5 191zM117 252q0 -103 48 -161t132 -58q83 0 131 58t48 161t-48 159t-131 56q-84 0 -132 -56.5t-48 -158.5zM205 657l30 47l151 -115l-22 -28z" />
<glyph unicode="&#xf3;" horiz-adv-x="593" d="M65 250q0 123 62 191.5t171 68.5q107 0 168.5 -67.5t61.5 -189.5q0 -123 -62 -193t-171 -70q-107 0 -168.5 69t-61.5 191zM117 252q0 -103 48 -161t132 -58q83 0 131 58t48 161t-48 159t-131 56q-84 0 -132 -56.5t-48 -158.5zM205 589l151 115l30 -47l-159 -96z" />
<glyph unicode="&#xf4;" horiz-adv-x="593" d="M65 250q0 123 62 191.5t171 68.5q107 0 168.5 -67.5t61.5 -189.5q0 -123 -62 -193t-171 -70q-107 0 -168.5 69t-61.5 191zM117 252q0 -103 48 -161t132 -58q83 0 131 58t48 161t-48 159t-131 56q-84 0 -132 -56.5t-48 -158.5zM137 589l151 115h15l151 -115l-22 -28 l-136 84l-137 -84z" />
<glyph unicode="&#xf5;" horiz-adv-x="593" d="M65 250q0 123 62 191.5t171 68.5q107 0 168.5 -67.5t61.5 -189.5q0 -123 -62 -193t-171 -70q-107 0 -168.5 69t-61.5 191zM117 252q0 -103 48 -161t132 -58q83 0 131 58t48 161t-48 159t-131 56q-84 0 -132 -56.5t-48 -158.5zM137 615q7 11 21 25t34.5 24.5t45.5 10.5 q26 0 45.5 -9.5t38.5 -19t43 -9.5q29 0 44 12.5t27 24.5l19 -31q-16 -19 -39.5 -37.5t-58.5 -18.5q-25 0 -45 9.5t-39 19t-42 9.5q-25 0 -43.5 -13t-28.5 -27z" />
<glyph unicode="&#xf6;" horiz-adv-x="593" d="M65 250q0 123 62 191.5t171 68.5q107 0 168.5 -67.5t61.5 -189.5q0 -123 -62 -193t-171 -70q-107 0 -168.5 69t-61.5 191zM117 252q0 -103 48 -161t132 -58q83 0 131 58t48 161t-48 159t-131 56q-84 0 -132 -56.5t-48 -158.5zM183 643q0 16 11 27t27 11t27 -11t11 -27 t-11 -27t-27 -11t-27 11t-11 27zM333 643q0 16 11 27t27 11t27 -11t11 -27t-11 -27t-27 -11t-27 11t-11 27z" />
<glyph unicode="&#xf7;" d="M65 267v48h370v-48h-370zM209 152q0 17 11.5 28t27.5 11t27.5 -11t11.5 -28q0 -16 -11.5 -27.5t-27.5 -11.5t-27.5 11.5t-11.5 27.5zM209 431q0 17 11.5 28t27.5 11t27.5 -11t11.5 -28q0 -16 -11.5 -27.5t-27.5 -11.5t-27.5 11.5t-11.5 27.5z" />
<glyph unicode="&#xf8;" horiz-adv-x="593" d="M65 250q0 123 62 191.5t171 68.5q107 0 168.5 -67.5t61.5 -189.5q0 -123 -62 -193t-171 -70q-107 0 -168.5 69t-61.5 191zM107 -36l328 572h51l-328 -572h-51zM117 252q0 -103 48 -161t132 -58q83 0 131 58t48 161t-48 159t-131 56q-84 0 -132 -56.5t-48 -158.5z" />
<glyph unicode="&#xf9;" horiz-adv-x="607" d="M100 167v333h50v-326q0 -71 31.5 -106.5t84.5 -35.5q51 0 89 20.5t65 47.5t44 49l20 -26q-19 -25 -48.5 -56t-73 -54t-105.5 -23q-49 0 -84.5 21t-54 60.5t-18.5 95.5zM213 657l30 47l151 -115l-22 -28zM452 0v500h50v-500h-50z" />
<glyph unicode="&#xfa;" horiz-adv-x="607" d="M100 167v333h50v-326q0 -71 31.5 -106.5t84.5 -35.5q51 0 89 20.5t65 47.5t44 49l20 -26q-19 -25 -48.5 -56t-73 -54t-105.5 -23q-49 0 -84.5 21t-54 60.5t-18.5 95.5zM213 589l151 115l30 -47l-159 -96zM452 0v500h50v-500h-50z" />
<glyph unicode="&#xfb;" horiz-adv-x="607" d="M100 167v333h50v-326q0 -71 31.5 -106.5t84.5 -35.5q51 0 89 20.5t65 47.5t44 49l20 -26q-19 -25 -48.5 -56t-73 -54t-105.5 -23q-49 0 -84.5 21t-54 60.5t-18.5 95.5zM145 589l151 115h15l151 -115l-22 -28l-136 84l-137 -84zM452 0v500h50v-500h-50z" />
<glyph unicode="&#xfc;" horiz-adv-x="607" d="M100 167v333h50v-326q0 -71 31.5 -106.5t84.5 -35.5q51 0 89 20.5t65 47.5t44 49l20 -26q-19 -25 -48.5 -56t-73 -54t-105.5 -23q-49 0 -84.5 21t-54 60.5t-18.5 95.5zM191 643q0 16 11 27t27 11t27 -11t11 -27t-11 -27t-27 -11t-27 11t-11 27zM341 643q0 16 11 27t27 11 t27 -11t11 -27t-11 -27t-27 -11t-27 11t-11 27zM452 0v500h50v-500h-50z" />
<glyph unicode="&#xfd;" horiz-adv-x="491" d="M15 -190q48 20 92.5 50t78 63t48.5 62v-60q-22 56 -42 111.5t-39.5 111.5t-38 113.5t-37.5 117t-38 121.5h52l167 -514l-19 1q30 48 53 94.5t41 103t32.5 133t28.5 184.5l52 -2q-16 -114 -42 -225.5t-71 -210t-117.5 -175t-181.5 -121.5zM164 589l151 115l30 -47 l-159 -96z" />
<glyph unicode="&#xfe;" horiz-adv-x="597" d="M105 -230v975h50v-975h-50zM123 376q14 16 33 38.5t45.5 44.5t61.5 36.5t80 14.5q87 0 135.5 -60.5t48.5 -194.5q0 -129 -57 -197t-182 -68q-26 0 -66.5 5.5t-82.5 25.5l4 49q32 -18 67.5 -26.5t75.5 -8.5q107 0 148 57.5t41 162.5q0 85 -19.5 131t-51 64t-66.5 18 q-36 0 -71 -16t-66 -43.5t-58 -63.5z" />
<glyph unicode="&#xff;" horiz-adv-x="491" d="M15 -190q48 20 92.5 50t78 63t48.5 62v-60q-22 56 -42 111.5t-39.5 111.5t-38 113.5t-37.5 117t-38 121.5h52l167 -514l-19 1q30 48 53 94.5t41 103t32.5 133t28.5 184.5l52 -2q-16 -114 -42 -225.5t-71 -210t-117.5 -175t-181.5 -121.5zM142 643q0 16 11 27t27 11 t27 -11t11 -27t-11 -27t-27 -11t-27 11t-11 27zM292 643q0 16 11 27t27 11t27 -11t11 -27t-11 -27t-27 -11t-27 11t-11 27z" />
<glyph unicode="&#x152;" horiz-adv-x="1006" d="M65 375q0 118 40 203t117 131t187 46q38 0 63.5 -1.5t47.5 -5t48 -11.5l-11 -46q-34 11 -69 14.5t-79 3.5q-140 0 -215 -88.5t-75 -243.5q0 -105 33 -181.5t95.5 -118t149.5 -41.5q54 0 89 4t68 16l10 -49q-40 -10 -79.5 -13.5t-87.5 -3.5q-104 0 -178.5 46.5t-114 132.5 t-39.5 206zM535 0v745h51v-745h-51zM548 698v47h382v-47h-382zM551 0v47h380v-47h-380zM556 350v47h316v-47h-316z" />
<glyph unicode="&#x153;" horiz-adv-x="937" d="M65 250q0 123 62 191.5t171 68.5q107 0 168.5 -67.5t61.5 -189.5q0 -123 -62 -193t-171 -70q-107 0 -168.5 69t-61.5 191zM117 252q0 -103 48 -161t132 -58q83 0 131 58t48 161t-48 159t-131 56q-84 0 -132 -56.5t-48 -158.5zM476 251q0 82 26.5 139.5t76 88.5t118.5 31 q53 0 93.5 -19.5t63.5 -64t23 -119.5q0 -13 -0.5 -21.5t-1.5 -19.5h-363l7 43h352l-48 -33q2 11 2.5 22t0.5 21q0 38 -12 71.5t-41 54.5t-80 21q-85 0 -125 -58.5t-40 -153.5q0 -112 50.5 -164t138.5 -52q47 0 86.5 14t69.5 42v-52q-25 -23 -72.5 -37.5t-98.5 -14.5 q-76 0 -126 33t-75 92t-25 136z" />
<glyph unicode="&#x178;" horiz-adv-x="621" d="M5 745h57l265 -420l-42 -27zM198 888q0 16 11 27t27 11t27 -11t11 -27t-11 -27t-27 -11t-27 11t-11 27zM284 0v341h53v-341h-53zM298 325l261 420h57l-280 -447zM348 888q0 16 11 27t27 11t27 -11t11 -27t-11 -27t-27 -11t-27 11t-11 27z" />
<glyph unicode="&#x2c6;" horiz-adv-x="600" d="M141 589l151 115h15l151 -115l-22 -28l-136 84l-137 -84z" />
<glyph unicode="&#x2dc;" horiz-adv-x="600" d="M141 615q7 11 21 25t34.5 24.5t45.5 10.5q26 0 45.5 -9.5t38.5 -19t43 -9.5q29 0 44 12.5t27 24.5l19 -31q-16 -19 -39.5 -37.5t-58.5 -18.5q-25 0 -45 9.5t-39 19t-42 9.5q-25 0 -43.5 -13t-28.5 -27z" />
<glyph unicode="&#x2000;" horiz-adv-x="481" />
<glyph unicode="&#x2001;" horiz-adv-x="963" />
<glyph unicode="&#x2002;" horiz-adv-x="481" />
<glyph unicode="&#x2003;" horiz-adv-x="963" />
<glyph unicode="&#x2004;" horiz-adv-x="321" />
<glyph unicode="&#x2005;" horiz-adv-x="240" />
<glyph unicode="&#x2006;" horiz-adv-x="160" />
<glyph unicode="&#x2007;" horiz-adv-x="160" />
<glyph unicode="&#x2008;" horiz-adv-x="120" />
<glyph unicode="&#x2009;" horiz-adv-x="192" />
<glyph unicode="&#x200a;" horiz-adv-x="53" />
<glyph unicode="&#x2010;" horiz-adv-x="363" d="M55 212v50h253v-50h-253z" />
<glyph unicode="&#x2011;" horiz-adv-x="363" d="M55 212v50h253v-50h-253z" />
<glyph unicode="&#x2012;" horiz-adv-x="363" d="M55 212v50h253v-50h-253z" />
<glyph unicode="&#x2013;" d="M50 220v42h400v-42h-400z" />
<glyph unicode="&#x2014;" horiz-adv-x="1000" d="M50 220v42h900v-42h-900z" />
<glyph unicode="&#x2018;" horiz-adv-x="150" d="M35 636q0 24 15 58.5t42 74.5l28 -14q-16 -25 -26 -47t-14 -39q18 -5 26 -16t8 -25q0 -16 -11.5 -27.5t-28.5 -11.5q-16 0 -27.5 12.5t-11.5 34.5z" />
<glyph unicode="&#x2019;" horiz-adv-x="150" d="M30 602q16 25 26 47t14 39q-18 5 -26 16t-8 25q0 16 11.5 27.5t28.5 11.5t28 -12.5t11 -34.5q0 -24 -15 -58t-42 -75z" />
<glyph unicode="&#x201a;" horiz-adv-x="150" d="M30 -98q16 25 26 47t14 39q-18 5 -26 16t-8 25q0 16 11.5 27.5t28.5 11.5t28 -12.5t11 -34.5q0 -24 -15 -58t-42 -75z" />
<glyph unicode="&#x201c;" horiz-adv-x="280" d="M35 636q0 24 15 58.5t42 74.5l28 -14q-16 -25 -26 -47t-14 -39q18 -5 26 -16t8 -25q0 -16 -11.5 -27.5t-28.5 -11.5q-16 0 -27.5 12.5t-11.5 34.5zM165 636q0 24 15 58.5t42 74.5l28 -14q-16 -25 -26 -47t-14 -39q18 -5 26 -16t8 -25q0 -16 -11.5 -27.5t-28.5 -11.5 q-16 0 -27.5 12.5t-11.5 34.5z" />
<glyph unicode="&#x201d;" horiz-adv-x="280" d="M30 602q16 25 26 47t14 39q-18 5 -26 16t-8 25q0 16 11.5 27.5t28.5 11.5t28 -12.5t11 -34.5q0 -24 -15 -58t-42 -75zM160 602q16 25 26 47t14 39q-18 5 -26 16t-8 25q0 16 11.5 27.5t28.5 11.5t28 -12.5t11 -34.5q0 -24 -15 -58t-42 -75z" />
<glyph unicode="&#x201e;" horiz-adv-x="280" d="M30 -98q16 25 26 47t14 39q-18 5 -26 16t-8 25q0 16 11.5 27.5t28.5 11.5t28 -12.5t11 -34.5q0 -24 -15 -58t-42 -75zM160 -98q16 25 26 47t14 39q-18 5 -26 16t-8 25q0 16 11.5 27.5t28.5 11.5t28 -12.5t11 -34.5q0 -24 -15 -58t-42 -75z" />
<glyph unicode="&#x2022;" horiz-adv-x="304" d="M70 287q0 23 11 41.5t30 29.5t41 11q23 0 41.5 -11t29.5 -29.5t11 -41.5q0 -22 -11 -41t-29.5 -30t-41.5 -11q-22 0 -41 11t-30 30t-11 41z" />
<glyph unicode="&#x2026;" horiz-adv-x="582" d="M55 29q0 17 11.5 28t27.5 11t27.5 -11t11.5 -28q0 -16 -11.5 -27.5t-27.5 -11.5t-27.5 11.5t-11.5 27.5zM252 29q0 17 11.5 28t27.5 11t27.5 -11t11.5 -28q0 -16 -11.5 -27.5t-27.5 -11.5t-27.5 11.5t-11.5 27.5zM449 29q0 17 11.5 28t27.5 11t27.5 -11t11.5 -28 q0 -16 -11.5 -27.5t-27.5 -11.5t-27.5 11.5t-11.5 27.5z" />
<glyph unicode="&#x202f;" horiz-adv-x="192" />
<glyph unicode="&#x2039;" horiz-adv-x="322" d="M50 234v13l168 233l33 -25l-147 -213l148 -214l-33 -25z" />
<glyph unicode="&#x203a;" horiz-adv-x="322" d="M70 28l33 -25l169 231v13l-168 233l-33 -25l147 -213z" />
<glyph unicode="&#x205f;" horiz-adv-x="240" />
<glyph unicode="&#x2070;" horiz-adv-x="340" d="M25 572q0 60 17 100.5t49.5 61t76.5 20.5q74 0 110.5 -45.5t36.5 -137.5t-37.5 -137.5t-108.5 -45.5q-68 0 -106 45.5t-38 138.5zM73 573q0 -73 24.5 -109.5t71.5 -36.5q49 0 73.5 36.5t24.5 109.5q0 72 -24.5 107t-73.5 35q-46 0 -71 -36t-25 -106z" />
<glyph unicode="&#x2074;" horiz-adv-x="340" d="M26 473v40l185 234h48v-350h-43v319h16l-176 -222l-1 17h266v-38h-295z" />
<glyph unicode="&#x20ac;" horiz-adv-x="614" d="M35 273v45h465v-45h-465zM35 425v45h465v-45h-465zM117 377q0 176 74.5 277t222.5 101q42 0 78 -9t66 -28v-52q-29 21 -71 30.5t-74 9.5q-81 0 -135.5 -38t-81.5 -111t-27 -179q0 -162 61.5 -250.5t174.5 -88.5q41 0 84 11t80 38v-53q-30 -20 -74 -32.5t-93 -12.5 q-89 0 -153 46t-98 133t-34 208z" />
<glyph unicode="&#x2122;" horiz-adv-x="709" d="M20 707v38h240v-38h-240zM118 438v307h44v-307h-44zM299 438l11 307h41l132 -278h-28l132 278h40l12 -307h-42l-8 281l25 -2l-130 -271h-32l-128 271l22 2l-8 -281h-39z" />
<glyph horiz-adv-x="631" d="M115 0v745h52v-745h-52zM143 698l12 47h134q128 0 193 -55t65 -157q0 -100 -66 -161t-212 -61h-118v47h116q119 0 172.5 43t53.5 127q0 86 -51.5 128t-152.5 42h-146zM298 352h58l225 -352h-60z" />
<glyph horiz-adv-x="601" d="M70 239q0 134 57.5 202.5t180.5 68.5q38 0 79 -7t73 -26l-4 -49q-32 18 -65.5 27.5t-80.5 9.5q-72 0 -113 -26t-58 -75t-17 -119q0 -86 19 -132t50.5 -63t66.5 -17q37 0 71.5 16t66 43t57.5 61l20 -31q-13 -16 -32.5 -38.5t-46 -44t-61.5 -35.5t-80 -14q-85 0 -134 60 t-49 189zM441 69v381l16 50h34v-417q0 -26 7 -38t32 -12q15 0 31 3v-37q-5 -3 -19 -6t-30 -3q-38 0 -54.5 21t-16.5 58z" />
<glyph horiz-adv-x="601" d="M70 239q0 134 57.5 202.5t180.5 68.5q38 0 79 -7t73 -26l-4 -49q-32 18 -65.5 27.5t-80.5 9.5q-72 0 -113 -26t-58 -75t-17 -119q0 -86 19 -132t50.5 -63t66.5 -17q37 0 71.5 16t66 43t57.5 61l20 -31q-13 -16 -32.5 -38.5t-46 -44t-61.5 -35.5t-80 -14q-85 0 -134 60 t-49 189zM225 589l151 115l30 -47l-159 -96zM441 69v381l16 50h34v-417q0 -26 7 -38t32 -12q15 0 31 3v-37q-5 -3 -19 -6t-30 -3q-38 0 -54.5 21t-16.5 58z" />
<glyph horiz-adv-x="601" d="M70 239q0 134 57.5 202.5t180.5 68.5q38 0 79 -7t73 -26l-4 -49q-32 18 -65.5 27.5t-80.5 9.5q-72 0 -113 -26t-58 -75t-17 -119q0 -86 19 -132t50.5 -63t66.5 -17q37 0 71.5 16t66 43t57.5 61l20 -31q-13 -16 -32.5 -38.5t-46 -44t-61.5 -35.5t-80 -14q-85 0 -134 60 t-49 189zM143 589l151 115h15l151 -115l-22 -28l-136 84l-137 -84zM441 69v381l16 50h34v-417q0 -26 7 -38t32 -12q15 0 31 3v-37q-5 -3 -19 -6t-30 -3q-38 0 -54.5 21t-16.5 58z" />
<glyph horiz-adv-x="601" d="M70 239q0 134 57.5 202.5t180.5 68.5q38 0 79 -7t73 -26l-4 -49q-32 18 -65.5 27.5t-80.5 9.5q-72 0 -113 -26t-58 -75t-17 -119q0 -86 19 -132t50.5 -63t66.5 -17q37 0 71.5 16t66 43t57.5 61l20 -31q-13 -16 -32.5 -38.5t-46 -44t-61.5 -35.5t-80 -14q-85 0 -134 60 t-49 189zM190 643q0 16 11 27t27 11t27 -11t11 -27t-11 -27t-27 -11t-27 11t-11 27zM340 643q0 16 11 27t27 11t27 -11t11 -27t-11 -27t-27 -11t-27 11t-11 27zM441 69v381l16 50h34v-417q0 -26 7 -38t32 -12q15 0 31 3v-37q-5 -3 -19 -6t-30 -3q-38 0 -54.5 21t-16.5 58z " />
<glyph horiz-adv-x="601" d="M70 239q0 134 57.5 202.5t180.5 68.5q38 0 79 -7t73 -26l-4 -49q-32 18 -65.5 27.5t-80.5 9.5q-72 0 -113 -26t-58 -75t-17 -119q0 -86 19 -132t50.5 -63t66.5 -17q37 0 71.5 16t66 43t57.5 61l20 -31q-13 -16 -32.5 -38.5t-46 -44t-61.5 -35.5t-80 -14q-85 0 -134 60 t-49 189zM205 657l30 47l151 -115l-22 -28zM441 69v381l16 50h34v-417q0 -26 7 -38t32 -12q15 0 31 3v-37q-5 -3 -19 -6t-30 -3q-38 0 -54.5 21t-16.5 58z" />
<glyph horiz-adv-x="601" d="M70 239q0 134 57.5 202.5t180.5 68.5q38 0 79 -7t73 -26l-4 -49q-32 18 -65.5 27.5t-80.5 9.5q-72 0 -113 -26t-58 -75t-17 -119q0 -86 19 -132t50.5 -63t66.5 -17q37 0 71.5 16t66 43t57.5 61l20 -31q-13 -16 -32.5 -38.5t-46 -44t-61.5 -35.5t-80 -14q-85 0 -134 60 t-49 189zM216 633q0 38 24 61.5t61 23.5q38 0 62 -23.5t24 -61.5t-24 -62t-62 -24q-37 0 -61 24t-24 62zM256 633q0 -22 14 -36t34 -14q19 0 32.5 14t13.5 36q0 23 -13.5 36t-33.5 13t-33.5 -13t-13.5 -36zM441 69v381l16 50h34v-417q0 -26 7 -38t32 -12q15 0 31 3v-37 q-5 -3 -19 -6t-30 -3q-38 0 -54.5 21t-16.5 58z" />
<glyph horiz-adv-x="601" d="M70 239q0 134 57.5 202.5t180.5 68.5q38 0 79 -7t73 -26l-4 -49q-32 18 -65.5 27.5t-80.5 9.5q-72 0 -113 -26t-58 -75t-17 -119q0 -86 19 -132t50.5 -63t66.5 -17q37 0 71.5 16t66 43t57.5 61l20 -31q-13 -16 -32.5 -38.5t-46 -44t-61.5 -35.5t-80 -14q-85 0 -134 60 t-49 189zM146 615q7 11 21 25t34.5 24.5t45.5 10.5q26 0 45.5 -9.5t38.5 -19t43 -9.5q29 0 44 12.5t27 24.5l19 -31q-16 -19 -39.5 -37.5t-58.5 -18.5q-25 0 -45 9.5t-39 19t-42 9.5q-25 0 -43.5 -13t-28.5 -27zM441 69v381l16 50h34v-417q0 -26 7 -38t32 -12q15 0 31 3v-37 q-5 -3 -19 -6t-30 -3q-38 0 -54.5 21t-16.5 58z" />
<glyph horiz-adv-x="596" d="M70 239q0 134 57.5 202.5t180.5 68.5q38 0 79 -7t73 -26l-4 -49q-32 18 -65.5 27.5t-80.5 9.5q-72 0 -113 -26t-58 -75t-17 -119q0 -86 19 -132t50.5 -63t66.5 -17q37 0 71.5 16t66 43t57.5 61l20 -31q-13 -16 -32.5 -38.5t-46 -44t-61.5 -35.5t-80 -14q-85 0 -134 60 t-49 189zM123 -198l16 47q26 -17 61.5 -27.5t82.5 -10.5q59 0 93.5 18.5t49.5 58.5t15 106v456l16 50h34v-505q0 -49 -8 -86.5t-24 -65t-41 -44.5t-59 -25.5t-78 -8.5q-39 0 -70 5.5t-53 14.5t-35 17z" />
<glyph horiz-adv-x="642" d="M55 375q0 185 66 282.5t195 97.5q137 0 204 -93.5t67 -287.5q0 -195 -70 -289.5t-200 -94.5q-133 0 -197.5 94.5t-64.5 290.5zM108 377q0 -173 52 -257.5t157 -84.5q110 0 163.5 84.5t53.5 257.5q0 169 -53.5 251t-163.5 82q-103 0 -156 -85.5t-53 -247.5z" />
<glyph horiz-adv-x="642" d="M164 613v47l169 85l33 -36zM181 0v47h351v-47h-351zM331 0v723l2 22h49v-745h-51z" />
<glyph horiz-adv-x="642" d="M103 0h453v47h-415l19 -13q74 60 139 123t115 128t78 130t28 128t-23 111t-71.5 75t-126.5 27q-57 0 -100 -12.5t-75 -29.5v-51q23 12 66.5 29.5t108.5 17.5q79 0 123.5 -45t44.5 -115q0 -46 -16 -97.5t-56.5 -111.5t-111 -133.5t-180.5 -164.5v-43z" />
<glyph horiz-adv-x="642" d="M123 26q31 -16 77 -26t93 -10q73 0 129.5 25t89 73t32.5 118q0 50 -17.5 89.5t-52.5 67.5t-86 42.5t-117 14.5q-7 0 -13 -0.5t-13 -0.5l37 -28q59 2 108 24.5t78.5 65t29.5 104.5q0 79 -51.5 124.5t-158.5 45.5q-24 0 -62 -5t-83 -26v-53q20 14 62.5 26t86.5 12 q71 0 112.5 -35t41.5 -94q0 -76 -57.5 -117t-157.5 -41v-44q7 0 13.5 0.5t13.5 0.5q62 0 115 -17.5t85.5 -57t32.5 -107.5q0 -81 -57.5 -121t-146.5 -40q-43 0 -85.5 12t-78.5 33v-55z" />
<glyph horiz-adv-x="642" d="M64 181v47l373 517h50v-745h-48v698l15 -5l-362 -501l-8 34h518v-45h-538z" />
<glyph horiz-adv-x="642" d="M125 27l2 57q36 -23 76 -35t80 -12q33 0 67.5 9.5t64.5 30.5t48 55.5t18 83.5q0 73 -37.5 115t-97.5 59.5t-130 17.5q-18 0 -36.5 -1t-36.5 -3l17 341h334v-47h-331l45 46l-14 -318l-34 24q19 2 37 3t35 1q65 0 120.5 -13t96 -41t63 -71t22.5 -103q0 -63 -28 -117 t-83 -86.5t-136 -32.5q-41 0 -84 9t-78 28z" />
<glyph horiz-adv-x="642" d="M99 360q0 -117 26.5 -199.5t80 -126.5t134.5 -44q68 0 117 28.5t75.5 81t26.5 123.5q0 68 -24 119t-72 79.5t-120 29.5q-57 1 -114 -17.5t-93 -59.5v-46q39 36 87 56t103 20q61 0 101 -23.5t59.5 -65t19.5 -94.5q0 -59 -22 -100.5t-59.5 -62.5t-83.5 -21q-92 0 -141.5 85 t-49.5 245q0 102 19 169t52.5 105t79 53.5t99.5 15.5q24 0 44 -3t37.5 -9t33.5 -14l4 51q-18 8 -44 14t-68 6q-70 0 -127 -19.5t-97.5 -64.5t-62 -121t-21.5 -190z" />
<glyph horiz-adv-x="642" d="M123 698v47h421v-41l-327 -704h-53l338 720l18 -22h-397z" />
<glyph horiz-adv-x="642" d="M90 181q0 83 55.5 137.5t144.5 92.5l35 -27q-30 -12 -62 -29.5t-60 -42t-45.5 -57t-17.5 -73.5q0 -67 46.5 -107t130.5 -40q53 0 95 17t66 49.5t24 76.5q0 48 -29 82t-74 62t-95 56q-96 56 -138 103.5t-42 106.5q0 50 25.5 87.5t70 58.5t101.5 21q61 0 106.5 -23.5 t71 -63.5t25.5 -91q0 -55 -25.5 -91.5t-63.5 -61t-76 -44.5l-50 18q45 22 82.5 45t60 53.5t22.5 74.5q0 59 -43 99t-114 40q-65 0 -104 -34t-39 -84q0 -31 16.5 -58.5t51 -55t89.5 -59.5q41 -24 80.5 -46.5t71 -49t50.5 -60t19 -80.5q0 -58 -30 -101t-83.5 -67.5 t-123.5 -24.5q-105 0 -165 53t-60 138z" />
<glyph horiz-adv-x="642" d="M83 522q0 -68 24 -119t72 -79.5t120 -29.5q38 0 76.5 8t72.5 25t58 44v46q-39 -36 -86.5 -56t-103.5 -20q-61 0 -101 23.5t-59.5 65t-19.5 94.5q0 60 22 101t59.5 62t83.5 21q92 0 141.5 -84.5t49.5 -245.5q0 -102 -19 -168t-52.5 -104t-79 -53.5t-99.5 -15.5 q-37 0 -64.5 7t-51.5 19l-4 -53q12 -5 27.5 -9.5t36.5 -7.5t49 -3q94 0 163 37t107 123.5t38 234.5q0 123 -26.5 205t-80 123.5t-134.5 41.5q-64 0 -113.5 -27.5t-77.5 -79.5t-28 -126z" />
</font>
</defs>
</svg>
