<?xml version="1.0" standalone="no"?>
<!DOCTYPE svg PUBLIC "-//W3C//DTD SVG 1.1//EN" "http://www.w3.org/Graphics/SVG/1.1/DTD/svg11.dtd" >
<svg xmlns="http://www.w3.org/2000/svg" xmlns:xlink="http://www.w3.org/1999/xlink" version="1.1">
<metadata></metadata>
<defs>
<font id="author_variablebold" horiz-adv-x="520" >
<font-face units-per-em="1000" ascent="800" descent="-200" />
<missing-glyph horiz-adv-x="200" />
<glyph unicode="&#xfb01;" horiz-adv-x="556" d="M7 303v137h58v6q0 92 56 140t151 48q15 0 30 -1.5t27 -5.5l-5 -129q-7 3 -15 4t-18 1q-32 0 -49 -14t-17 -43v-6h291v-440h-160v303h-131v-303h-160v303h-58zM352 570q0 35 24.5 58t61.5 23q36 0 59 -23t23 -58q0 -36 -23 -59.5t-59 -23.5q-37 0 -61.5 23.5t-24.5 59.5z " />
<glyph unicode="&#xfb02;" horiz-adv-x="556" d="M7 303v137h58v6q0 92 58.5 140t167.5 48q26 0 58 -2.5t56 -5.5l111 8v-634h-160v497q-12 2 -26 4t-29 2q-41 0 -58.5 -14t-17.5 -43v-6h83l-11 -137h-72v-303h-160v303h-58z" />
<glyph horiz-adv-x="0" />
<glyph horiz-adv-x="0" />
<glyph horiz-adv-x="333" />
<glyph unicode="&#xd;" horiz-adv-x="0" />
<glyph unicode=" "  horiz-adv-x="200" />
<glyph unicode="&#x09;" horiz-adv-x="200" />
<glyph unicode="&#xa0;" horiz-adv-x="200" />
<glyph unicode="!" horiz-adv-x="330" d="M77 81q0 40 25.5 66t62.5 26q38 0 63 -26t25 -65q0 -40 -25 -66t-63 -26t-63 26t-25 65zM79 594h170l-14 -360l-142 -6z" />
<glyph unicode="&#x22;" horiz-adv-x="434" d="M45 616h156l-19 -238h-118zM234 616h156l-19 -238h-118z" />
<glyph unicode="#" d="M31 124l16 142h74l13 75h-71l16 142h79l19 111h95l-19 -111h75l19 111h95l-19 -111h66l-16 -142h-74l-13 -75h71l-16 -142h-79l-21 -124h-95l21 124h-75l-21 -124h-95l21 124h-66zM216 266h75l13 75h-75z" />
<glyph unicode="$" d="M39 408q0 73 43.5 123t120.5 66v82h152v-81q29 -4 57 -10.5t48 -15.5l-30 -145q-16 10 -42.5 17.5t-54.5 12t-52 4.5q-37 0 -54.5 -9t-17.5 -29q0 -15 15 -23.5t39.5 -15.5t54 -15t59 -20t54 -32.5t39.5 -51.5t15 -77q0 -76 -44.5 -125.5t-130.5 -65.5v-82h-152v80 q-33 4 -61.5 12t-49.5 18l12 152q28 -18 78.5 -31t99.5 -13q41 0 59.5 9t18.5 31q0 15 -15 24.5t-39.5 16.5t-54 15t-59 20.5t-54 32t-39.5 50.5t-15 76z" />
<glyph unicode="%" horiz-adv-x="723" d="M20 433q0 81 39 123.5t108 42.5q70 0 109 -42.5t39 -123.5q0 -80 -39 -123t-109 -43q-69 0 -108 43t-39 123zM127 433q0 -43 10 -59t30 -16q21 0 31 15.5t10 59.5t-10 59.5t-31 15.5q-20 0 -30 -15.5t-10 -59.5zM143 0l343 594h94l-343 -594h-94zM408 161q0 81 39 123.5 t108 42.5q70 0 109 -42.5t39 -123.5q0 -80 -39 -123t-109 -43q-69 0 -108 43t-39 123zM515 161q0 -43 10 -59t30 -16q21 0 31 15.5t10 59.5t-10 59.5t-31 15.5q-20 0 -30 -15.5t-10 -59.5z" />
<glyph unicode="&#x26;" horiz-adv-x="687" d="M22 193q0 62 28.5 109t75.5 75q-2 11 -3.5 21t-1.5 21q0 48 22.5 90.5t69 68.5t119.5 26q47 0 86 -9.5t65 -25.5l-33 -131q-16 13 -45.5 21.5t-56.5 8.5q-32 0 -47.5 -12t-15.5 -32q0 -9 4 -18t16.5 -22.5t37.5 -38.5l124 -119q11 21 17.5 45.5t6.5 51.5v36l158 6v-25 q0 -64 -21 -118t-56 -96l100 -94v-32h-192l-32 30q-40 -19 -81 -29.5t-79 -10.5q-95 0 -154 28t-85.5 74.5t-26.5 100.5zM184 211q0 -22 9.5 -41.5t33 -31.5t64.5 -12q13 0 25.5 1.5t24.5 3.5l-96 91q-10 9 -21 20t-22 21q-8 -10 -13 -22.5t-5 -29.5z" />
<glyph unicode="'" horiz-adv-x="245" d="M45 616h156l-19 -238h-118z" />
<glyph unicode="(" horiz-adv-x="327" d="M35 222q0 80 19 153t53.5 137t81.5 116h128q-66 -90 -97.5 -192t-31.5 -214t31.5 -214.5t97.5 -192.5h-128q-47 52 -81.5 116.5t-53.5 138t-19 152.5z" />
<glyph unicode=")" horiz-adv-x="327" d="M10 -185q66 90 97.5 192t31.5 214t-31.5 214.5t-97.5 192.5h128q47 -52 81.5 -116.5t53.5 -137.5t19 -153q0 -79 -19 -152.5t-53.5 -137.5t-81.5 -116h-128z" />
<glyph unicode="*" horiz-adv-x="434" d="M17 433l44 137l104 -55l-20 116h144l-20 -115l103 55l45 -137l-116 -17l85 -81l-117 -85l-52 104l-51 -105l-117 85l84 81z" />
<glyph unicode="+" d="M34 176v150h148v155h156v-155h148v-150h-148v-149h-156v149h-148z" />
<glyph unicode="," horiz-adv-x="256" d="M-14 -135q38 59 54.5 107.5t16.5 97.5q0 21 -3 42.5t-10 44.5h155q3 -14 4 -27.5t1 -26.5q0 -76 -29 -135.5t-74 -102.5h-115z" />
<glyph unicode="-" horiz-adv-x="300" d="M33 155v134h234v-134h-234z" />
<glyph unicode="." horiz-adv-x="256" d="M40 81q0 40 25.5 66t62.5 26q38 0 63 -26t25 -65q0 -40 -25 -66t-63 -26t-63 26t-25 65z" />
<glyph unicode="/" horiz-adv-x="418" d="M-27 -99l327 727h117l-327 -727h-117z" />
<glyph unicode="0" d="M12 253q0 128 67 195t181 67t181 -66t67 -196q0 -128 -67 -195.5t-181 -67.5t-181 66.5t-67 196.5zM182 253q0 -70 19.5 -98.5t58.5 -28.5t58.5 28t19.5 98q0 71 -19.5 99t-58.5 28t-58.5 -28.5t-19.5 -97.5z" />
<glyph unicode="1" horiz-adv-x="385" d="M30 299v149l129 57h166v-505h-166v351z" />
<glyph unicode="2" d="M39 0v142q78 37 127 63t75.5 45t36.5 34t10 30q0 25 -20.5 39t-69.5 14q-26 0 -52 -4.5t-49 -12t-41 -17.5l-7 148q38 18 87 26t103 8q116 0 173.5 -45.5t57.5 -122.5q0 -38 -19 -72.5t-60.5 -65.5t-110.5 -59h217l-13 -150h-445z" />
<glyph unicode="3" d="M42 -63l12 154q27 -19 71 -29.5t95 -10.5q50 0 74 14t24 45q0 29 -24 45t-88 16h-61v83l137 101h-238l13 150h422v-140l-129 -95q68 -13 109 -56t41 -111q0 -57 -32 -103t-91.5 -72.5t-142.5 -26.5q-65 0 -114.5 10.5t-77.5 25.5z" />
<glyph unicode="4" d="M21 20v160l173 335l170 -10l-187 -346h107v135l166 6v-130h49l-13 -150h-36v-109h-166v109h-263z" />
<glyph unicode="5" d="M30 -63l12 154q27 -19 70.5 -29.5t95.5 -10.5q48 0 74.5 13.5t26.5 44.5q0 29 -23 42t-75 13h-151l15 341h393l-14 -150h-235l-3 -63h24q118 0 184.5 -46.5t66.5 -141.5q0 -61 -31.5 -106.5t-92 -71t-146.5 -25.5q-57 0 -108 9.5t-83 26.5z" />
<glyph unicode="6" d="M20 190q0 42 11 84.5t38 91t76 107t125 131.5l184 -35q-56 -52 -97 -94t-70 -77q17 -1 34 -3t33 -6q65 -16 105.5 -62t40.5 -119q0 -67 -32.5 -116t-87.5 -75.5t-123 -26.5t-121.5 23t-84.5 68t-31 109zM196 203q0 -37 18 -55t46 -18q31 0 47.5 19.5t16.5 54.5 q0 42 -28 57t-64 15h-12t-11 -1q-7 -19 -10 -36.5t-3 -35.5z" />
<glyph unicode="7" d="M25 355l13 150h457v-140l-212 -454h-184l206 444h-280z" />
<glyph unicode="8" d="M21 155q0 38 23 74t65 62q-24 15 -43 35t-30 46t-11 59q0 52 30 91t84.5 60.5t125.5 21.5q110 0 169.5 -46t59.5 -119q0 -80 -82 -134q24 -15 43.5 -35t31 -46.5t11.5 -60.5q0 -52 -31 -90.5t-86 -60.5t-127 -22q-109 0 -171 46t-62 119zM193 179q0 -21 15 -35t48 -14 q29 0 45.5 12t16.5 34q0 14 -13 24.5t-34.5 20t-47.5 18.5q-16 -16 -23 -29.5t-7 -30.5zM205 418q0 -13 11.5 -23.5t32.5 -19.5t47 -19q15 16 20.5 29.5t5.5 29.5q0 21 -13 35t-46 14q-28 0 -43 -12t-15 -34z" />
<glyph unicode="9" d="M20 297q0 68 32.5 116.5t87.5 75t123 26.5t121.5 -23t84.5 -67.5t31 -109.5q0 -42 -11 -84.5t-38 -91t-76 -106.5t-125 -132l-184 35q56 53 97.5 95t69.5 76q-17 1 -34 3t-33 6q-64 17 -105 62.5t-41 118.5zM196 301q0 -42 28 -57t64 -15h12t11 1q8 20 10.5 37t2.5 35 q0 38 -18 55.5t-46 17.5q-31 0 -47.5 -19.5t-16.5 -54.5z" />
<glyph unicode=":" horiz-adv-x="273" d="M49 81q0 40 25.5 66t62.5 26q38 0 63 -26t25 -65q0 -40 -25 -66t-63 -26t-63 26t-25 65zM49 358q0 40 25.5 66t62.5 26q38 0 63 -26t25 -65q0 -40 -25 -66t-63 -26t-63 26t-25 65z" />
<glyph unicode=";" horiz-adv-x="273" d="M3 -135q38 59 54.5 107.5t16.5 97.5q0 21 -3 42.5t-10 44.5h155q3 -14 4 -27.5t1 -26.5q0 -76 -29 -135.5t-74 -102.5h-115zM49 358q0 40 25.5 66t62.5 26q38 0 63 -26t25 -65q0 -40 -25 -66t-63 -26t-63 26t-25 65z" />
<glyph unicode="&#x3c;" d="M46 183v142l428 175v-167l-259 -79l259 -78v-168z" />
<glyph unicode="=" d="M46 57v150h428v-150h-428zM46 298v150h428v-150h-428z" />
<glyph unicode="&#x3e;" d="M46 8v167l259 79l-259 78v168l428 -175v-142z" />
<glyph unicode="?" horiz-adv-x="450" d="M40 572q27 14 70 23t86 9q110 0 165 -47.5t55 -116.5q0 -67 -43.5 -108.5t-105.5 -51.5l-2 -46l-142 -6l-13 127q81 0 113.5 12.5t32.5 43.5q0 26 -20.5 38.5t-59.5 12.5q-34 0 -66.5 -7.5t-54.5 -20.5zM107 81q0 40 25.5 66t62.5 26q38 0 63 -26t25 -65q0 -40 -25 -66 t-63 -26t-63 26t-25 65z" />
<glyph unicode="@" horiz-adv-x="872" d="M20 180q0 99 34 179t94.5 137t140.5 87.5t171 30.5q90 0 162.5 -26.5t123.5 -74t78.5 -109.5t27.5 -133q0 -85 -25.5 -144.5t-71 -90.5t-106.5 -31q-42 0 -76 16t-53 41q-28 -27 -59.5 -42t-66.5 -15q-45 0 -82 20.5t-59.5 62t-22.5 103.5q0 70 26 120t68.5 76.5 t89.5 26.5q30 0 54 -9.5t38 -23.5l6 25h135l-25 -204q-1 -10 -2 -19.5t-1 -17.5q0 -29 11 -41t36 -12q22 0 38 17t25 52t9 90q0 73 -34 126t-95.5 82t-145.5 29q-68 0 -127.5 -20.5t-104.5 -61.5t-70.5 -101.5t-25.5 -141.5q0 -89 35.5 -149.5t98 -91.5t141.5 -31q42 0 86 9 t78 25v-109q-36 -16 -81 -23.5t-83 -7.5q-80 0 -150.5 24t-124.5 71.5t-84.5 117.5t-30.5 162zM381 202q0 -30 10.5 -49.5t41.5 -19.5q13 0 21.5 4.5t19.5 14.5l17 139q-7 5 -16.5 7.5t-20.5 2.5q-39 0 -56 -29t-17 -70z" />
<glyph unicode="A" horiz-adv-x="619" d="M5 0l207 594h195l207 -594h-178l-39 125h-183l-39 -125h-170zM254 256h102l-28 92q-7 21 -11.5 40t-8.5 38h-5q-4 -19 -8.5 -38t-11.5 -40z" />
<glyph unicode="B" horiz-adv-x="554" d="M50 0v594h247q106 0 157.5 -43t51.5 -113q0 -43 -20.5 -76t-53.5 -49q47 -16 74.5 -52t27.5 -87q0 -76 -52.5 -125t-157.5 -49h-274zM214 134h92q32 0 47 15t15 40q0 23 -15 36.5t-47 13.5h-92v-105zM214 358h68q32 0 47 14t15 39q0 23 -15 36t-47 13h-68v-102z" />
<glyph unicode="C" horiz-adv-x="557" d="M22 297q0 89 40.5 158t110.5 109t159 40q63 0 112.5 -13t87.5 -39l-54 -150q-26 23 -59 35.5t-74 12.5q-44 0 -78.5 -17.5t-54.5 -51.5t-20 -84q0 -45 20 -79.5t57 -54t87 -19.5q54 0 96 13t68 33l7 -160q-32 -20 -79 -30t-98 -10q-102 0 -175.5 40.5t-113 110 t-39.5 156.5z" />
<glyph unicode="D" horiz-adv-x="629" d="M50 0v594h229q101 0 174.5 -38.5t113.5 -105.5t40 -153q0 -85 -40 -152.5t-113.5 -106t-174.5 -38.5h-229zM215 140h64q48 0 83 19t53.5 54.5t18.5 83.5q0 49 -18.5 84t-53.5 54t-83 19h-64v-314z" />
<glyph unicode="E" horiz-adv-x="494" d="M50 0v594h414l-12 -148h-236v-75h192v-144h-192v-79h253v-148h-419z" />
<glyph unicode="F" horiz-adv-x="489" d="M50 0v594h414l-12 -148h-236v-96h201v-144h-201v-206h-166z" />
<glyph unicode="G" horiz-adv-x="608" d="M22 297q0 89 41 158t112 109t162 40q63 0 115 -13t90 -39l-54 -150q-26 23 -61.5 35.5t-76.5 12.5q-44 0 -80 -17t-57 -50.5t-21 -85.5q0 -45 20 -79.5t57 -54t87 -19.5q12 0 24 1t22 2v151l166 6v-263q-38 -23 -96.5 -37t-123.5 -14q-102 0 -175 40.5t-112 110 t-39 156.5z" />
<glyph unicode="H" horiz-adv-x="635" d="M50 0v594h166v-220h203v220h166v-594h-166v224h-203v-224h-166z" />
<glyph unicode="I" horiz-adv-x="266" d="M50 0v594h166v-594h-166z" />
<glyph unicode="J" horiz-adv-x="340" d="M10 6l10 150q8 -6 22 -10t32 -4q29 0 42 16.5t13 50.5v385h166v-398q0 -71 -25.5 -116.5t-69 -67.5t-99.5 -22q-29 0 -53 4.5t-38 11.5z" />
<glyph unicode="K" horiz-adv-x="616" d="M50 0v594h166v-278h5q11 22 35 59.5t49 70.5l110 148h186l-214 -267l224 -327h-201l-143 211l-51 -61v-150h-166z" />
<glyph unicode="L" horiz-adv-x="461" d="M50 0v594h166v-444h235l-12 -150h-389z" />
<glyph unicode="M" horiz-adv-x="759" d="M50 0v594h177l114 -261q10 -22 20.5 -49.5t15.5 -46.5h5q5 19 15.5 46.5t20.5 49.5l114 261h177v-594h-166v308h-5q-4 -22 -10.5 -44t-17.5 -47l-56 -132h-156l-56 132q-9 23 -16 46t-12 45h-5v-308h-159z" />
<glyph unicode="N" horiz-adv-x="635" d="M50 0v594h161l163 -233q13 -18 25 -37t22 -39h5v309h159v-594h-141l-183 260q-13 18 -24.5 37.5t-22.5 38.5h-5v-336h-159z" />
<glyph unicode="O" horiz-adv-x="674" d="M22 297q0 89 41 158t112 109t162 40t162 -40t112 -109t41 -158q0 -88 -41 -157.5t-112 -109.5t-162 -40t-162 40t-112 109.5t-41 157.5zM195 297q0 -46 18 -82t50.5 -56t73.5 -20q42 0 74 20t50 56t18 82q0 47 -18 82.5t-50 55.5t-74 20q-41 0 -73.5 -20t-50.5 -55.5 t-18 -82.5z" />
<glyph unicode="P" horiz-adv-x="547" d="M50 0v594h218q84 0 141 -25.5t86 -72.5t29 -113t-29.5 -113.5t-87 -72.5t-141.5 -25h-50v-172h-166zM216 308h49q32 0 52.5 9t30 26t9.5 40q0 24 -9.5 40.5t-30 25.5t-52.5 9h-49v-150z" />
<glyph unicode="Q" horiz-adv-x="674" d="M22 297q0 89 41 158t112 109t162 40t162 -40t112 -109t41 -158q0 -75 -27 -129.5t-65.5 -88.5t-73.5 -48q29 -17 64.5 -30t101.5 -31l-147 -112q-51 19 -93.5 42.5t-73.5 47.5t-49 45q-51 6 -98.5 29t-85.5 61.5t-60.5 92t-22.5 121.5zM195 297q0 -46 18 -82t50.5 -56 t73.5 -20q42 0 74 20t50 56t18 82q0 47 -18 82.5t-50 55.5t-74 20q-41 0 -73.5 -20t-50.5 -55.5t-18 -82.5z" />
<glyph unicode="R" horiz-adv-x="571" d="M50 0v594h218q84 0 141 -24.5t86 -71t29 -112.5q0 -54 -28 -97t-73 -62l148 -227h-192l-117 186h-46v-186h-166zM216 314h49q30 0 50.5 8t31 24t10.5 40t-10.5 40t-31 24t-50.5 8h-49v-144z" />
<glyph unicode="S" horiz-adv-x="507" d="M31 408q0 59 29.5 103t84 68.5t128.5 24.5q29 0 63.5 -3.5t67.5 -10.5t56 -18l-30 -148q-16 10 -43.5 17.5t-56.5 12t-53 4.5q-37 0 -56.5 -7.5t-19.5 -27.5q0 -15 15.5 -23.5t40.5 -15.5t55.5 -15t61 -20t55.5 -32.5t40.5 -51.5t15.5 -77q0 -91 -67 -144.5t-190 -53.5 q-56 0 -106.5 9.5t-82.5 25.5l12 155q19 -12 49 -22t65 -16t68 -6q41 0 61.5 7.5t20.5 29.5q0 15 -15.5 24.5t-40.5 16.5t-55.5 15t-61 20.5t-55.5 32t-40.5 50.5t-15.5 76z" />
<glyph unicode="T" horiz-adv-x="506" d="M11 444v150h490l-12 -150h-153v-444h-166v444h-159z" />
<glyph unicode="U" horiz-adv-x="621" d="M45 255v339h166v-327q0 -59 24.5 -92t78.5 -33q53 0 77.5 33t24.5 92v327h160v-339q0 -127 -70.5 -196t-195.5 -69q-124 0 -194.5 69t-70.5 196z" />
<glyph unicode="V" horiz-adv-x="629" d="M15 594h178l103 -334q6 -21 11 -44t9 -43h5q4 20 9 43t11 44l103 334h170l-202 -594h-195z" />
<glyph unicode="W" horiz-adv-x="949" d="M15 594h175l78 -329q5 -21 9 -39.5t7 -38.5h5q3 20 7 38.5t10 39.5l78 278h189l78 -278q6 -21 10 -39.5t7 -38.5h5q3 20 7 38t9 40l78 329h167l-166 -594h-190l-85 282q-6 21 -10 40t-6 38h-5q-2 -19 -6 -38t-10 -40l-85 -282h-190z" />
<glyph unicode="X" horiz-adv-x="634" d="M12 0l205 300l-198 294h198l106 -163l102 163h190l-200 -287l207 -307h-198l-115 176l-107 -176h-190z" />
<glyph unicode="Y" horiz-adv-x="598" d="M6 594h184l113 -241l113 241h176l-210 -394v-200h-166v200z" />
<glyph unicode="Z" horiz-adv-x="529" d="M25 0v140l265 304h-256v150h452v-140l-265 -304h283l-12 -150h-467z" />
<glyph unicode="[" horiz-adv-x="323" d="M57 -185v813h251l-14 -129h-92v-555h99v-129h-244z" />
<glyph unicode="\" horiz-adv-x="418" d="M1 628h117l327 -727h-117z" />
<glyph unicode="]" horiz-adv-x="323" d="M15 -185l14 129h92v555h-99v129h244v-813h-251z" />
<glyph unicode="^" d="M20 144l146 450h188l146 -450h-160l-80 284l-80 -284h-160z" />
<glyph unicode="_" horiz-adv-x="490" d="M0 -31h490v-134h-490v134z" />
<glyph unicode="`" horiz-adv-x="500" d="M131 630l190 4l48 -142h-124z" />
<glyph unicode="a" horiz-adv-x="480" d="M18 124q0 67 46.5 102t125.5 35q26 0 52 -4t42 -10v8q0 30 -21 43t-68 13q-35 0 -74 -8.5t-62 -21.5l-6 138q33 15 77 23t90 8q108 0 164 -45t56 -141v-264h-151v31q-22 -18 -53 -29.5t-69 -11.5q-72 0 -110.5 35.5t-38.5 98.5zM176 126q0 -17 11 -25t38 -8q15 0 32 5 t27 13v44q-10 5 -25 7.5t-28 2.5q-28 0 -41.5 -9.5t-13.5 -29.5z" />
<glyph unicode="b" horiz-adv-x="514" d="M40 33v595l160 6v-216q26 17 50.5 24.5t54.5 7.5q55 0 98 -27t68 -77t25 -118q0 -71 -30 -125t-87.5 -83.5t-138.5 -29.5q-55 0 -107 12t-93 31zM200 135q8 -3 21 -5.5t26 -2.5q28 0 46.5 11.5t28 33t9.5 49.5q0 27 -8 48t-25.5 32.5t-46.5 11.5q-30 0 -51 -14v-164z" />
<glyph unicode="c" horiz-adv-x="419" d="M18 221q0 66 31.5 118t85 81.5t119.5 29.5q49 0 86 -10t61 -29l-33 -144q-16 17 -41.5 27.5t-54.5 10.5q-26 0 -46.5 -9.5t-31.5 -28t-11 -46.5q0 -29 12 -48.5t35 -29t55 -9.5q31 0 59 9t51 23l6 -141q-29 -16 -64 -25.5t-80 -9.5q-63 0 -117.5 26.5t-88 78.5t-33.5 126 z" />
<glyph unicode="d" horiz-adv-x="514" d="M18 214q0 72 27 125t76.5 82t117.5 29q20 0 40 -3.5t35 -9.5v191l160 6v-634h-160v23q-43 -33 -103 -33q-52 0 -96 27.5t-70.5 78t-26.5 118.5zM183 219q0 -27 8 -47.5t25 -32.5t42 -12q32 0 56 14v164q-7 3 -21 5.5t-28 2.5q-27 0 -45.5 -11.5t-27.5 -32.5t-9 -50z" />
<glyph unicode="e" horiz-adv-x="474" d="M18 221q0 70 29.5 121t81 79.5t116.5 28.5q60 0 106.5 -23t73 -67t26.5 -108q0 -13 -1.5 -33.5t-3.5 -38.5h-260q8 -17 23.5 -28.5t40 -17t59.5 -5.5q30 0 68 8t63 21l6 -135q-27 -16 -70.5 -24.5t-78.5 -8.5q-92 0 -154.5 28.5t-93.5 80.5t-31 122zM180 268h123v6v5 q0 27 -15 42.5t-42 15.5q-28 0 -44.5 -18.5t-21.5 -50.5z" />
<glyph unicode="f" horiz-adv-x="342" d="M7 303v137h58v6q0 92 56 140t151 48q15 0 34 -2t31 -6l-5 -137q-7 3 -19 4.5t-22 1.5q-34 0 -50 -12.5t-16 -38.5v-4h103l-11 -137h-92v-303h-160v303h-58z" />
<glyph unicode="g" horiz-adv-x="486" d="M4 -147l12 136q20 -15 57.5 -27.5t84.5 -20.5t92 -8q34 0 51 3t23 9.5t6 17.5q0 15 -16.5 21t-71.5 6q-40 0 -82.5 -3.5t-74.5 -10.5v108l65 57q-63 14 -96 54.5t-33 95.5q0 50 24.5 85.5t70 54.5t107.5 19q45 0 83 -11l166 18v-120h-53q3 -10 4.5 -22t1.5 -24 q0 -72 -50.5 -113.5t-138.5 -44.5l-32 -28q12 2 27.5 3t30 1.5t22.5 0.5q93 0 143 -37.5t50 -106.5q0 -70 -56 -115.5t-181 -45.5q-75 0 -137 13t-99 35zM166 291q0 -23 15 -38t42 -15q26 0 41.5 15t15.5 38q0 24 -15 39t-42 15t-42 -15t-15 -39z" />
<glyph unicode="h" horiz-adv-x="518" d="M40 0v628l160 6v-225q27 21 59 31t69 10q66 0 108 -38.5t42 -121.5v-290h-160v257q0 29 -16.5 40.5t-40.5 11.5q-15 0 -31 -4t-30 -11v-294h-160z" />
<glyph unicode="i" horiz-adv-x="240" d="M36 570q0 35 24.5 58t61.5 23q36 0 59 -23t23 -58q0 -36 -23 -59.5t-59 -23.5q-37 0 -61.5 23.5t-24.5 59.5zM40 0v437l160 6v-443h-160z" />
<glyph unicode="j" horiz-adv-x="240" d="M-23 -136q30 35 46.5 88.5t16.5 132.5v352l160 6v-361q0 -102 -22.5 -171t-57.5 -106zM36 570q0 35 24.5 58t61.5 23q36 0 59 -23t23 -58q0 -36 -23 -59.5t-59 -23.5q-37 0 -61.5 23.5t-24.5 59.5z" />
<glyph unicode="k" horiz-adv-x="512" d="M40 0v628l160 6v-386h5q11 25 30.5 56.5t47.5 69.5l51 69l170 -6l-139 -173l142 -264h-183l-82 153l-42 -53v-100h-160z" />
<glyph unicode="l" horiz-adv-x="240" d="M40 0v628l160 6v-634h-160z" />
<glyph unicode="m" horiz-adv-x="770" d="M40 0v437l160 6v-34q14 12 30.5 20.5t34.5 13.5q22 7 50 7q41 0 74 -15.5t52 -47.5q30 33 64.5 48t74.5 15q66 0 108 -38.5t42 -121.5v-290h-160v257q0 29 -13 40.5t-35 11.5q-13 0 -29 -4t-28 -11v-14.5v-14.5v-265h-160v257q0 29 -13 40.5t-35 11.5q-13 0 -29 -4 t-28 -11v-294h-160z" />
<glyph unicode="n" horiz-adv-x="514" d="M40 0v437l160 6v-34q27 21 57 31t67 10q66 0 108 -38.5t42 -121.5v-290h-160v257q0 29 -14.5 40.5t-38.5 11.5q-15 0 -31 -4t-30 -11v-294h-160z" />
<glyph unicode="o" horiz-adv-x="522" d="M18 220q0 67 31 118.5t86 81.5t126 30t126 -30t86 -81.5t31 -118.5q0 -66 -31 -118t-86 -82t-126 -30t-126 30t-86 82t-31 118zM183 220q0 -28 10 -48.5t28 -31.5t40 -11q23 0 40.5 11t27.5 31.5t10 48.5t-10 48.5t-27.5 31.5t-40.5 11q-22 0 -40 -11t-28 -31.5 t-10 -48.5z" />
<glyph unicode="p" horiz-adv-x="514" d="M40 -185v622l160 6v-28q20 17 45.5 26t59.5 9q54 0 97 -27.5t68.5 -77.5t25.5 -119q0 -68 -28 -121.5t-76.5 -84t-112.5 -30.5q-51 0 -79 16v-191h-160zM200 135q8 -3 21 -5.5t26 -2.5q28 0 46.5 11.5t28 33t9.5 49.5q0 27 -8 48t-25.5 32.5t-46.5 11.5q-30 0 -51 -14 v-164z" />
<glyph unicode="q" horiz-adv-x="514" d="M18 212q0 72 26 125.5t71.5 83t103.5 29.5q28 0 52.5 -8t42.5 -24v22h160v-625h-160v207q-25 -17 -50 -24.5t-55 -7.5q-54 0 -97.5 27t-68.5 77t-25 118zM183 219q0 -27 8 -47.5t26 -32.5t46 -12q30 0 51 14v164q-7 3 -20 5.5t-27 2.5q-27 0 -46 -11.5t-28.5 -32.5 t-9.5 -50z" />
<glyph unicode="r" horiz-adv-x="350" d="M40 0v437l160 6v-45q30 29 57.5 40.5t57.5 11.5q6 0 14 -1t12 -3l-6 -154q-6 3 -21 6t-30 3q-22 0 -44 -4.5t-40 -13.5v-283h-160z" />
<glyph unicode="s" horiz-adv-x="397" d="M23 28l9 134q24 -17 66.5 -31t85.5 -14q32 0 32 16q0 8 -13.5 13t-35 10.5t-46 15t-46 25.5t-35 41t-13.5 63q0 43 24.5 76.5t69 53t104.5 19.5q39 0 76.5 -6t59.5 -17l-24 -129q-21 11 -52.5 18t-61.5 7q-17 0 -24.5 -4t-7.5 -12q0 -7 13.5 -12.5t35 -11t46 -15t46 -25 t35 -40.5t13.5 -63q0 -40 -19.5 -74t-62.5 -55t-112 -21q-47 0 -92 10.5t-71 27.5z" />
<glyph unicode="t" horiz-adv-x="360" d="M5 303v137h58v88l160 33v-121h116l-11 -137h-105v-124q0 -28 13.5 -39t41.5 -11q15 0 29.5 5t24.5 12l6 -134q-38 -22 -101 -22q-93 0 -133.5 45t-40.5 127v141h-58z" />
<glyph unicode="u" horiz-adv-x="510" d="M40 150v287l160 6v-260q0 -29 14.5 -40.5t38.5 -11.5q15 0 29.5 3.5t27.5 10.5v292l160 6v-443h-160v30q-27 -21 -55 -30.5t-65 -9.5q-66 0 -108 38.5t-42 121.5z" />
<glyph unicode="v" horiz-adv-x="504" d="M6 437l165 6l48 -164q13 -44 21.5 -78t12.5 -66h5q4 32 13 67.5t21 76.5l47 161h161l-145 -440h-205z" />
<glyph unicode="w" horiz-adv-x="758" d="M11 437l161 6l40 -172q5 -20 10 -51.5t7 -57.5h5q3 26 9.5 57.5t12.5 51.5l41 135h171l41 -135q6 -20 12.5 -51.5t9.5 -57.5h5q2 26 7.5 57.5t9.5 51.5l39 169h157l-121 -440h-171l-33 109q-17 57 -26.5 89.5t-15.5 59.5h-5q-6 -27 -15.5 -59.5t-26.5 -89.5l-33 -109 h-171z" />
<glyph unicode="x" horiz-adv-x="489" d="M-7 0l148 238l-136 199l187 6l65 -110l58 107h171l-140 -225l150 -215h-191l-75 123l-66 -123h-171z" />
<glyph unicode="y" horiz-adv-x="504" d="M5 437l169 6l52 -147q14 -41 25 -76.5t15 -60.5h5q3 25 11.5 60.5t19.5 77.5l37 143h161l-123 -376q-27 -83 -67.5 -139t-89.5 -85.5t-101 -34.5l-67 125q43 5 74.5 24t46.5 46z" />
<glyph unicode="z" horiz-adv-x="435" d="M25 0v136l183 167h-172v137h363v-136l-183 -167h194v-137h-385z" />
<glyph unicode="{" horiz-adv-x="323" d="M22 157v129h16q41 0 60 7t19 32q0 17 -8.5 38.5t-20 46.5t-20 52t-8.5 54q0 59 35.5 85.5t99.5 26.5h106l-14 -129h-52q-17 0 -26 -6.5t-9 -22.5q0 -15 8.5 -33.5t20 -39t20 -42.5t8.5 -45q0 -37 -31.5 -59.5t-87.5 -28.5q56 -6 87.5 -28.5t31.5 -60.5q0 -23 -8.5 -45 t-20 -42.5t-20 -39t-8.5 -33.5q0 -16 9 -22.5t26 -6.5h59v-129h-99q-64 0 -99.5 27t-35.5 85q0 27 8.5 54t20 52t20 47t8.5 38q0 26 -19 32.5t-60 6.5h-16z" />
<glyph unicode="|" horiz-adv-x="213" d="M50 -185v813h113v-813h-113z" />
<glyph unicode="}" horiz-adv-x="323" d="M22 -185l14 129h52q17 0 26 6.5t9 22.5q0 15 -8.5 33.5t-20 39t-20 42.5t-8.5 45q0 38 32 60t87 28q-55 6 -87 29t-32 60q0 23 8.5 45t20 42.5t20 39t8.5 33.5q0 16 -9 22.5t-26 6.5h-59v129h99q65 0 100 -26.5t35 -85.5q0 -27 -8.5 -54t-20 -52t-20 -46.5t-8.5 -38.5 q0 -25 19.5 -32t59.5 -7h16v-129h-16q-40 0 -59.5 -6.5t-19.5 -32.5q0 -16 8.5 -38t20 -47t20 -52t8.5 -54q0 -58 -35 -85t-100 -27h-106z" />
<glyph unicode="~" d="M32 291q14 29 45 47t76 18q44 0 79.5 -13.5t70.5 -27.5t74 -14q42 0 69.5 17.5t36.5 37.5l5 -143q-13 -28 -44.5 -46.5t-76.5 -18.5q-43 0 -79 14t-70.5 27.5t-74.5 13.5q-42 0 -69.5 -17.5t-36.5 -37.5z" />
<glyph unicode="&#xa1;" horiz-adv-x="330" d="M77 358q0 40 25.5 66t62.5 26q38 0 63 -26t25 -65q0 -40 -25 -66t-63 -26t-63 26t-25 65zM81 -154l14 360l142 6l14 -366h-170z" />
<glyph unicode="&#xa2;" d="M58 221q0 52 19 95t53 74t80 46v89h152v-80q28 -4 51 -13t39 -21l-35 -144q-17 17 -43.5 27.5t-57.5 10.5q-28 0 -49 -9.5t-32.5 -28t-11.5 -46.5q0 -29 12.5 -48.5t36.5 -29t58 -9.5q32 0 61.5 9t53.5 23l6 -141q-19 -10 -41 -18t-48 -12v-80h-152v89q-44 15 -78.5 44.5 t-54 73t-19.5 99.5z" />
<glyph unicode="&#xa3;" d="M49 0v140q35 0 56.5 12.5t21.5 50.5q0 14 -2.5 28.5t-5.5 30.5h-70v78h52l-4 32t-2 33q0 93 59 146t159 53q41 0 81 -10.5t73 -30.5l-44 -129q-15 10 -36.5 17.5t-52.5 7.5q-36 0 -54.5 -18t-18.5 -55q0 -10 2 -21.5t4 -24.5h164l-11 -78h-135q2 -9 3 -16.5t1 -15.5 q0 -29 -10.5 -47.5t-31.5 -32.5h224l-13 -150h-409z" />
<glyph unicode="&#xa4;" d="M12 0l74 96q-19 26 -29 57t-10 67q0 35 10 67t29 57l-74 96h117l27 -34q48 25 104 25q57 0 104 -26l27 35h117l-74 -96q19 -25 29 -57t10 -67q0 -36 -10 -67.5t-29 -57.5l74 -95h-117l-27 34q-47 -25 -103 -25q-57 0 -105 25l-27 -34h-117zM184 219q0 -35 21 -57t55 -22 q35 0 55.5 22t20.5 57q0 36 -20.5 58.5t-56.5 22.5q-34 0 -54.5 -22.5t-20.5 -58.5z" />
<glyph unicode="&#xa5;" d="M20 594h168l77 -223l77 223h158l-103 -254h73l-11 -78h-94l-17 -43h122l-11 -78h-119v-141h-160v141h-124v78h116l-17 43h-99v78h67z" />
<glyph unicode="&#xa6;" horiz-adv-x="213" d="M50 126h113v-311h-113v311zM50 317v311h113v-311h-113z" />
<glyph unicode="&#xa7;" d="M30 238q0 45 27 80.5t77 54.5q-11 14 -17.5 33t-6.5 44q0 43 23 77.5t67 55.5t108 21q39 0 73.5 -6.5t56.5 -17.5l-9 -129q-23 11 -56.5 18.5t-66.5 7.5q-19 0 -25.5 -4.5t-6.5 -13.5q0 -10 15.5 -17.5t40 -15.5t52.5 -19.5t52.5 -29t40 -44.5t15.5 -66q0 -46 -27 -81.5 t-77 -53.5q11 -15 17.5 -34t6.5 -43q0 -42 -23 -77t-67 -56t-108 -21q-39 0 -73 6.5t-57 17.5l9 129q23 -11 56.5 -18.5t66.5 -7.5q19 0 25.5 4.5t6.5 13.5q0 10 -15.5 17.5t-40 15.5t-52.5 19.5t-52.5 29t-40 44.5t-15.5 66zM177 274q0 -17 11 -28.5t29.5 -20.5t41 -17.5 t45.5 -18.5q17 5 28 15.5t11 26.5q0 17 -11 28.5t-29.5 20.5t-41 17t-45.5 18q-18 -4 -28.5 -14t-10.5 -27z" />
<glyph unicode="&#xa8;" horiz-adv-x="500" d="M78 570q0 35 22 58t56 23q32 0 53 -23t21 -58q0 -36 -21 -59.5t-53 -23.5q-34 0 -56 23.5t-22 59.5zM270 570q0 35 22 58t56 23q32 0 53 -23t21 -58q0 -36 -21 -59.5t-53 -23.5q-34 0 -56 23.5t-22 59.5z" />
<glyph unicode="&#xa9;" horiz-adv-x="690" d="M35 297q0 89 39.5 158t109.5 109t161 40t161 -40t109.5 -109t39.5 -158q0 -88 -39.5 -157.5t-109.5 -109.5t-161 -40t-161 40t-109.5 109.5t-39.5 157.5zM113 297q0 -72 29.5 -124.5t82 -81t120.5 -28.5t120.5 28.5t82 81t29.5 124.5t-29.5 124.5t-82 81t-120.5 28.5 t-120.5 -28.5t-82 -81t-29.5 -124.5zM177 300q0 49 22.5 86t62.5 58t91 21q39 0 70.5 -10.5t51.5 -28.5l-39 -95q-16 16 -33.5 23.5t-37.5 7.5q-32 0 -50 -17t-18 -44q0 -33 21 -51t55 -18q28 0 51.5 8t39.5 21l5 -106q-15 -10 -44 -18t-60 -8q-57 0 -99.5 22.5t-65.5 61 t-23 87.5z" />
<glyph unicode="&#xaa;" horiz-adv-x="355" d="M20 398q0 41 29.5 64t84.5 23q17 0 34.5 -2.5t27.5 -6.5v5q0 17 -12.5 23.5t-44.5 6.5q-22 0 -47.5 -5.5t-40.5 -14.5l-4 93q20 9 53.5 14.5t64.5 5.5q79 0 115 -31t36 -92v-163h-117v20q-32 -26 -82 -26q-49 0 -73 24t-24 62zM138 400q0 -11 6.5 -16.5t20.5 -5.5 q8 0 16.5 3t14.5 7v28q-5 3 -13.5 4.5t-15.5 1.5q-29 0 -29 -22z" />
<glyph unicode="&#xab;" horiz-adv-x="571" d="M20 200v40l137 175h154l-120 -195l120 -195h-154zM251 200v40l137 175h154l-120 -195l120 -195h-154z" />
<glyph unicode="&#xac;" horiz-adv-x="560" d="M40 219v150h480v-300h-156v150h-324z" />
<glyph unicode="&#xad;" horiz-adv-x="430" />
<glyph unicode="&#xae;" horiz-adv-x="476" d="M23 388q0 63 27.5 111.5t76.5 76.5t111 28q63 0 111.5 -28t76 -76.5t27.5 -111.5q0 -62 -27.5 -111t-76 -77t-111.5 -28q-62 0 -111 28t-76.5 77t-27.5 111zM79 388q0 -49 20.5 -85.5t56.5 -56.5t82 -20t81.5 20t56.5 56.5t21 85.5q0 50 -21 86t-56.5 56t-81.5 20 t-82 -20t-56.5 -56t-20.5 -86zM151 282v212h89q46 0 70.5 -18.5t24.5 -55.5q0 -19 -10 -33.5t-29 -24.5l46 -80h-76l-35 67h-13v-67h-67zM218 393h25q12 0 18 7t6 17q0 11 -6 17.5t-18 6.5h-25v-48z" />
<glyph unicode="&#xaf;" horiz-adv-x="500" d="M90 503v100h320v-100h-320z" />
<glyph unicode="&#xb0;" horiz-adv-x="302" d="M12 466q0 38 17.5 69.5t49 50t72.5 18.5t72.5 -18.5t49 -50t17.5 -69.5t-17.5 -69.5t-49 -50t-72.5 -18.5t-72.5 18.5t-49 50t-17.5 69.5zM104 466q0 -24 12.5 -37t34.5 -13q23 0 35 13t12 37t-12 37t-35 13q-22 0 -34.5 -13t-12.5 -37z" />
<glyph unicode="&#xb1;" d="M46 0v150h428v-150h-428zM46 265v150h136v90h156v-90h136v-150h-136v-90h-156v90h-136z" />
<glyph unicode="&#xb2;" horiz-adv-x="320" d="M30 272v95q58 31 86 49t37 30.5t9 24.5q0 14 -9.5 22.5t-34.5 8.5q-20 0 -43.5 -4.5t-38.5 -12.5l-5 94q21 10 47.5 15t57.5 5q67 0 104.5 -31t37.5 -78q0 -23 -10 -44.5t-32 -40.5t-58 -38h113l-8 -95h-253z" />
<glyph unicode="&#xb3;" horiz-adv-x="320" d="M28 287l9 95q17 -8 45.5 -13t53.5 -5q40 0 40 20q0 10 -8 13.5t-23 3.5h-60v55l71 43h-121l8 95h234v-95l-78 -47q48 -4 70.5 -26.5t22.5 -59.5q0 -45 -39 -72t-103 -27q-37 0 -69.5 5.5t-52.5 14.5z" />
<glyph unicode="&#xb4;" horiz-adv-x="500" d="M131 492l48 142l190 -4l-114 -138h-124z" />
<glyph unicode="&#xb6;" d="M28 415q0 53 23.5 93t66 63t99.5 23h253v-683h-99v590h-40v-590h-101v325h-13q-57 0 -99.5 23t-66 63.5t-23.5 92.5z" />
<glyph unicode="&#xb7;" horiz-adv-x="256" d="M40 228q0 40 25.5 66t62.5 26q38 0 63 -26t25 -65q0 -40 -25 -66t-63 -26t-63 26t-25 65z" />
<glyph unicode="&#xb8;" horiz-adv-x="500" d="M144 -181l5 73q9 -7 26.5 -11.5t32.5 -4.5t23 4t8 14q0 16 -21 16h-25l-15 29l45 69h61l-30 -46h14q38 0 61.5 -18t23.5 -53q0 -43 -34.5 -64.5t-89.5 -21.5q-22 0 -46.5 4t-38.5 10z" />
<glyph unicode="&#xb9;" horiz-adv-x="320" d="M36 272v95h96v127l-92 -40v100l92 40h106v-227h59l-8 -95h-253z" />
<glyph unicode="&#xba;" horiz-adv-x="370" d="M20 458q0 43 19.5 75.5t56.5 51.5t89 19t89 -19t56.5 -51.5t19.5 -75.5q0 -42 -19.5 -75t-56.5 -52t-89 -19t-89 19t-56.5 52t-19.5 75zM145 458q0 -25 10.5 -38.5t29.5 -13.5t29.5 13.5t10.5 38.5t-10.5 38.5t-29.5 13.5t-29.5 -13.5t-10.5 -38.5z" />
<glyph unicode="&#xbb;" horiz-adv-x="571" d="M29 25l120 195l-120 195h154l137 -175v-40l-137 -175h-154zM260 25l120 195l-120 195h154l137 -175v-40l-137 -175h-154z" />
<glyph unicode="&#xbc;" horiz-adv-x="775" d="M36 272v95h96v127l-92 -40v100l92 40h106v-227h59l-8 -95h-253zM169 0l343 594h94l-343 -594h-94zM476 56v108l76 160l108 -6l-95 -175h61v62l100 4v-58h29l-7 -95h-22v-56h-106v56h-144z" />
<glyph unicode="&#xbd;" horiz-adv-x="775" d="M36 272v95h96v127l-92 -40v100l92 40h106v-227h59l-8 -95h-253zM169 0l343 594h94l-343 -594h-94zM485 0v95q58 31 86 49t37 30.5t9 24.5q0 14 -9.5 22.5t-34.5 8.5q-20 0 -43.5 -4.5t-38.5 -12.5l-5 94q21 10 47.5 15t57.5 5q67 0 104.5 -31t37.5 -78q0 -23 -10 -44.5 t-32 -40.5t-58 -38h113l-8 -95h-253z" />
<glyph unicode="&#xbe;" horiz-adv-x="775" d="M28 287l9 95q17 -8 45.5 -13t53.5 -5q40 0 40 20q0 10 -8 13.5t-23 3.5h-60v55l71 43h-121l8 95h234v-95l-78 -47q48 -4 70.5 -26.5t22.5 -59.5q0 -45 -39 -72t-103 -27q-37 0 -69.5 5.5t-52.5 14.5zM169 0l343 594h94l-343 -594h-94zM476 56v108l76 160l108 -6l-95 -175 h61v62l100 4v-58h29l-7 -95h-22v-56h-106v56h-144z" />
<glyph unicode="&#xbf;" horiz-adv-x="450" d="M34 0q0 68 43.5 109t105.5 51l2 46l142 6l13 -127q-81 0 -113.5 -12t-32.5 -44q0 -26 20.5 -38.5t59.5 -12.5q34 0 66.5 7.5t54.5 20.5l15 -138q-27 -14 -70 -23t-86 -9q-110 0 -165 47.5t-55 116.5zM167 358q0 40 25.5 66t62.5 26q38 0 63 -26t25 -65q0 -40 -25 -66 t-63 -26t-63 26t-25 65z" />
<glyph unicode="&#xc0;" horiz-adv-x="619" d="M5 0l207 594h195l207 -594h-178l-39 125h-183l-39 -125h-170zM172 713l189 4l15 -83h-124zM254 256h102l-28 92q-7 21 -11.5 40t-8.5 38h-5q-4 -19 -8.5 -38t-11.5 -40z" />
<glyph unicode="&#xc1;" horiz-adv-x="619" d="M5 0l207 594h195l207 -594h-178l-39 125h-183l-39 -125h-170zM243 634l15 83l189 -4l-80 -79h-124zM254 256h102l-28 92q-7 21 -11.5 40t-8.5 38h-5q-4 -19 -8.5 -38t-11.5 -40z" />
<glyph unicode="&#xc2;" horiz-adv-x="619" d="M5 0l207 594h195l207 -594h-178l-39 125h-183l-39 -125h-170zM167 634l27 83h232l27 -83h-118l-25 49l-25 -49h-118zM254 256h102l-28 92q-7 21 -11.5 40t-8.5 38h-5q-4 -19 -8.5 -38t-11.5 -40z" />
<glyph unicode="&#xc3;" horiz-adv-x="619" d="M5 0l207 594h195l207 -594h-178l-39 125h-183l-39 -125h-170zM181 634q0 51 18.5 68.5t53.5 17.5q16 0 34.5 -4.5t36 -9t29.5 -4.5q7 0 9.5 4t2.5 11h74q0 -51 -18 -68.5t-54 -17.5q-15 0 -34 4.5t-36.5 9t-29.5 4.5q-7 0 -9.5 -4t-2.5 -11h-74zM254 256h102l-28 92 q-7 21 -11.5 40t-8.5 38h-5q-4 -19 -8.5 -38t-11.5 -40z" />
<glyph unicode="&#xc4;" horiz-adv-x="619" d="M5 0l207 594h195l207 -594h-178l-39 125h-183l-39 -125h-170zM169 675q0 20 17 33t45 13q31 0 46.5 -12.5t15.5 -32.5t-17.5 -33t-44.5 -13q-31 0 -46.5 13t-15.5 32zM254 256h102l-28 92q-7 21 -11.5 40t-8.5 38h-5q-4 -19 -8.5 -38t-11.5 -40zM329 675q0 20 17 33 t45 13q31 0 46.5 -12.5t15.5 -32.5t-17.5 -33t-44.5 -13q-31 0 -46.5 13t-15.5 32z" />
<glyph unicode="&#xc5;" horiz-adv-x="619" d="M5 0l207 594h195l207 -594h-178l-39 125h-183l-39 -125h-170zM190 728q0 46 36 73t84 27t84 -27t36 -73q0 -44 -36 -71.5t-84 -27.5t-84 27.5t-36 71.5zM254 256h102l-28 92q-7 21 -11.5 40t-8.5 38h-5q-4 -19 -8.5 -38t-11.5 -40zM275 728q0 -14 10.5 -22.5t24.5 -8.5 t24.5 8.5t10.5 22.5t-10.5 23t-24.5 9t-24.5 -9t-10.5 -23z" />
<glyph unicode="&#xc6;" horiz-adv-x="845" d="M5 0l207 594h603l-12 -144h-226v-79h192v-144h-192v-83h243v-144h-409v227h-165l-71 -227h-170zM291 371h120v87h-92z" />
<glyph unicode="&#xc7;" horiz-adv-x="557" d="M22 297q0 89 40.5 158t110.5 109t159 40q63 0 112.5 -13t87.5 -39l-54 -150q-26 23 -59 35.5t-74 12.5q-44 0 -78.5 -17.5t-54.5 -51.5t-20 -84q0 -45 20 -79.5t57 -54t87 -19.5q54 0 96 13t68 33l7 -160q-28 -18 -68.5 -28t-84.5 -12h-11h-11l-18 -28h14q38 0 61.5 -18 t23.5 -53q0 -43 -34.5 -64.5t-89.5 -21.5q-22 0 -46.5 4t-38.5 10l5 73q9 -7 26.5 -11.5t32.5 -4.5q31 0 31 18q0 16 -21 16h-25l-15 29l36 55q-85 11 -146 53t-93.5 106.5t-32.5 143.5z" />
<glyph unicode="&#xc8;" horiz-adv-x="484" d="M50 0v594h414l-12 -148h-236v-75h192v-144h-192v-79h253v-148h-419zM116 713l189 4l15 -83h-124z" />
<glyph unicode="&#xc9;" horiz-adv-x="484" d="M50 0v594h414l-12 -148h-236v-75h192v-144h-192v-79h253v-148h-419zM166 634l15 83l189 -4l-80 -79h-124z" />
<glyph unicode="&#xca;" horiz-adv-x="484" d="M50 0v594h414l-12 -148h-236v-75h192v-144h-192v-79h253v-148h-419zM109 634l27 83h232l27 -83h-118l-25 49l-25 -49h-118z" />
<glyph unicode="&#xcb;" horiz-adv-x="484" d="M50 0v594h414l-12 -148h-236v-75h192v-144h-192v-79h253v-148h-419zM110 675q0 20 17 33t45 13q31 0 46.5 -12.5t15.5 -32.5t-17.5 -33t-44.5 -13q-31 0 -46.5 13t-15.5 32zM270 675q0 20 17 33t45 13q31 0 46.5 -12.5t15.5 -32.5t-17.5 -33t-44.5 -13q-31 0 -46.5 13 t-15.5 32z" />
<glyph unicode="&#xcc;" horiz-adv-x="266" d="M12 713l183 4l9 -83h-124zM50 0v594h166v-594h-166z" />
<glyph unicode="&#xcd;" horiz-adv-x="266" d="M50 0v594h166v-594h-166zM62 634l9 83l183 -4l-68 -79h-124z" />
<glyph unicode="&#xce;" horiz-adv-x="266" d="M-2 634l27 83h216l27 -83h-118l-17 49l-17 -49h-118zM50 0v594h166v-594h-166z" />
<glyph unicode="&#xcf;" horiz-adv-x="266" d="M4 675q0 20 15.5 33t41.5 13q28 0 42.5 -12.5t14.5 -32.5t-16 -33t-41 -13q-28 0 -42.5 13t-14.5 32zM50 0v594h166v-594h-166zM149 675q0 20 15.5 33t41.5 13q28 0 42 -12.5t14 -32.5t-15.5 -33t-40.5 -13q-28 0 -42.5 13t-14.5 32z" />
<glyph unicode="&#xd0;" horiz-adv-x="629" d="M8 246v100h42v248h229q101 0 174.5 -38.5t113.5 -105.5t40 -153q0 -85 -40 -152.5t-113.5 -106t-174.5 -38.5h-229v246h-42zM215 140h64q48 0 83 19t53.5 54.5t18.5 83.5q0 49 -18.5 84t-53.5 54t-83 19h-64v-108h113v-100h-113v-106z" />
<glyph unicode="&#xd1;" horiz-adv-x="635" d="M50 0v594h161l163 -233q13 -18 25 -37t22 -39h5v309h159v-594h-141l-183 260q-13 18 -24.5 37.5t-22.5 38.5h-5v-336h-159zM189 634q0 51 18.5 68.5t53.5 17.5q16 0 34.5 -4.5t36 -9t29.5 -4.5q7 0 9.5 4t2.5 11h74q0 -51 -18 -68.5t-54 -17.5q-15 0 -34 4.5t-36.5 9 t-29.5 4.5q-7 0 -9.5 -4t-2.5 -11h-74z" />
<glyph unicode="&#xd2;" horiz-adv-x="674" d="M22 297q0 89 41 158t112 109t162 40t162 -40t112 -109t41 -158q0 -88 -41 -157.5t-112 -109.5t-162 -40t-162 40t-112 109.5t-41 157.5zM195 297q0 -46 18 -82t50.5 -56t73.5 -20q42 0 74 20t50 56t18 82q0 47 -18 82.5t-50 55.5t-74 20q-41 0 -73.5 -20t-50.5 -55.5 t-18 -82.5zM203 713l189 4l15 -83h-124z" />
<glyph unicode="&#xd3;" horiz-adv-x="674" d="M22 297q0 89 41 158t112 109t162 40t162 -40t112 -109t41 -158q0 -88 -41 -157.5t-112 -109.5t-162 -40t-162 40t-112 109.5t-41 157.5zM195 297q0 -46 18 -82t50.5 -56t73.5 -20q42 0 74 20t50 56t18 82q0 47 -18 82.5t-50 55.5t-74 20q-41 0 -73.5 -20t-50.5 -55.5 t-18 -82.5zM267 634l15 83l189 -4l-80 -79h-124z" />
<glyph unicode="&#xd4;" horiz-adv-x="674" d="M22 297q0 89 41 158t112 109t162 40t162 -40t112 -109t41 -158q0 -88 -41 -157.5t-112 -109.5t-162 -40t-162 40t-112 109.5t-41 157.5zM194 634l27 83h232l27 -83h-118l-25 49l-25 -49h-118zM195 297q0 -46 18 -82t50.5 -56t73.5 -20q42 0 74 20t50 56t18 82 q0 47 -18 82.5t-50 55.5t-74 20q-41 0 -73.5 -20t-50.5 -55.5t-18 -82.5z" />
<glyph unicode="&#xd5;" horiz-adv-x="674" d="M22 297q0 89 41 158t112 109t162 40t162 -40t112 -109t41 -158q0 -88 -41 -157.5t-112 -109.5t-162 -40t-162 40t-112 109.5t-41 157.5zM195 297q0 -46 18 -82t50.5 -56t73.5 -20q42 0 74 20t50 56t18 82q0 47 -18 82.5t-50 55.5t-74 20q-41 0 -73.5 -20t-50.5 -55.5 t-18 -82.5zM208 634q0 51 18.5 68.5t53.5 17.5q16 0 34.5 -4.5t36 -9t29.5 -4.5q7 0 9.5 4t2.5 11h74q0 -51 -18 -68.5t-54 -17.5q-15 0 -34 4.5t-36.5 9t-29.5 4.5q-7 0 -9.5 -4t-2.5 -11h-74z" />
<glyph unicode="&#xd6;" horiz-adv-x="674" d="M22 297q0 89 41 158t112 109t162 40t162 -40t112 -109t41 -158q0 -88 -41 -157.5t-112 -109.5t-162 -40t-162 40t-112 109.5t-41 157.5zM195 297q0 -46 18 -82t50.5 -56t73.5 -20q42 0 74 20t50 56t18 82q0 47 -18 82.5t-50 55.5t-74 20q-41 0 -73.5 -20t-50.5 -55.5 t-18 -82.5zM195 675q0 20 17 33t45 13q31 0 46.5 -12.5t15.5 -32.5t-17.5 -33t-44.5 -13q-31 0 -46.5 13t-15.5 32zM355 675q0 20 17 33t45 13q31 0 46.5 -12.5t15.5 -32.5t-17.5 -33t-44.5 -13q-31 0 -46.5 13t-15.5 32z" />
<glyph unicode="&#xd7;" d="M25 124l130 130l-130 130l105 105l130 -130l130 130l105 -105l-130 -130l130 -130l-105 -105l-130 130l-130 -130z" />
<glyph unicode="&#xd8;" horiz-adv-x="674" d="M22 297q0 89 41 158t112 109t162 40q75 0 135 -27l56 85h102l-85 -129q50 -41 78.5 -101.5t28.5 -134.5q0 -88 -41 -157.5t-112 -109.5t-162 -40q-75 0 -135 27l-56 -85h-102l85 129q-49 41 -78 102t-29 134zM195 297q0 -28 7 -52.5t20 -44.5l163 247q-24 8 -48 8 q-41 0 -73.5 -20t-50.5 -55.5t-18 -82.5zM289 147q24 -8 48 -8q42 0 74 20t50 56t18 82q0 29 -7 53.5t-20 43.5z" />
<glyph unicode="&#xd9;" horiz-adv-x="621" d="M45 255v339h166v-327q0 -59 24.5 -92t78.5 -33q53 0 77.5 33t24.5 92v327h160v-339q0 -127 -70.5 -196t-195.5 -69q-124 0 -194.5 69t-70.5 196zM186 713l189 4l15 -83h-124z" />
<glyph unicode="&#xda;" horiz-adv-x="621" d="M45 255v339h166v-327q0 -59 24.5 -92t78.5 -33q53 0 77.5 33t24.5 92v327h160v-339q0 -127 -70.5 -196t-195.5 -69q-124 0 -194.5 69t-70.5 196zM238 634l15 83l189 -4l-80 -79h-124z" />
<glyph unicode="&#xdb;" horiz-adv-x="621" d="M45 255v339h166v-327q0 -59 24.5 -92t78.5 -33q53 0 77.5 33t24.5 92v327h160v-339q0 -127 -70.5 -196t-195.5 -69q-124 0 -194.5 69t-70.5 196zM170 634l27 83h232l27 -83h-118l-25 49l-25 -49h-118z" />
<glyph unicode="&#xdc;" horiz-adv-x="621" d="M45 255v339h166v-327q0 -59 24.5 -92t78.5 -33q53 0 77.5 33t24.5 92v327h160v-339q0 -127 -70.5 -196t-195.5 -69q-124 0 -194.5 69t-70.5 196zM171 675q0 20 17 33t45 13q31 0 46.5 -12.5t15.5 -32.5t-17.5 -33t-44.5 -13q-31 0 -46.5 13t-15.5 32zM331 675q0 20 17 33 t45 13q31 0 46.5 -12.5t15.5 -32.5t-17.5 -33t-44.5 -13q-31 0 -46.5 13t-15.5 32z" />
<glyph unicode="&#xdd;" horiz-adv-x="598" d="M6 594h184l113 -241l113 241h176l-210 -394v-200h-166v200zM232 634l15 83l189 -4l-80 -79h-124z" />
<glyph unicode="&#xde;" horiz-adv-x="547" d="M50 0v594h166v-82h52q84 0 141 -25.5t86 -72.5t29 -113t-29.5 -113t-87 -72.5t-141.5 -25.5h-50v-90h-166zM216 226h49q32 0 52.5 9t30 26t9.5 40q0 24 -9.5 40.5t-30 25.5t-52.5 9h-49v-150z" />
<glyph unicode="&#xdf;" horiz-adv-x="550" d="M40 0v440q0 67 28.5 110t81 64t123.5 21q101 0 148.5 -39.5t47.5 -99.5q0 -27 -7.5 -48.5t-17 -39.5t-17 -32t-7.5 -25q0 -14 12 -30t29.5 -34.5t35 -41t29.5 -49t12 -58.5q0 -68 -46 -108t-130 -40q-37 0 -70 6.5t-53 17.5l8 131q17 -12 44.5 -20t52.5 -8q18 0 23 5.5 t5 15.5t-12 24t-29.5 31t-35 36.5t-29.5 42t-12 46.5q0 23 8 42.5t18 37.5t18 35t8 34q0 40 -47 40q-19 0 -32.5 -7.5t-20 -22.5t-6.5 -37v-440h-160z" />
<glyph unicode="&#xe0;" horiz-adv-x="477" d="M18 124q0 67 46.5 102t125.5 35q26 0 52 -4t42 -10v8q0 30 -21 43t-68 13q-35 0 -74 -8.5t-62 -21.5l-6 138q33 15 77 23t90 8q108 0 164 -45t56 -141v-264h-151v31q-22 -18 -53 -29.5t-69 -11.5q-72 0 -110.5 35.5t-38.5 98.5zM75 630l190 4l48 -142h-124zM176 126 q0 -17 11 -25t38 -8q15 0 32 5t27 13v44q-10 5 -25 7.5t-28 2.5q-28 0 -41.5 -9.5t-13.5 -29.5z" />
<glyph unicode="&#xe1;" horiz-adv-x="477" d="M18 124q0 67 46.5 102t125.5 35q26 0 52 -4t42 -10v8q0 30 -21 43t-68 13q-35 0 -74 -8.5t-62 -21.5l-6 138q33 15 77 23t90 8q108 0 164 -45t56 -141v-264h-151v31q-22 -18 -53 -29.5t-69 -11.5q-72 0 -110.5 35.5t-38.5 98.5zM166 492l48 142l190 -4l-114 -138h-124z M176 126q0 -17 11 -25t38 -8q15 0 32 5t27 13v44q-10 5 -25 7.5t-28 2.5q-28 0 -41.5 -9.5t-13.5 -29.5z" />
<glyph unicode="&#xe2;" horiz-adv-x="477" d="M18 124q0 67 46.5 102t125.5 35q26 0 52 -4t42 -10v8q0 30 -21 43t-68 13q-35 0 -74 -8.5t-62 -21.5l-6 138q33 15 77 23t90 8q108 0 164 -45t56 -141v-264h-151v31q-22 -18 -53 -29.5t-69 -11.5q-72 0 -110.5 35.5t-38.5 98.5zM59 492l69 142h224l69 -142h-128l-55 79 l-55 -79h-124zM176 126q0 -17 11 -25t38 -8q15 0 32 5t27 13v44q-10 5 -25 7.5t-28 2.5q-28 0 -41.5 -9.5t-13.5 -29.5z" />
<glyph unicode="&#xe3;" horiz-adv-x="477" d="M18 124q0 67 46.5 102t125.5 35q26 0 52 -4t42 -10v8q0 30 -21 43t-68 13q-35 0 -74 -8.5t-62 -21.5l-6 138q33 15 77 23t90 8q108 0 164 -45t56 -141v-264h-151v31q-22 -18 -53 -29.5t-69 -11.5q-72 0 -110.5 35.5t-38.5 98.5zM75 492q0 58 10.5 89.5t31 44t50.5 12.5 q15 0 31.5 -5.5t33 -13.5t31.5 -13.5t26 -5.5t16.5 8.5t5.5 25.5h94q0 -58 -10.5 -89.5t-31 -44t-50.5 -12.5q-15 0 -31.5 5.5t-33 13.5t-31.5 13.5t-26 5.5q-10 0 -16 -8.5t-6 -25.5h-94zM176 126q0 -17 11 -25t38 -8q15 0 32 5t27 13v44q-10 5 -25 7.5t-28 2.5 q-28 0 -41.5 -9.5t-13.5 -29.5z" />
<glyph unicode="&#xe4;" horiz-adv-x="477" d="M18 124q0 67 46.5 102t125.5 35q26 0 52 -4t42 -10v8q0 30 -21 43t-68 13q-35 0 -74 -8.5t-62 -21.5l-6 138q33 15 77 23t90 8q108 0 164 -45t56 -141v-264h-151v31q-22 -18 -53 -29.5t-69 -11.5q-72 0 -110.5 35.5t-38.5 98.5zM68 570q0 35 22 58t56 23q32 0 53 -23 t21 -58q0 -36 -21 -59.5t-53 -23.5q-34 0 -56 23.5t-22 59.5zM176 126q0 -17 11 -25t38 -8q15 0 32 5t27 13v44q-10 5 -25 7.5t-28 2.5q-28 0 -41.5 -9.5t-13.5 -29.5zM260 570q0 35 22 58t56 23q32 0 53 -23t21 -58q0 -36 -21 -59.5t-53 -23.5q-34 0 -56 23.5t-22 59.5z " />
<glyph unicode="&#xe5;" horiz-adv-x="477" d="M18 124q0 67 46.5 102t125.5 35q26 0 52 -4t42 -10v8q0 30 -21 43t-68 13q-35 0 -74 -8.5t-62 -21.5l-6 138q33 15 77 23t90 8q108 0 164 -45t56 -141v-264h-151v31q-22 -18 -53 -29.5t-69 -11.5q-72 0 -110.5 35.5t-38.5 98.5zM120 597q0 50 36 80t84 30t84 -30t36 -80 q0 -49 -36 -79.5t-84 -30.5t-84 30.5t-36 79.5zM176 126q0 -17 11 -25t38 -8q15 0 32 5t27 13v44q-10 5 -25 7.5t-28 2.5q-28 0 -41.5 -9.5t-13.5 -29.5zM205 597q0 -16 10.5 -25.5t24.5 -9.5t24.5 9.5t10.5 25.5t-10.5 25.5t-24.5 9.5t-24.5 -9.5t-10.5 -25.5z" />
<glyph unicode="&#xe6;" horiz-adv-x="726" d="M18 128q0 47 21.5 78t60.5 46.5t90 15.5h94v4q0 23 -18.5 33t-63.5 10q-35 0 -73.5 -9.5t-63.5 -22.5l-6 135q32 15 75 23.5t89 8.5q48 0 86.5 -10t61.5 -30q23 18 54.5 29t68.5 11q60 0 106.5 -23t73 -67t26.5 -108q0 -13 -1.5 -33.5t-3.5 -38.5h-260q8 -17 23.5 -28.5 t40 -17t59.5 -5.5q30 0 68 8t63 21l6 -135q-27 -16 -70.5 -24.5t-78.5 -8.5q-67 0 -114.5 14.5t-82.5 40.5q-47 -31 -88.5 -43t-81.5 -12q-77 0 -119 34.5t-42 103.5zM175 137q0 -23 12.5 -33.5t39.5 -10.5q15 0 32 4.5t36 16.5q-4 8 -7.5 25t-3.5 43h-51q-19 0 -32 -4.5 t-19.5 -14.5t-6.5 -26zM429 268h123v6v5q0 27 -15 42.5t-42 15.5q-28 0 -44.5 -18.5t-21.5 -50.5z" />
<glyph unicode="&#xe7;" horiz-adv-x="419" d="M18 221q0 66 31.5 118t85 81.5t119.5 29.5q49 0 86 -10t61 -29l-33 -144q-16 17 -41.5 27.5t-54.5 10.5q-26 0 -46.5 -9.5t-31.5 -28t-11 -46.5q0 -29 12 -48.5t35 -29t55 -9.5q31 0 59 9t51 23l6 -141q-28 -16 -60.5 -25t-74.5 -10l-18 -28h14q38 0 61.5 -18t23.5 -53 q0 -43 -34.5 -64.5t-89.5 -21.5q-22 0 -46.5 4t-38.5 10l5 73q9 -7 26.5 -11.5t32.5 -4.5t23 4t8 14q0 16 -21 16h-25l-15 29l36 55q-52 10 -95.5 39t-69 76.5t-25.5 111.5z" />
<glyph unicode="&#xe8;" horiz-adv-x="474" d="M18 221q0 70 29.5 121t81 79.5t116.5 28.5q60 0 106.5 -23t73 -67t26.5 -108q0 -13 -1.5 -33.5t-3.5 -38.5h-260q8 -17 23.5 -28.5t40 -17t59.5 -5.5q30 0 68 8t63 21l6 -135q-27 -16 -70.5 -24.5t-78.5 -8.5q-92 0 -154.5 28.5t-93.5 80.5t-31 122zM78 630l190 4 l48 -142h-124zM180 268h123v6v5q0 27 -15 42.5t-42 15.5q-28 0 -44.5 -18.5t-21.5 -50.5z" />
<glyph unicode="&#xe9;" horiz-adv-x="474" d="M18 221q0 70 29.5 121t81 79.5t116.5 28.5q60 0 106.5 -23t73 -67t26.5 -108q0 -13 -1.5 -33.5t-3.5 -38.5h-260q8 -17 23.5 -28.5t40 -17t59.5 -5.5q30 0 68 8t63 21l6 -135q-27 -16 -70.5 -24.5t-78.5 -8.5q-92 0 -154.5 28.5t-93.5 80.5t-31 122zM172 492l48 142 l190 -4l-114 -138h-124zM180 268h123v6v5q0 27 -15 42.5t-42 15.5q-28 0 -44.5 -18.5t-21.5 -50.5z" />
<glyph unicode="&#xea;" horiz-adv-x="474" d="M18 221q0 70 29.5 121t81 79.5t116.5 28.5q60 0 106.5 -23t73 -67t26.5 -108q0 -13 -1.5 -33.5t-3.5 -38.5h-260q8 -17 23.5 -28.5t40 -17t59.5 -5.5q30 0 68 8t63 21l6 -135q-27 -16 -70.5 -24.5t-78.5 -8.5q-92 0 -154.5 28.5t-93.5 80.5t-31 122zM60 492l69 142h224 l69 -142h-128l-55 79l-55 -79h-124zM180 268h123v6v5q0 27 -15 42.5t-42 15.5q-28 0 -44.5 -18.5t-21.5 -50.5z" />
<glyph unicode="&#xeb;" horiz-adv-x="474" d="M18 221q0 70 29.5 121t81 79.5t116.5 28.5q60 0 106.5 -23t73 -67t26.5 -108q0 -13 -1.5 -33.5t-3.5 -38.5h-260q8 -17 23.5 -28.5t40 -17t59.5 -5.5q30 0 68 8t63 21l6 -135q-27 -16 -70.5 -24.5t-78.5 -8.5q-92 0 -154.5 28.5t-93.5 80.5t-31 122zM69 570q0 35 22 58 t56 23q32 0 53 -23t21 -58q0 -36 -21 -59.5t-53 -23.5q-34 0 -56 23.5t-22 59.5zM180 268h123v6v5q0 27 -15 42.5t-42 15.5q-28 0 -44.5 -18.5t-21.5 -50.5zM261 570q0 35 22 58t56 23q32 0 53 -23t21 -58q0 -36 -21 -59.5t-53 -23.5q-34 0 -56 23.5t-22 59.5z" />
<glyph unicode="&#xec;" horiz-adv-x="240" d="M-10 630l160 4l40 -142h-104zM40 0v437l160 6v-443h-160z" />
<glyph unicode="&#xed;" horiz-adv-x="240" d="M40 0v437l160 6v-443h-160zM50 492l40 142l160 -4l-96 -138h-104z" />
<glyph unicode="&#xee;" horiz-adv-x="240" d="M-18 492l38 142h200l37 -142h-112l-27 79l-26 -79h-110zM40 0v437l160 6v-443h-160z" />
<glyph unicode="&#xef;" horiz-adv-x="240" d="M-15 570q0 35 16.5 58t46.5 23q29 0 44 -23t15 -58q0 -36 -15 -59.5t-44 -23.5q-30 0 -46.5 23.5t-16.5 59.5zM40 0v437l160 6v-443h-160zM133 570q0 35 16.5 58t46.5 23q29 0 44 -23t15 -58q0 -36 -15 -59.5t-44 -23.5q-30 0 -46.5 23.5t-16.5 59.5z" />
<glyph unicode="&#xf0;" horiz-adv-x="515" d="M18 214q0 72 29 122.5t75.5 77t98.5 26.5h9.5t9.5 -2q-11 10 -29.5 21t-40.5 22l-71 -52l-61 53l51 38q-10 5 -20.5 9.5t-20.5 8.5l110 104q14 -7 28 -15t27 -16l57 42l61 -53l-46 -34q79 -53 125 -105.5t66.5 -107t20.5 -114.5q0 -77 -30.5 -133t-84.5 -86t-125 -30 q-70 0 -124 27.5t-84.5 78t-30.5 118.5zM183 219q0 -27 8 -47.5t24.5 -31.5t39.5 -11q35 0 56 26t21 84q0 20 -4 38.5t-10 31.5q-7 4 -21 6.5t-26 2.5q-41 0 -64.5 -26t-23.5 -73z" />
<glyph unicode="&#xf1;" horiz-adv-x="514" d="M40 0v437l160 6v-34q27 21 57 31t67 10q66 0 108 -38.5t42 -121.5v-290h-160v257q0 29 -14.5 40.5t-38.5 11.5q-15 0 -31 -4t-30 -11v-294h-160zM93 492q0 58 10.5 89.5t31 44t50.5 12.5q15 0 31.5 -5.5t33 -13.5t31.5 -13.5t26 -5.5t16.5 8.5t5.5 25.5h94 q0 -58 -10.5 -89.5t-31 -44t-50.5 -12.5q-15 0 -31.5 5.5t-33 13.5t-31.5 13.5t-26 5.5q-10 0 -16 -8.5t-6 -25.5h-94z" />
<glyph unicode="&#xf2;" horiz-adv-x="522" d="M18 220q0 67 31 118.5t86 81.5t126 30t126 -30t86 -81.5t31 -118.5q0 -66 -31 -118t-86 -82t-126 -30t-126 30t-86 82t-31 118zM96 630l190 4l48 -142h-124zM183 220q0 -28 10 -48.5t28 -31.5t40 -11q23 0 40.5 11t27.5 31.5t10 48.5t-10 48.5t-27.5 31.5t-40.5 11 q-22 0 -40 -11t-28 -31.5t-10 -48.5z" />
<glyph unicode="&#xf3;" horiz-adv-x="522" d="M18 220q0 67 31 118.5t86 81.5t126 30t126 -30t86 -81.5t31 -118.5q0 -66 -31 -118t-86 -82t-126 -30t-126 30t-86 82t-31 118zM183 220q0 -28 10 -48.5t28 -31.5t40 -11q23 0 40.5 11t27.5 31.5t10 48.5t-10 48.5t-27.5 31.5t-40.5 11q-22 0 -40 -11t-28 -31.5 t-10 -48.5zM188 492l48 142l190 -4l-114 -138h-124z" />
<glyph unicode="&#xf4;" horiz-adv-x="522" d="M18 220q0 67 31 118.5t86 81.5t126 30t126 -30t86 -81.5t31 -118.5q0 -66 -31 -118t-86 -82t-126 -30t-126 30t-86 82t-31 118zM80 492l69 142h224l69 -142h-128l-55 79l-55 -79h-124zM183 220q0 -28 10 -48.5t28 -31.5t40 -11q23 0 40.5 11t27.5 31.5t10 48.5t-10 48.5 t-27.5 31.5t-40.5 11q-22 0 -40 -11t-28 -31.5t-10 -48.5z" />
<glyph unicode="&#xf5;" horiz-adv-x="522" d="M18 220q0 67 31 118.5t86 81.5t126 30t126 -30t86 -81.5t31 -118.5q0 -66 -31 -118t-86 -82t-126 -30t-126 30t-86 82t-31 118zM96 492q0 58 10.5 89.5t31 44t50.5 12.5q15 0 31.5 -5.5t33 -13.5t31.5 -13.5t26 -5.5t16.5 8.5t5.5 25.5h94q0 -58 -10.5 -89.5t-31 -44 t-50.5 -12.5q-15 0 -31.5 5.5t-33 13.5t-31.5 13.5t-26 5.5q-10 0 -16 -8.5t-6 -25.5h-94zM183 220q0 -28 10 -48.5t28 -31.5t40 -11q23 0 40.5 11t27.5 31.5t10 48.5t-10 48.5t-27.5 31.5t-40.5 11q-22 0 -40 -11t-28 -31.5t-10 -48.5z" />
<glyph unicode="&#xf6;" horiz-adv-x="522" d="M18 220q0 67 31 118.5t86 81.5t126 30t126 -30t86 -81.5t31 -118.5q0 -66 -31 -118t-86 -82t-126 -30t-126 30t-86 82t-31 118zM89 570q0 35 22 58t56 23q32 0 53 -23t21 -58q0 -36 -21 -59.5t-53 -23.5q-34 0 -56 23.5t-22 59.5zM183 220q0 -28 10 -48.5t28 -31.5 t40 -11q23 0 40.5 11t27.5 31.5t10 48.5t-10 48.5t-27.5 31.5t-40.5 11q-22 0 -40 -11t-28 -31.5t-10 -48.5zM281 570q0 35 22 58t56 23q32 0 53 -23t21 -58q0 -36 -21 -59.5t-53 -23.5q-34 0 -56 23.5t-22 59.5z" />
<glyph unicode="&#xf7;" d="M34 195v112h452v-112h-452zM177 75q0 34 24 56.5t61 22.5q35 0 58 -22.5t23 -56.5q0 -36 -23 -59t-58 -23q-37 0 -61 23t-24 59zM177 430q0 34 24 56.5t61 22.5q35 0 58 -22.5t23 -56.5q0 -36 -23 -59t-58 -23q-37 0 -61 23t-24 59z" />
<glyph unicode="&#xf8;" horiz-adv-x="522" d="M18 220q0 67 31 118.5t86 81.5t126 30q26 0 49.5 -4t44.5 -12l49 74h96l-75 -113q37 -31 58 -76t21 -99q0 -66 -31 -118t-86 -82t-126 -30q-25 0 -49 4.5t-45 11.5l-49 -74h-96l75 113q-37 32 -58 76.5t-21 98.5zM183 220q0 -10 1.5 -19.5t4.5 -17.5l84 127q-3 1 -6 1h-6 q-22 0 -40 -11t-28 -31.5t-10 -48.5zM249 130q3 -1 6 -1h6q23 0 40.5 11t27.5 31.5t10 48.5q0 11 -1.5 20t-4.5 17z" />
<glyph unicode="&#xf9;" horiz-adv-x="504" d="M40 150v287l160 6v-260q0 -29 14.5 -40.5t38.5 -11.5q15 0 29.5 3.5t27.5 10.5v292l160 6v-443h-160v30q-27 -21 -55 -30.5t-65 -9.5q-66 0 -108 38.5t-42 121.5zM95 630l190 4l48 -142h-124z" />
<glyph unicode="&#xfa;" horiz-adv-x="504" d="M40 150v287l160 6v-260q0 -29 14.5 -40.5t38.5 -11.5q15 0 29.5 3.5t27.5 10.5v292l160 6v-443h-160v30q-27 -21 -55 -30.5t-65 -9.5q-66 0 -108 38.5t-42 121.5zM185 492l48 142l190 -4l-114 -138h-124z" />
<glyph unicode="&#xfb;" horiz-adv-x="504" d="M40 150v287l160 6v-260q0 -29 14.5 -40.5t38.5 -11.5q15 0 29.5 3.5t27.5 10.5v292l160 6v-443h-160v30q-27 -21 -55 -30.5t-65 -9.5q-66 0 -108 38.5t-42 121.5zM75 492l69 142h224l69 -142h-128l-55 79l-55 -79h-124z" />
<glyph unicode="&#xfc;" horiz-adv-x="504" d="M40 150v287l160 6v-260q0 -29 14.5 -40.5t38.5 -11.5q15 0 29.5 3.5t27.5 10.5v292l160 6v-443h-160v30q-27 -21 -55 -30.5t-65 -9.5q-66 0 -108 38.5t-42 121.5zM84 570q0 35 22 58t56 23q32 0 53 -23t21 -58q0 -36 -21 -59.5t-53 -23.5q-34 0 -56 23.5t-22 59.5z M276 570q0 35 22 58t56 23q32 0 53 -23t21 -58q0 -36 -21 -59.5t-53 -23.5q-34 0 -56 23.5t-22 59.5z" />
<glyph unicode="&#xfd;" horiz-adv-x="504" d="M5 437l169 6l52 -147q14 -41 25 -76.5t15 -60.5h5q3 25 11.5 60.5t19.5 77.5l37 143h161l-123 -376q-27 -83 -67.5 -139t-89.5 -85.5t-101 -34.5l-67 125q43 5 74.5 24t46.5 46zM183 492l48 142l190 -4l-114 -138h-124z" />
<glyph unicode="&#xfe;" horiz-adv-x="514" d="M40 -185v813l160 6v-219q20 17 45.5 26t59.5 9q54 0 97 -27.5t68.5 -77.5t25.5 -119q0 -68 -28 -121.5t-76.5 -84t-112.5 -30.5q-25 0 -45 4t-34 12v-191h-160zM200 135q8 -3 21 -5.5t26 -2.5q28 0 46.5 11.5t28 33t9.5 49.5q0 27 -8 48t-25.5 32.5t-46.5 11.5 q-30 0 -51 -14v-164z" />
<glyph unicode="&#xff;" horiz-adv-x="504" d="M5 437l169 6l52 -147q14 -41 25 -76.5t15 -60.5h5q3 25 11.5 60.5t19.5 77.5l37 143h161l-123 -376q-27 -83 -67.5 -139t-89.5 -85.5t-101 -34.5l-67 125q43 5 74.5 24t46.5 46zM89 570q0 35 22 58t56 23q32 0 53 -23t21 -58q0 -36 -21 -59.5t-53 -23.5q-34 0 -56 23.5 t-22 59.5zM281 570q0 35 22 58t56 23q32 0 53 -23t21 -58q0 -36 -21 -59.5t-53 -23.5q-34 0 -56 23.5t-22 59.5z" />
<glyph unicode="&#x152;" horiz-adv-x="915" d="M22 297q0 89 41 158t112 109t162 40q46 0 84 -12t65 -32v34h399l-12 -148h-236v-75h192v-144h-192v-79h253v-148h-404v34q-31 -20 -69 -32t-80 -12q-91 0 -162 40t-112 109.5t-41 157.5zM195 297q0 -45 18 -80t50.5 -55t73.5 -20q42 0 74 20t50 55t18 80t-18 80t-50 55 t-74 20q-41 0 -73.5 -20t-50.5 -55t-18 -80z" />
<glyph unicode="&#x153;" horiz-adv-x="781" d="M18 220q0 66 30 118t83.5 82t122.5 30q47 0 85 -14t68 -39q27 26 64 39.5t81 13.5q60 0 106.5 -23t73 -67t26.5 -108q0 -13 -1.5 -33.5t-3.5 -38.5h-261q8 -17 24 -28.5t40.5 -17t59.5 -5.5q30 0 68 8t63 21l6 -133q-28 -17 -68.5 -26t-80.5 -9q-65 0 -114.5 16t-80.5 42 q-30 -28 -68.5 -43t-86.5 -15q-69 0 -122.5 30t-83.5 82t-30 118zM183 220q0 -28 10 -48.5t28 -31.5t40 -11q23 0 40.5 11t27.5 31.5t10 48.5t-10 48.5t-27.5 31.5t-40.5 11q-22 0 -40 -11t-28 -31.5t-10 -48.5zM487 268h123v6v5q0 27 -15 42.5t-42 15.5q-28 0 -44.5 -18.5 t-21.5 -50.5z" />
<glyph unicode="&#x178;" horiz-adv-x="598" d="M6 594h184l113 -241l113 241h176l-210 -394v-200h-166v200zM157 675q0 20 17 33t45 13q31 0 46.5 -12.5t15.5 -32.5t-17.5 -33t-44.5 -13q-31 0 -46.5 13t-15.5 32zM317 675q0 20 17 33t45 13q31 0 46.5 -12.5t15.5 -32.5t-17.5 -33t-44.5 -13q-31 0 -46.5 13t-15.5 32z " />
<glyph unicode="&#x2c6;" horiz-adv-x="500" d="M69 492l69 142h224l69 -142h-128l-55 79l-55 -79h-124z" />
<glyph unicode="&#x2dc;" horiz-adv-x="500" d="M85 492q0 58 10.5 89.5t31 44t50.5 12.5q15 0 31.5 -5.5t33 -13.5t31.5 -13.5t26 -5.5t16.5 8.5t5.5 25.5h94q0 -58 -10.5 -89.5t-31 -44t-50.5 -12.5q-15 0 -31.5 5.5t-33 13.5t-31.5 13.5t-26 5.5q-10 0 -16 -8.5t-6 -25.5h-94z" />
<glyph unicode="&#x3bc;" horiz-adv-x="550" d="M60 -185v622l160 6v-260q0 -29 14.5 -40.5t38.5 -11.5q15 0 29.5 3.5t27.5 10.5v292l160 6v-443h-160v30q-18 -13 -46.5 -26.5t-60.5 -13.5h-2h-1v-175h-160z" />
<glyph unicode="&#x2000;" horiz-adv-x="414" />
<glyph unicode="&#x2001;" horiz-adv-x="828" />
<glyph unicode="&#x2002;" horiz-adv-x="414" />
<glyph unicode="&#x2003;" horiz-adv-x="828" />
<glyph unicode="&#x2004;" horiz-adv-x="276" />
<glyph unicode="&#x2005;" horiz-adv-x="207" />
<glyph unicode="&#x2006;" horiz-adv-x="138" />
<glyph unicode="&#x2007;" horiz-adv-x="138" />
<glyph unicode="&#x2008;" horiz-adv-x="103" />
<glyph unicode="&#x2009;" horiz-adv-x="165" />
<glyph unicode="&#x200a;" horiz-adv-x="46" />
<glyph unicode="&#x2010;" horiz-adv-x="300" d="M33 155v134h234v-134h-234z" />
<glyph unicode="&#x2011;" horiz-adv-x="300" d="M33 155v134h234v-134h-234z" />
<glyph unicode="&#x2012;" horiz-adv-x="300" d="M33 155v134h234v-134h-234z" />
<glyph unicode="&#x2013;" horiz-adv-x="500" d="M33 155v134h434v-134h-434z" />
<glyph unicode="&#x2014;" horiz-adv-x="1000" d="M33 155v134h934v-134h-934z" />
<glyph unicode="&#x2018;" horiz-adv-x="245" d="M32 422q0 62 25 109.5t65 84.5h115q-33 -46 -45.5 -86t-12.5 -81q0 -35 13 -71h-155q-3 12 -4 23t-1 21z" />
<glyph unicode="&#x2019;" horiz-adv-x="245" d="M8 378q33 47 45.5 87t12.5 80q0 35 -13 71h155q3 -12 4 -22.5t1 -21.5q0 -61 -24.5 -108.5t-65.5 -85.5h-115z" />
<glyph unicode="&#x201a;" horiz-adv-x="245" d="M8 -81q33 47 45.5 87t12.5 80q0 35 -13 71h155q3 -12 4 -22.5t1 -21.5q0 -61 -24.5 -108.5t-65.5 -85.5h-115z" />
<glyph unicode="&#x201c;" horiz-adv-x="437" d="M32 422q0 62 25 109.5t65 84.5h115q-33 -46 -45.5 -86t-12.5 -81q0 -35 13 -71h-155q-3 12 -4 23t-1 21zM224 422q0 62 25 109.5t65 84.5h115q-33 -46 -45.5 -86t-12.5 -81q0 -35 13 -71h-155q-3 12 -4 23t-1 21z" />
<glyph unicode="&#x201d;" horiz-adv-x="437" d="M8 378q33 47 45.5 87t12.5 80q0 35 -13 71h155q3 -12 4 -22.5t1 -21.5q0 -61 -24.5 -108.5t-65.5 -85.5h-115zM200 378q33 47 45.5 87t12.5 80q0 35 -13 71h155q3 -12 4 -22.5t1 -21.5q0 -61 -24.5 -108.5t-65.5 -85.5h-115z" />
<glyph unicode="&#x201e;" horiz-adv-x="437" d="M8 -81q33 47 45.5 87t12.5 80q0 35 -13 71h155q3 -12 4 -22.5t1 -21.5q0 -61 -24.5 -108.5t-65.5 -85.5h-115zM200 -81q33 47 45.5 87t12.5 80q0 35 -13 71h155q3 -12 4 -22.5t1 -21.5q0 -61 -24.5 -108.5t-65.5 -85.5h-115z" />
<glyph unicode="&#x2022;" horiz-adv-x="384" d="M50 228q0 43 18.5 76t51 52.5t72.5 19.5q41 0 73 -19t50.5 -52.5t18.5 -75.5t-19 -75.5t-51 -53t-72 -19.5q-41 0 -73.5 19.5t-50.5 52.5t-18 75z" />
<glyph unicode="&#x2026;" horiz-adv-x="774" d="M40 81q0 40 25.5 66t62.5 26q38 0 63 -26t25 -65q0 -40 -25 -66t-63 -26t-63 26t-25 65zM299 81q0 40 25.5 66t62.5 26q38 0 63 -26t25 -65q0 -40 -25 -66t-63 -26t-63 26t-25 65zM558 81q0 40 25.5 66t62.5 26q38 0 63 -26t25 -65q0 -40 -25 -66t-63 -26t-63 26t-25 65z " />
<glyph unicode="&#x202f;" horiz-adv-x="165" />
<glyph unicode="&#x2039;" horiz-adv-x="340" d="M20 200v40l137 175h154l-120 -195l120 -195h-154z" />
<glyph unicode="&#x203a;" horiz-adv-x="340" d="M29 25l120 195l-120 195h154l137 -175v-40l-137 -175h-154z" />
<glyph unicode="&#x205f;" horiz-adv-x="207" />
<glyph unicode="&#x2070;" horiz-adv-x="320" d="M13 433q0 81 39 123.5t108 42.5q70 0 109 -42.5t39 -123.5q0 -80 -39 -123t-109 -43q-69 0 -108 43t-39 123zM120 433q0 -43 10 -59t30 -16q21 0 31 15.5t10 59.5t-10 59.5t-31 15.5q-20 0 -30 -15.5t-10 -59.5z" />
<glyph unicode="&#x2074;" horiz-adv-x="320" d="M21 328v108l76 160l108 -6l-95 -175h61v62l100 4v-58h29l-7 -95h-22v-56h-106v56h-144z" />
<glyph unicode="&#x20ac;" d="M32 198v78h31h7.5h7.5v22v21h-46v78h56q21 95 84 151t165 56q99 0 151 -41l-52 -130q-16 13 -39.5 19.5t-49.5 6.5q-36 0 -58 -15.5t-33 -46.5h170l-11 -78h-172v-9v-10v-12.5t1 -11.5h165l-11 -78h-140q13 -33 39 -48t68 -15h10t9 1q55 7 93 47l10 -148q-23 -21 -64 -33 t-89 -12q-104 0 -165 57t-81 151h-56z" />
<glyph unicode="&#x2116;" d="M37 0v594h111l45 -181q5 -19 9.5 -42t8.5 -44h4v267h120v-594h-101l-55 218q-5 19 -9.5 41t-8.5 41h-4v-300h-120zM356 479q0 61 22.5 91t63.5 30q86 0 86 -121q0 -61 -22.5 -91t-63.5 -30q-86 0 -86 121zM424 479q0 -25 4 -36.5t14 -11.5q11 0 14.5 11.5t3.5 36.5 q0 26 -3.5 37t-14.5 11q-10 0 -14 -11t-4 -37z" />
<glyph unicode="&#x2122;" horiz-adv-x="655" d="M10 499v95h252l-7 -95h-71v-154h-99v154h-75zM292 345v249h121l45 -123l46 123h121v-249h-97v133l-33 -98h-79l-33 98v-133h-91z" />
<glyph unicode="&#x2153;" horiz-adv-x="775" d="M36 272v95h96v127l-92 -40v100l92 40h106v-227h59l-8 -95h-253zM169 0l343 594h94l-343 -594h-94zM483 15l9 95q17 -8 45.5 -13t53.5 -5q40 0 40 20q0 10 -8 13.5t-23 3.5h-60v55l71 43h-121l8 95h234v-95l-78 -47q48 -4 70.5 -26.5t22.5 -59.5q0 -45 -39 -72t-103 -27 q-37 0 -69.5 5.5t-52.5 14.5z" />
<glyph d="M12 297q0 110 30.5 177.5t86 98.5t131.5 31t131.5 -30.5t86 -98t30.5 -178.5q0 -109 -30.5 -177t-86 -99t-131.5 -31t-131.5 30.5t-86 98.5t-30.5 178zM182 297q0 -90 18 -128t60 -38t60 38t18 128t-18 128t-60 38t-60 -38t-18 -128z" />
<glyph d="M47 0v150h159v290l-149 -52v149l149 57h166v-444h128l-12 -150h-441z" />
<glyph d="M33 0v140q86 56 139 94t80.5 64t37 46t9.5 40q0 32 -23 51t-70 19q-49 0 -90 -11t-68 -28l-7 143q35 22 86 34t112 12q111 0 176.5 -51.5t65.5 -140.5q0 -45 -16.5 -84t-60 -81t-124.5 -97h223l-13 -150h-457z" />
<glyph d="M42 26l12 154q27 -19 71 -29.5t95 -10.5q50 0 74 14t24 45q0 29 -24 45t-88 16h-61v83l137 101h-238l13 150h422v-140l-129 -95q68 -13 109 -56t41 -111q0 -57 -32 -103t-91.5 -72.5t-142.5 -26.5q-65 0 -114.5 10.5t-77.5 25.5z" />
<glyph d="M21 109v160l173 335l170 -10l-187 -346h107v135l166 6v-130h49l-13 -150h-36v-109h-166v109h-263z" />
<glyph d="M30 26l12 154q27 -19 70.5 -29.5t95.5 -10.5q48 0 74.5 13.5t26.5 44.5q0 29 -23 42t-75 13h-151l15 341h393l-14 -150h-235l-3 -63h24q118 0 184.5 -46.5t66.5 -141.5q0 -61 -31.5 -106.5t-92 -71t-146.5 -25.5q-57 0 -108 9.5t-83 26.5z" />
<glyph d="M20 190q0 42 11 84.5t38 91t76 107t125 131.5l184 -35q-56 -52 -97 -94t-70 -77q17 -1 34 -3t33 -6q65 -16 105.5 -62t40.5 -119q0 -67 -32.5 -116t-87.5 -75.5t-123 -26.5t-121.5 23t-84.5 68t-31 109zM196 203q0 -37 18 -55t46 -18q31 0 47.5 19.5t16.5 54.5 q0 42 -28 57t-64 15h-12t-11 -1q-7 -19 -10 -36.5t-3 -35.5z" />
<glyph d="M25 444l13 150h457v-140l-212 -454h-184l206 444h-280z" />
<glyph d="M21 155q0 38 23 74t65 62q-24 15 -43 35t-30 46t-11 59q0 52 30 91t84.5 60.5t125.5 21.5q110 0 169.5 -46t59.5 -119q0 -80 -82 -134q24 -15 43.5 -35t31 -46.5t11.5 -60.5q0 -52 -31 -90.5t-86 -60.5t-127 -22q-109 0 -171 46t-62 119zM193 179q0 -21 15 -35t48 -14 q29 0 45.5 12t16.5 34q0 14 -13 24.5t-34.5 20t-47.5 18.5q-16 -16 -23 -29.5t-7 -30.5zM205 418q0 -13 11.5 -23.5t32.5 -19.5t47 -19q15 16 20.5 29.5t5.5 29.5q0 21 -13 35t-46 14q-28 0 -43 -12t-15 -34z" />
<glyph d="M20 386q0 68 32.5 116.5t87.5 75t123 26.5t121.5 -23t84.5 -67.5t31 -109.5q0 -42 -11 -84.5t-38 -91t-76 -106.5t-125 -132l-184 35q56 53 97.5 95t69.5 76q-17 1 -34 3t-33 6q-64 17 -105 62.5t-41 118.5zM196 390q0 -42 28 -57t64 -15h12t11 1q8 20 10.5 37t2.5 35 q0 38 -18 55.5t-46 17.5q-31 0 -47.5 -19.5t-16.5 -54.5z" />
<glyph horiz-adv-x="500" d="M148 713l189 4l15 -83h-124z" />
<glyph horiz-adv-x="500" d="M148 634l15 83l189 -4l-80 -79h-124z" />
<glyph horiz-adv-x="500" d="M107 634l27 83h232l27 -83h-118l-25 49l-25 -49h-118z" />
<glyph horiz-adv-x="500" d="M121 634q0 51 18.5 68.5t53.5 17.5q16 0 34.5 -4.5t36 -9t29.5 -4.5q7 0 9.5 4t2.5 11h74q0 -51 -18 -68.5t-54 -17.5q-15 0 -34 4.5t-36.5 9t-29.5 4.5q-7 0 -9.5 -4t-2.5 -11h-74z" />
<glyph horiz-adv-x="500" d="M108 675q0 20 17 33t45 13q31 0 46.5 -12.5t15.5 -32.5t-17.5 -33t-44.5 -13q-31 0 -46.5 13t-15.5 32zM268 675q0 20 17 33t45 13q31 0 46.5 -12.5t15.5 -32.5t-17.5 -33t-44.5 -13q-31 0 -46.5 13t-15.5 32z" />
<glyph horiz-adv-x="500" d="M123 634v77h254v-77h-254z" />
<glyph horiz-adv-x="500" d="M144 -181l5 73q9 -7 26.5 -11.5t32.5 -4.5t23 4t8 14q0 16 -21 16h-25l-15 29l45 69h61l-30 -46h14q38 0 61.5 -18t23.5 -53q0 -43 -34.5 -64.5t-89.5 -21.5q-22 0 -46.5 4t-38.5 10z" />
<glyph horiz-adv-x="514" d="M18 217q0 69 26 121.5t71.5 82t103.5 29.5q28 0 52.5 -8t42.5 -24v22h160v-419q0 -71 -32.5 -119t-90 -72.5t-134.5 -24.5q-52 0 -97.5 8t-79.5 25l6 144q27 -16 71 -25.5t87 -9.5q56 0 83 15.5t27 56.5v13q-25 -17 -50 -24.5t-55 -7.5q-54 0 -97.5 27t-68.5 75.5 t-25 114.5zM183 222q0 -25 8 -45.5t26 -32t46 -11.5q30 0 51 14v158q-7 3 -20 5.5t-27 2.5q-27 0 -46 -11.5t-28.5 -32t-9.5 -47.5z" />
</font>
</defs>
</svg>
